{"glyphs":{"0":{"ha":788,"x_min":100,"x_max":687,"o":"m 340 -13 q 156 98 212 -13 q 122 422 100 208 l 140 583 q 242 911 163 799 q 449 1023 321 1023 q 632 911 577 1023 q 664 583 687 799 l 646 422 q 545 98 624 208 q 340 -13 467 -13 m 345 40 q 508 136 449 40 q 588 436 567 232 l 602 569 q 586 872 625 775 q 443 970 548 970 q 279 872 337 970 q 198 569 221 775 l 184 436 q 201 136 163 232 q 345 40 239 40 m 386 433 q 346 444 361 433 q 335 487 331 456 l 337 521 q 359 564 341 553 q 402 576 376 576 q 441 564 427 576 q 452 521 456 553 l 449 487 q 428 444 446 456 q 386 433 410 433 z "},"1":{"ha":788,"x_min":133,"x_max":639,"o":"m 133 0 l 138 53 l 370 53 l 456 869 l 447 869 q 346 742 415 792 q 194 693 277 693 l 191 756 q 371 826 293 756 q 473 1010 449 896 l 529 1010 l 428 53 l 639 53 l 634 0 l 133 0 z "},"2":{"ha":788,"x_min":78,"x_max":686,"o":"m 78 0 l 101 215 q 157 385 112 322 q 287 468 202 448 l 467 516 q 566 576 534 535 q 605 689 597 617 l 612 759 q 585 920 624 870 q 443 970 545 970 q 297 917 345 970 q 226 734 249 864 l 167 739 q 258 952 189 881 q 447 1023 326 1023 q 629 960 572 1023 q 672 771 686 896 l 662 670 q 604 537 653 587 q 473 463 556 486 l 302 417 q 204 352 237 400 q 162 217 170 304 l 144 53 l 607 53 l 602 0 l 78 0 z "},"3":{"ha":788,"x_min":87,"x_max":676,"o":"m 330 -13 q 141 47 194 -13 q 93 241 87 106 l 154 247 q 191 84 153 130 q 335 38 229 38 q 504 89 451 38 q 571 265 558 140 l 576 317 q 546 468 587 424 q 395 513 505 513 l 308 513 l 313 567 l 400 567 q 544 602 499 567 q 597 718 588 636 l 604 777 q 576 928 615 884 q 433 972 538 972 q 294 931 338 972 q 231 782 250 889 l 173 788 q 255 967 192 912 q 438 1023 318 1023 q 621 964 567 1023 q 663 777 676 905 l 657 718 q 606 595 648 641 q 496 543 564 549 l 495 534 q 610 471 573 527 q 635 317 646 415 l 630 265 q 544 53 615 119 q 330 -13 473 -13 z "},"4":{"ha":788,"x_min":100,"x_max":692,"o":"m 168 352 l 506 352 l 568 942 l 168 352 m 687 298 l 559 298 l 528 0 l 470 0 l 501 298 l 100 298 l 105 352 l 549 1010 l 634 1010 l 564 352 l 692 352 l 687 298 z "},"5":{"ha":788,"x_min":92,"x_max":667,"o":"m 328 -13 q 148 52 203 -13 q 95 250 92 116 l 154 256 q 194 90 155 139 q 335 40 232 40 q 501 95 443 40 q 571 264 559 150 l 578 342 q 554 490 590 442 q 434 538 519 538 l 157 538 l 206 1010 l 667 1010 l 662 957 l 260 957 l 221 592 l 439 592 q 600 530 549 592 q 639 354 652 468 l 629 251 q 538 55 615 122 q 328 -13 461 -13 z "},"6":{"ha":788,"x_min":95,"x_max":674,"o":"m 340 -13 q 153 69 211 -13 q 114 340 95 152 l 148 664 q 244 934 167 846 q 451 1023 321 1023 q 615 974 563 1023 q 674 814 667 926 l 612 803 q 570 936 606 902 q 443 970 534 970 q 280 898 335 970 q 208 664 226 827 l 191 492 l 202 492 q 285 570 232 543 q 418 597 338 597 q 597 525 543 597 q 638 340 650 453 l 633 294 q 541 68 617 148 q 340 -13 465 -13 m 343 40 q 502 102 446 40 q 571 292 558 164 l 574 326 q 542 490 586 437 q 396 543 499 543 q 239 490 294 543 q 173 326 184 437 l 169 292 q 199 102 157 164 q 343 40 241 40 z "},"7":{"ha":788,"x_min":179,"x_max":708,"o":"m 259 0 q 414 509 345 304 q 648 957 484 713 l 179 957 l 184 1010 l 708 1010 l 703 957 q 458 451 528 664 q 328 0 388 237 l 259 0 z "},"8":{"ha":788,"x_min":91,"x_max":676,"o":"m 340 -13 q 148 54 206 -13 q 105 253 91 120 l 110 298 q 168 462 121 404 q 287 528 215 520 l 288 537 q 198 592 229 544 q 177 731 167 640 l 183 789 q 260 965 194 907 q 448 1023 326 1023 q 623 965 571 1023 q 664 789 676 907 l 658 731 q 607 592 648 640 q 508 537 566 544 l 506 528 q 610 463 576 520 q 634 298 645 405 l 629 253 q 544 54 615 120 q 340 -13 473 -13 m 399 554 q 544 593 499 554 q 597 725 588 631 l 604 777 q 579 928 615 884 q 443 972 543 972 q 298 928 343 972 q 241 777 253 884 l 235 725 q 263 593 226 631 q 399 554 299 554 m 345 38 q 507 89 456 38 q 571 265 558 140 l 574 304 q 545 456 586 412 q 394 500 505 500 q 232 456 283 500 q 170 304 182 412 l 167 265 q 194 89 154 140 q 345 38 234 38 z "},"9":{"ha":788,"x_min":114,"x_max":692,"o":"m 391 467 q 549 520 494 467 q 615 684 604 573 l 619 718 q 589 908 631 846 q 444 970 547 970 q 285 908 342 970 q 216 718 229 846 l 212 684 q 245 520 201 573 q 391 467 289 467 m 337 -13 q 172 36 223 -13 q 114 196 121 85 l 174 210 q 217 76 181 112 q 345 40 253 40 q 507 112 452 40 q 580 346 562 183 l 597 513 l 585 513 q 498 439 552 466 q 369 413 444 413 q 194 480 251 413 q 149 670 136 548 l 154 716 q 246 943 169 862 q 448 1023 322 1023 q 636 941 580 1023 q 673 670 692 859 l 639 346 q 544 78 620 169 q 337 -13 468 -13 z "},"\u0000":{"ha":0,"x_min":0,"x_max":0,"o":""},"\r":{"ha":0,"x_min":0,"x_max":0,"o":""}," ":{"ha":788,"x_min":0,"x_max":0,"o":""}," ":{"ha":788,"x_min":0,"x_max":0,"o":""},"A":{"ha":788,"x_min":37,"x_max":646,"o":"m 524 371 l 437 902 l 239 371 l 524 371 m 585 0 l 533 317 l 217 317 l 98 0 l 37 0 l 423 1010 l 470 1010 l 646 0 l 585 0 z "},"À":{"ha":788,"x_min":37,"x_max":646,"o":"m 37 0 m 524 371 l 437 902 l 239 371 l 524 371 m 585 0 l 533 317 l 217 317 l 98 0 l 37 0 l 423 1010 l 470 1010 l 646 0 l 585 0 m 485 1136 l 314 1389 l 409 1389 l 534 1136 l 485 1136 z "},"Á":{"ha":788,"x_min":37,"x_max":657,"o":"m 37 0 m 524 371 l 437 902 l 239 371 l 524 371 m 585 0 l 533 317 l 217 317 l 98 0 l 37 0 l 423 1010 l 470 1010 l 646 0 l 585 0 m 384 1136 l 563 1389 l 657 1389 l 434 1136 l 384 1136 z "},"Â":{"ha":788,"x_min":37,"x_max":669,"o":"m 37 0 m 524 371 l 437 902 l 239 371 l 524 371 m 585 0 l 533 317 l 217 317 l 98 0 l 37 0 l 423 1010 l 470 1010 l 646 0 l 585 0 m 285 1165 l 264 1197 l 468 1410 l 508 1410 l 669 1197 l 641 1165 l 482 1355 l 285 1165 z "},"Ã":{"ha":788,"x_min":37,"x_max":686,"o":"m 37 0 m 524 371 l 437 902 l 239 371 l 524 371 m 585 0 l 533 317 l 217 317 l 98 0 l 37 0 l 423 1010 l 470 1010 l 646 0 l 585 0 m 553 1149 q 496 1173 518 1149 q 451 1265 473 1197 q 424 1336 437 1317 q 393 1355 410 1355 q 342 1311 361 1355 q 314 1176 322 1266 l 313 1162 l 265 1162 l 266 1181 q 311 1346 278 1290 q 398 1402 345 1402 q 456 1379 434 1402 q 496 1293 477 1356 q 528 1217 514 1237 q 558 1196 542 1196 q 607 1240 588 1196 q 635 1375 626 1284 l 638 1389 l 686 1389 l 683 1370 q 639 1205 672 1260 q 553 1149 606 1149 z "},"Ä":{"ha":788,"x_min":37,"x_max":646,"o":"m 37 0 m 524 371 l 437 902 l 239 371 l 524 371 m 585 0 l 533 317 l 217 317 l 98 0 l 37 0 l 423 1010 l 470 1010 l 646 0 l 585 0 m 352 1176 q 316 1185 330 1176 q 307 1221 303 1194 l 307 1230 q 325 1268 311 1258 q 362 1278 340 1278 q 398 1268 385 1278 q 408 1230 412 1258 l 408 1221 q 389 1185 404 1194 q 352 1176 374 1176 m 577 1176 q 541 1185 554 1176 q 532 1221 528 1194 l 532 1230 q 550 1268 535 1258 q 587 1278 564 1278 q 623 1268 610 1278 q 633 1230 636 1258 l 633 1221 q 614 1185 629 1194 q 577 1176 598 1176 z "},"Å":{"ha":788,"x_min":37,"x_max":646,"o":"m 37 0 m 524 371 l 437 902 l 239 371 l 524 371 m 585 0 l 533 317 l 217 317 l 98 0 l 37 0 l 423 1010 l 470 1010 l 646 0 l 585 0 m 458 1117 q 352 1162 386 1117 q 327 1292 317 1207 l 332 1350 q 385 1482 341 1436 q 501 1528 429 1528 q 607 1482 573 1528 q 633 1350 641 1436 l 628 1292 q 574 1162 617 1207 q 458 1117 530 1117 m 463 1167 q 540 1197 514 1167 q 573 1292 566 1227 l 578 1350 q 566 1448 586 1417 q 496 1479 547 1479 q 420 1448 446 1479 q 386 1350 394 1417 l 381 1292 q 393 1197 374 1227 q 463 1167 413 1167 z "},"Ā":{"ha":788,"x_min":37,"x_max":665,"o":"m 37 0 m 524 371 l 437 902 l 239 371 l 524 371 m 585 0 l 533 317 l 217 317 l 98 0 l 37 0 l 423 1010 l 470 1010 l 646 0 l 585 0 m 283 1239 l 289 1293 l 665 1293 l 659 1239 l 283 1239 z "},"Ă":{"ha":788,"x_min":37,"x_max":705,"o":"m 37 0 m 524 371 l 437 902 l 239 371 l 524 371 m 585 0 l 533 317 l 217 317 l 98 0 l 37 0 l 423 1010 l 470 1010 l 646 0 l 585 0 m 460 1128 q 307 1195 357 1128 q 270 1389 258 1263 l 330 1389 q 351 1230 318 1279 q 465 1182 384 1182 q 588 1230 545 1182 q 645 1389 631 1279 l 705 1389 q 626 1195 689 1263 q 460 1128 562 1128 z "},"Ą":{"ha":788,"x_min":37,"x_max":697,"o":"m 37 0 m 524 371 l 437 902 l 239 371 l 524 371 m 585 0 l 533 317 l 217 317 l 98 0 l 37 0 l 423 1010 l 470 1010 l 646 0 l 585 0 m 602 -271 q 505 -234 539 -271 q 477 -135 471 -197 q 521 -33 482 -81 q 619 42 559 14 l 633 29 q 564 -38 587 -3 q 537 -119 542 -73 q 551 -195 532 -172 q 616 -218 569 -218 q 656 -216 636 -218 q 697 -208 676 -213 l 691 -261 q 646 -269 670 -266 q 602 -271 621 -271 z "},"Ǻ":{"ha":788,"x_min":37,"x_max":720,"o":"m 37 0 m 524 371 l 437 902 l 239 371 l 524 371 m 585 0 l 533 317 l 217 317 l 98 0 l 37 0 l 423 1010 l 470 1010 l 646 0 l 585 0 m 458 1117 q 352 1162 386 1117 q 327 1292 317 1207 l 332 1350 q 385 1482 341 1436 q 501 1528 429 1528 q 607 1482 573 1528 q 633 1350 641 1436 l 628 1292 q 574 1162 617 1207 q 458 1117 530 1117 m 463 1167 q 540 1197 514 1167 q 573 1292 566 1227 l 578 1350 q 566 1448 586 1417 q 496 1479 547 1479 q 420 1448 446 1479 q 386 1350 394 1417 l 381 1292 q 393 1197 374 1227 q 463 1167 413 1167 m 447 1515 l 626 1768 l 720 1768 l 497 1515 l 447 1515 z "},"B":{"ha":788,"x_min":100,"x_max":667,"o":"m 100 0 l 206 1010 l 453 1010 q 616 948 564 1010 q 654 773 667 886 l 649 716 q 605 599 641 648 q 515 539 569 551 l 514 530 q 615 463 581 523 q 639 314 649 404 l 633 258 q 552 67 620 134 q 366 0 484 0 l 100 0 m 217 556 l 407 556 q 539 597 496 556 q 592 735 582 638 l 596 770 q 573 914 606 870 q 449 957 539 957 l 260 957 l 217 556 m 164 53 l 375 53 q 516 100 470 53 q 573 258 562 148 l 578 298 q 554 455 590 408 q 423 501 518 501 l 212 501 l 164 53 z "},"":{"ha":788,"x_min":100,"x_max":667,"o":"m 100 0 l 206 1010 l 453 1010 q 616 948 564 1010 q 654 773 667 886 l 649 716 q 605 599 641 648 q 515 539 569 551 l 514 530 q 615 463 581 523 q 639 314 649 404 l 633 258 q 552 67 620 134 q 366 0 484 0 l 100 0 m 217 556 l 407 556 q 539 597 496 556 q 592 735 582 638 l 596 770 q 573 914 606 870 q 449 957 539 957 l 260 957 l 217 556 m 164 53 l 375 53 q 516 100 470 53 q 573 258 562 148 l 578 298 q 554 455 590 408 q 423 501 518 501 l 212 501 l 164 53 z "},"C":{"ha":788,"x_min":95,"x_max":706,"o":"m 350 -13 q 156 74 217 -13 q 114 336 95 160 l 149 669 q 246 933 167 843 q 460 1023 326 1023 q 645 948 585 1023 q 694 713 706 872 l 635 708 q 600 912 640 854 q 453 970 559 970 q 283 897 340 970 q 208 664 226 824 l 174 341 q 199 112 158 183 q 355 40 241 40 q 520 101 466 40 q 592 297 574 162 l 650 292 q 557 66 634 144 q 350 -13 481 -13 z "},"Ç":{"ha":788,"x_min":95,"x_max":706,"o":"m 95 0 m 350 -13 q 156 74 217 -13 q 114 336 95 160 l 149 669 q 246 933 167 843 q 460 1023 326 1023 q 645 948 585 1023 q 694 713 706 872 l 635 708 q 600 912 640 854 q 453 970 559 970 q 283 897 340 970 q 208 664 226 824 l 174 341 q 199 112 158 183 q 355 40 241 40 q 520 101 466 40 q 592 297 574 162 l 650 292 q 557 66 634 144 q 350 -13 481 -13 m 321 0 l 336 27 q 426 -28 395 13 q 449 -129 456 -69 q 400 -234 443 -196 q 289 -273 356 -273 q 193 -241 227 -273 q 162 -133 159 -208 l 218 -128 q 234 -201 217 -179 q 289 -223 250 -223 q 362 -201 340 -223 q 391 -125 385 -179 q 381 -45 396 -74 q 321 0 365 -16 z "},"Ć":{"ha":788,"x_min":95,"x_max":706,"o":"m 95 0 m 350 -13 q 156 74 217 -13 q 114 336 95 160 l 149 669 q 246 933 167 843 q 460 1023 326 1023 q 645 948 585 1023 q 694 713 706 872 l 635 708 q 600 912 640 854 q 453 970 559 970 q 283 897 340 970 q 208 664 226 824 l 174 341 q 199 112 158 183 q 355 40 241 40 q 520 101 466 40 q 592 297 574 162 l 650 292 q 557 66 634 144 q 350 -13 481 -13 m 433 1136 l 612 1389 l 706 1389 l 484 1136 l 433 1136 z "},"Ĉ":{"ha":788,"x_min":95,"x_max":706,"o":"m 95 0 m 350 -13 q 156 74 217 -13 q 114 336 95 160 l 149 669 q 246 933 167 843 q 460 1023 326 1023 q 645 948 585 1023 q 694 713 706 872 l 635 708 q 600 912 640 854 q 453 970 559 970 q 283 897 340 970 q 208 664 226 824 l 174 341 q 199 112 158 183 q 355 40 241 40 q 520 101 466 40 q 592 297 574 162 l 650 292 q 557 66 634 144 q 350 -13 481 -13 m 295 1165 l 274 1197 l 479 1410 l 518 1410 l 679 1197 l 652 1165 l 492 1355 l 295 1165 z "},"Ċ":{"ha":788,"x_min":95,"x_max":706,"o":"m 95 0 m 350 -13 q 156 74 217 -13 q 114 336 95 160 l 149 669 q 246 933 167 843 q 460 1023 326 1023 q 645 948 585 1023 q 694 713 706 872 l 635 708 q 600 912 640 854 q 453 970 559 970 q 283 897 340 970 q 208 664 226 824 l 174 341 q 199 112 158 183 q 355 40 241 40 q 520 101 466 40 q 592 297 574 162 l 650 292 q 557 66 634 144 q 350 -13 481 -13 m 475 1176 q 435 1186 449 1176 q 423 1221 420 1196 l 423 1230 q 443 1267 427 1256 q 485 1278 460 1278 q 525 1267 510 1278 q 537 1230 540 1256 l 537 1221 q 516 1186 534 1196 q 475 1176 499 1176 z "},"Č":{"ha":788,"x_min":95,"x_max":706,"o":"m 95 0 m 350 -13 q 156 74 217 -13 q 114 336 95 160 l 149 669 q 246 933 167 843 q 460 1023 326 1023 q 645 948 585 1023 q 694 713 706 872 l 635 708 q 600 912 640 854 q 453 970 559 970 q 283 897 340 970 q 208 664 226 824 l 174 341 q 199 112 158 183 q 355 40 241 40 q 520 101 466 40 q 592 297 574 162 l 650 292 q 557 66 634 144 q 350 -13 481 -13 m 452 1141 l 290 1355 l 318 1386 l 477 1197 l 674 1386 l 696 1355 l 491 1141 l 452 1141 z "},"D":{"ha":788,"x_min":100,"x_max":688,"o":"m 100 0 l 206 1010 l 415 1010 q 621 912 553 1010 q 670 652 688 814 l 639 354 q 534 96 622 192 q 309 0 446 0 l 100 0 m 164 53 l 314 53 q 499 136 432 53 q 580 354 566 220 l 611 652 q 576 870 625 783 q 410 957 528 957 l 260 957 l 164 53 z "},"Ď":{"ha":788,"x_min":100,"x_max":688,"o":"m 100 0 m 100 0 l 206 1010 l 415 1010 q 621 912 553 1010 q 670 652 688 814 l 639 354 q 534 96 622 192 q 309 0 446 0 l 100 0 m 164 53 l 314 53 q 499 136 432 53 q 580 354 566 220 l 611 652 q 576 870 625 783 q 410 957 528 957 l 260 957 l 164 53 m 441 1141 l 279 1355 l 307 1386 l 466 1197 l 663 1386 l 684 1355 l 480 1141 l 441 1141 z "},"E":{"ha":788,"x_min":101,"x_max":708,"o":"m 101 0 l 207 1010 l 708 1010 l 703 957 l 260 957 l 220 580 l 611 580 l 606 525 l 215 525 l 164 53 l 607 53 l 602 0 l 101 0 z "},"":{"ha":788,"x_min":101,"x_max":708,"o":"m 101 0 l 207 1010 l 708 1010 l 703 957 l 260 957 l 220 580 l 611 580 l 606 525 l 215 525 l 164 53 l 607 53 l 602 0 l 101 0 z "},"È":{"ha":788,"x_min":101,"x_max":708,"o":"m 101 0 m 101 0 l 207 1010 l 708 1010 l 703 957 l 260 957 l 220 580 l 611 580 l 606 525 l 215 525 l 164 53 l 607 53 l 602 0 l 101 0 m 496 1136 l 326 1389 l 420 1389 l 545 1136 l 496 1136 z "},"É":{"ha":788,"x_min":101,"x_max":708,"o":"m 101 0 m 101 0 l 207 1010 l 708 1010 l 703 957 l 260 957 l 220 580 l 611 580 l 606 525 l 215 525 l 164 53 l 607 53 l 602 0 l 101 0 m 414 1136 l 593 1389 l 687 1389 l 465 1136 l 414 1136 z "},"Ê":{"ha":788,"x_min":101,"x_max":708,"o":"m 101 0 m 101 0 l 207 1010 l 708 1010 l 703 957 l 260 957 l 220 580 l 611 580 l 606 525 l 215 525 l 164 53 l 607 53 l 602 0 l 101 0 m 304 1165 l 283 1197 l 487 1410 l 527 1410 l 688 1197 l 660 1165 l 501 1355 l 304 1165 z "},"Ë":{"ha":788,"x_min":101,"x_max":708,"o":"m 101 0 m 101 0 l 207 1010 l 708 1010 l 703 957 l 260 957 l 220 580 l 611 580 l 606 525 l 215 525 l 164 53 l 607 53 l 602 0 l 101 0 m 371 1176 q 335 1185 348 1176 q 326 1221 322 1194 l 326 1230 q 344 1268 330 1258 q 381 1278 359 1278 q 417 1268 404 1278 q 427 1230 431 1258 l 427 1221 q 408 1185 423 1194 q 371 1176 393 1176 m 596 1176 q 560 1185 573 1176 q 551 1221 547 1194 l 551 1230 q 569 1268 554 1258 q 606 1278 583 1278 q 642 1268 629 1278 q 652 1230 655 1258 l 652 1221 q 633 1185 648 1194 q 596 1176 617 1176 z "},"Ē":{"ha":788,"x_min":101,"x_max":708,"o":"m 101 0 m 101 0 l 207 1010 l 708 1010 l 703 957 l 260 957 l 220 580 l 611 580 l 606 525 l 215 525 l 164 53 l 607 53 l 602 0 l 101 0 m 302 1239 l 308 1293 l 684 1293 l 678 1239 l 302 1239 z "},"Ĕ":{"ha":788,"x_min":101,"x_max":723,"o":"m 101 0 m 101 0 l 207 1010 l 708 1010 l 703 957 l 260 957 l 220 580 l 611 580 l 606 525 l 215 525 l 164 53 l 607 53 l 602 0 l 101 0 m 479 1128 q 326 1195 376 1128 q 289 1389 277 1263 l 348 1389 q 370 1230 337 1279 q 484 1182 403 1182 q 607 1230 564 1182 q 664 1389 650 1279 l 723 1389 q 645 1195 708 1263 q 479 1128 581 1128 z "},"Ė":{"ha":788,"x_min":101,"x_max":708,"o":"m 101 0 m 101 0 l 207 1010 l 708 1010 l 703 957 l 260 957 l 220 580 l 611 580 l 606 525 l 215 525 l 164 53 l 607 53 l 602 0 l 101 0 m 484 1176 q 444 1186 458 1176 q 432 1221 429 1196 l 432 1230 q 452 1267 436 1256 q 494 1278 468 1278 q 534 1267 519 1278 q 545 1230 549 1256 l 545 1221 q 525 1186 543 1196 q 484 1176 508 1176 z "},"Ę":{"ha":788,"x_min":101,"x_max":708,"o":"m 101 0 m 497 -271 q 400 -234 434 -271 q 372 -135 366 -197 q 416 -33 378 -81 q 514 42 455 14 l 528 29 q 460 -38 482 -3 q 432 -119 437 -73 q 446 -195 427 -172 q 511 -218 465 -218 q 551 -216 532 -218 q 592 -208 571 -213 l 586 -261 q 541 -269 566 -266 q 497 -271 516 -271 m 101 0 l 207 1010 l 708 1010 l 703 957 l 260 957 l 220 580 l 611 580 l 606 525 l 215 525 l 164 53 l 607 53 l 602 0 l 101 0 z "},"Ě":{"ha":788,"x_min":101,"x_max":713,"o":"m 101 0 m 101 0 l 207 1010 l 708 1010 l 703 957 l 260 957 l 220 580 l 611 580 l 606 525 l 215 525 l 164 53 l 607 53 l 602 0 l 101 0 m 470 1141 l 308 1355 l 336 1386 l 495 1197 l 692 1386 l 713 1355 l 509 1141 l 470 1141 z "},"F":{"ha":788,"x_min":101,"x_max":708,"o":"m 101 0 l 207 1010 l 708 1010 l 703 957 l 260 957 l 208 472 l 578 472 l 573 418 l 203 418 l 159 0 l 101 0 z "},"G":{"ha":788,"x_min":96,"x_max":688,"o":"m 357 -13 q 158 76 221 -13 q 114 341 96 164 l 148 664 q 246 932 167 842 q 460 1023 326 1023 q 637 956 586 1023 q 679 736 688 890 l 620 729 q 590 920 625 871 q 453 970 556 970 q 284 896 342 970 q 208 664 226 823 l 174 341 q 203 112 158 184 q 362 40 247 40 q 530 126 475 40 q 607 418 586 212 l 385 418 l 390 472 l 673 472 l 668 422 q 569 90 644 193 q 357 -13 494 -13 z "},"Ĝ":{"ha":788,"x_min":96,"x_max":688,"o":"m 96 0 m 357 -13 q 158 76 221 -13 q 114 341 96 164 l 148 664 q 246 932 167 842 q 460 1023 326 1023 q 637 956 586 1023 q 679 736 688 890 l 620 729 q 590 920 625 871 q 453 970 556 970 q 284 896 342 970 q 208 664 226 823 l 174 341 q 203 112 158 184 q 362 40 247 40 q 530 126 475 40 q 607 418 586 212 l 385 418 l 390 472 l 673 472 l 668 422 q 569 90 644 193 q 357 -13 494 -13 m 302 1165 l 280 1197 l 485 1410 l 524 1410 l 686 1197 l 658 1165 l 499 1355 l 302 1165 z "},"Ğ":{"ha":788,"x_min":96,"x_max":721,"o":"m 96 0 m 357 -13 q 158 76 221 -13 q 114 341 96 164 l 148 664 q 246 932 167 842 q 460 1023 326 1023 q 637 956 586 1023 q 679 736 688 890 l 620 729 q 590 920 625 871 q 453 970 556 970 q 284 896 342 970 q 208 664 226 823 l 174 341 q 203 112 158 184 q 362 40 247 40 q 530 126 475 40 q 607 418 586 212 l 385 418 l 390 472 l 673 472 l 668 422 q 569 90 644 193 q 357 -13 494 -13 m 476 1128 q 324 1195 374 1128 q 287 1389 274 1263 l 346 1389 q 367 1230 335 1279 q 481 1182 400 1182 q 605 1230 562 1182 q 662 1389 648 1279 l 721 1389 q 642 1195 706 1263 q 476 1128 578 1128 z "},"Ġ":{"ha":788,"x_min":96,"x_max":688,"o":"m 96 0 m 357 -13 q 158 76 221 -13 q 114 341 96 164 l 148 664 q 246 932 167 842 q 460 1023 326 1023 q 637 956 586 1023 q 679 736 688 890 l 620 729 q 590 920 625 871 q 453 970 556 970 q 284 896 342 970 q 208 664 226 823 l 174 341 q 203 112 158 184 q 362 40 247 40 q 530 126 475 40 q 607 418 586 212 l 385 418 l 390 472 l 673 472 l 668 422 q 569 90 644 193 q 357 -13 494 -13 m 473 1176 q 434 1186 448 1176 q 422 1221 419 1196 l 422 1230 q 442 1267 426 1256 q 484 1278 458 1278 q 524 1267 509 1278 q 535 1230 539 1256 l 535 1221 q 515 1186 533 1196 q 473 1176 497 1176 z "},"Ģ":{"ha":788,"x_min":96,"x_max":688,"o":"m 96 0 m 186 -379 l 314 -126 l 408 -126 l 236 -379 l 186 -379 m 357 -13 q 158 76 221 -13 q 114 341 96 164 l 148 664 q 246 932 167 842 q 460 1023 326 1023 q 637 956 586 1023 q 679 736 688 890 l 620 729 q 590 920 625 871 q 453 970 556 970 q 284 896 342 970 q 208 664 226 823 l 174 341 q 203 112 158 184 q 362 40 247 40 q 530 126 475 40 q 607 418 586 212 l 385 418 l 390 472 l 673 472 l 668 422 q 569 90 644 193 q 357 -13 494 -13 z "},"H":{"ha":788,"x_min":100,"x_max":687,"o":"m 100 0 l 206 1010 l 265 1010 l 220 580 l 582 580 l 628 1010 l 687 1010 l 581 0 l 521 0 l 577 525 l 215 525 l 159 0 l 100 0 z "},"Ĥ":{"ha":788,"x_min":100,"x_max":687,"o":"m 100 0 m 100 0 l 206 1010 l 265 1010 l 220 580 l 582 580 l 628 1010 l 687 1010 l 581 0 l 521 0 l 577 525 l 215 525 l 159 0 l 100 0 m 284 1165 l 263 1197 l 467 1410 l 506 1410 l 668 1197 l 640 1165 l 481 1355 l 284 1165 z "},"I":{"ha":788,"x_min":101,"x_max":687,"o":"m 101 0 l 106 53 l 317 53 l 413 957 l 202 957 l 207 1010 l 687 1010 l 682 957 l 471 957 l 375 53 l 586 53 l 581 0 l 101 0 z "},"Ì":{"ha":788,"x_min":101,"x_max":687,"o":"m 101 0 m 101 0 l 106 53 l 317 53 l 413 957 l 202 957 l 207 1010 l 687 1010 l 682 957 l 471 957 l 375 53 l 586 53 l 581 0 l 101 0 m 484 1136 l 313 1389 l 408 1389 l 533 1136 l 484 1136 z "},"Í":{"ha":788,"x_min":101,"x_max":687,"o":"m 101 0 m 101 0 l 106 53 l 317 53 l 413 957 l 202 957 l 207 1010 l 687 1010 l 682 957 l 471 957 l 375 53 l 586 53 l 581 0 l 101 0 m 383 1136 l 562 1389 l 655 1389 l 433 1136 l 383 1136 z "},"Î":{"ha":788,"x_min":101,"x_max":687,"o":"m 101 0 m 101 0 l 106 53 l 317 53 l 413 957 l 202 957 l 207 1010 l 687 1010 l 682 957 l 471 957 l 375 53 l 586 53 l 581 0 l 101 0 m 284 1165 l 263 1197 l 467 1410 l 506 1410 l 668 1197 l 640 1165 l 481 1355 l 284 1165 z "},"Ï":{"ha":788,"x_min":101,"x_max":687,"o":"m 101 0 m 101 0 l 106 53 l 317 53 l 413 957 l 202 957 l 207 1010 l 687 1010 l 682 957 l 471 957 l 375 53 l 586 53 l 581 0 l 101 0 m 351 1176 q 315 1185 328 1176 q 306 1221 302 1194 l 306 1230 q 324 1268 309 1258 q 361 1278 338 1278 q 397 1268 384 1278 q 407 1230 410 1258 l 407 1221 q 388 1185 403 1194 q 351 1176 372 1176 m 576 1176 q 540 1185 553 1176 q 530 1221 527 1194 l 530 1230 q 549 1268 534 1258 q 586 1278 563 1278 q 622 1268 609 1278 q 631 1230 635 1258 l 631 1221 q 612 1185 628 1194 q 576 1176 597 1176 z "},"Ĩ":{"ha":788,"x_min":101,"x_max":687,"o":"m 101 0 m 101 0 l 106 53 l 317 53 l 413 957 l 202 957 l 207 1010 l 687 1010 l 682 957 l 471 957 l 375 53 l 586 53 l 581 0 l 101 0 m 552 1149 q 494 1173 516 1149 q 449 1265 472 1197 q 422 1336 436 1317 q 391 1355 409 1355 q 340 1311 360 1355 q 313 1176 321 1266 l 312 1162 l 264 1162 l 265 1181 q 310 1346 277 1290 q 396 1402 343 1402 q 455 1379 433 1402 q 495 1293 476 1356 q 527 1217 513 1237 q 557 1196 540 1196 q 606 1240 587 1196 q 634 1375 625 1284 l 636 1389 l 684 1389 l 682 1370 q 638 1205 670 1260 q 552 1149 605 1149 z "},"Ī":{"ha":788,"x_min":101,"x_max":687,"o":"m 101 0 m 101 0 l 106 53 l 317 53 l 413 957 l 202 957 l 207 1010 l 687 1010 l 682 957 l 471 957 l 375 53 l 586 53 l 581 0 l 101 0 m 282 1239 l 288 1293 l 664 1293 l 658 1239 l 282 1239 z "},"Ĭ":{"ha":788,"x_min":101,"x_max":703,"o":"m 101 0 m 101 0 l 106 53 l 317 53 l 413 957 l 202 957 l 207 1010 l 687 1010 l 682 957 l 471 957 l 375 53 l 586 53 l 581 0 l 101 0 m 458 1128 q 306 1195 356 1128 q 269 1389 256 1263 l 328 1389 q 350 1230 317 1279 q 463 1182 383 1182 q 587 1230 544 1182 q 644 1389 630 1279 l 703 1389 q 624 1195 688 1263 q 458 1128 561 1128 z "},"Į":{"ha":788,"x_min":101,"x_max":687,"o":"m 101 0 m 101 0 l 106 53 l 317 53 l 413 957 l 202 957 l 207 1010 l 687 1010 l 682 957 l 471 957 l 375 53 l 586 53 l 581 0 l 101 0 m 394 -271 q 297 -234 331 -271 q 269 -135 263 -197 q 313 -33 274 -81 q 410 42 351 14 l 424 29 q 356 -38 379 -3 q 328 -119 333 -73 q 342 -195 323 -172 q 408 -218 361 -218 q 448 -216 428 -218 q 489 -208 467 -213 l 482 -261 q 437 -269 462 -266 q 394 -271 413 -271 z "},"İ":{"ha":788,"x_min":101,"x_max":687,"o":"m 101 0 m 101 0 l 106 53 l 317 53 l 413 957 l 202 957 l 207 1010 l 687 1010 l 682 957 l 471 957 l 375 53 l 586 53 l 581 0 l 101 0 m 463 1176 q 424 1186 438 1176 q 412 1221 409 1196 l 412 1230 q 432 1267 415 1256 q 473 1278 448 1278 q 514 1267 499 1278 q 525 1230 529 1256 l 525 1221 q 505 1186 523 1196 q 463 1176 487 1176 z "},"J":{"ha":788,"x_min":78,"x_max":687,"o":"m 318 -13 q 134 61 189 -13 q 90 295 78 135 l 149 303 q 180 99 143 158 q 319 40 217 40 q 485 109 429 40 q 557 327 542 177 l 624 957 l 389 957 l 394 1010 l 687 1010 l 615 328 q 523 71 597 155 q 318 -13 449 -13 z "},"Ĵ":{"ha":788,"x_min":78,"x_max":759,"o":"m 78 0 m 318 -13 q 134 61 189 -13 q 90 295 78 135 l 149 303 q 180 99 143 158 q 319 40 217 40 q 485 109 429 40 q 557 327 542 177 l 624 957 l 389 957 l 394 1010 l 687 1010 l 615 328 q 523 71 597 155 q 318 -13 449 -13 m 375 1165 l 354 1197 l 558 1410 l 597 1410 l 759 1197 l 731 1165 l 572 1355 l 375 1165 z "},"K":{"ha":788,"x_min":101,"x_max":750,"o":"m 212 506 l 159 0 l 101 0 l 207 1010 l 265 1010 l 218 561 l 299 561 l 674 1010 l 750 1010 l 352 542 l 640 0 l 576 0 l 307 506 l 212 506 z "},"Ķ":{"ha":788,"x_min":101,"x_max":750,"o":"m 101 0 m 212 506 l 159 0 l 101 0 l 207 1010 l 265 1010 l 218 561 l 299 561 l 674 1010 l 750 1010 l 352 542 l 640 0 l 576 0 l 307 506 l 212 506 m 179 -379 l 308 -126 l 402 -126 l 230 -379 l 179 -379 z "},"L":{"ha":788,"x_min":153,"x_max":586,"o":"m 153 0 l 259 1010 l 318 1010 l 217 53 l 586 53 l 581 0 l 153 0 z "},"Ĺ":{"ha":788,"x_min":153,"x_max":595,"o":"m 153 0 m 153 0 l 259 1010 l 318 1010 l 217 53 l 586 53 l 581 0 l 153 0 m 322 1136 l 501 1389 l 595 1389 l 372 1136 l 322 1136 z "},"Ļ":{"ha":788,"x_min":153,"x_max":586,"o":"m 153 0 m 153 0 l 259 1010 l 318 1010 l 217 53 l 586 53 l 581 0 l 153 0 m 196 -379 l 324 -126 l 418 -126 l 246 -379 l 196 -379 z "},"Ľ":{"ha":788,"x_min":153,"x_max":710,"o":"m 153 0 m 153 0 l 259 1010 l 318 1010 l 217 53 l 586 53 l 581 0 l 153 0 m 511 705 l 628 1010 l 710 1010 l 559 705 l 511 705 z "},"M":{"ha":788,"x_min":64,"x_max":723,"o":"m 337 253 l 217 898 l 122 0 l 64 0 l 170 1010 l 250 1010 l 375 323 l 644 1010 l 723 1010 l 617 0 l 559 0 l 654 900 l 398 253 l 337 253 z "},"N":{"ha":788,"x_min":100,"x_max":687,"o":"m 510 0 l 249 878 l 157 0 l 100 0 l 206 1010 l 270 1010 l 537 106 l 631 1010 l 687 1010 l 581 0 l 510 0 z "},"Ñ":{"ha":788,"x_min":100,"x_max":702,"o":"m 100 0 m 510 0 l 249 878 l 157 0 l 100 0 l 206 1010 l 270 1010 l 537 106 l 631 1010 l 687 1010 l 581 0 l 510 0 m 569 1149 q 512 1173 534 1149 q 467 1265 490 1197 q 440 1336 453 1317 q 409 1355 427 1355 q 358 1311 378 1355 q 331 1176 338 1266 l 330 1162 l 282 1162 l 283 1181 q 328 1346 294 1290 q 414 1402 361 1402 q 472 1379 451 1402 q 513 1293 494 1356 q 544 1217 530 1237 q 574 1196 558 1196 q 624 1240 605 1196 q 652 1375 643 1284 l 654 1389 l 702 1389 l 699 1370 q 655 1205 688 1260 q 569 1149 622 1149 z "},"Ń":{"ha":788,"x_min":100,"x_max":687,"o":"m 100 0 m 510 0 l 249 878 l 157 0 l 100 0 l 206 1010 l 270 1010 l 537 106 l 631 1010 l 687 1010 l 581 0 l 510 0 m 405 1136 l 585 1389 l 678 1389 l 456 1136 l 405 1136 z "},"Ņ":{"ha":788,"x_min":100,"x_max":687,"o":"m 100 0 m 159 -379 l 288 -126 l 381 -126 l 210 -379 l 159 -379 m 510 0 l 249 878 l 157 0 l 100 0 l 206 1010 l 270 1010 l 537 106 l 631 1010 l 687 1010 l 581 0 l 510 0 z "},"Ň":{"ha":788,"x_min":100,"x_max":702,"o":"m 100 0 m 510 0 l 249 878 l 157 0 l 100 0 l 206 1010 l 270 1010 l 537 106 l 631 1010 l 687 1010 l 581 0 l 510 0 m 458 1141 l 297 1355 l 324 1386 l 484 1197 l 681 1386 l 702 1355 l 497 1141 l 458 1141 z "},"O":{"ha":788,"x_min":96,"x_max":691,"o":"m 340 -13 q 152 76 208 -13 q 114 341 96 164 l 148 664 q 242 932 167 842 q 449 1023 318 1023 q 636 932 581 1023 q 672 664 691 842 l 638 341 q 545 76 620 164 q 340 -13 471 -13 m 345 40 q 508 114 453 40 q 578 341 563 187 l 612 664 q 590 896 629 822 q 443 970 552 970 q 280 896 335 970 q 208 664 225 822 l 174 341 q 198 114 159 187 q 345 40 236 40 z "},"Ò":{"ha":788,"x_min":96,"x_max":691,"o":"m 96 0 m 340 -13 q 152 76 208 -13 q 114 341 96 164 l 148 664 q 242 932 167 842 q 449 1023 318 1023 q 636 932 581 1023 q 672 664 691 842 l 638 341 q 545 76 620 164 q 340 -13 471 -13 m 345 40 q 508 114 453 40 q 578 341 563 187 l 612 664 q 590 896 629 822 q 443 970 552 970 q 280 896 335 970 q 208 664 225 822 l 174 341 q 198 114 159 187 q 345 40 236 40 m 484 1136 l 313 1389 l 408 1389 l 533 1136 l 484 1136 z "},"Ó":{"ha":788,"x_min":96,"x_max":696,"o":"m 96 0 m 340 -13 q 152 76 208 -13 q 114 341 96 164 l 148 664 q 242 932 167 842 q 449 1023 318 1023 q 636 932 581 1023 q 672 664 691 842 l 638 341 q 545 76 620 164 q 340 -13 471 -13 m 345 40 q 508 114 453 40 q 578 341 563 187 l 612 664 q 590 896 629 822 q 443 970 552 970 q 280 896 335 970 q 208 664 225 822 l 174 341 q 198 114 159 187 q 345 40 236 40 m 423 1136 l 602 1389 l 696 1389 l 473 1136 l 423 1136 z "},"Ô":{"ha":788,"x_min":96,"x_max":691,"o":"m 96 0 m 340 -13 q 152 76 208 -13 q 114 341 96 164 l 148 664 q 242 932 167 842 q 449 1023 318 1023 q 636 932 581 1023 q 672 664 691 842 l 638 341 q 545 76 620 164 q 340 -13 471 -13 m 345 40 q 508 114 453 40 q 578 341 563 187 l 612 664 q 590 896 629 822 q 443 970 552 970 q 280 896 335 970 q 208 664 225 822 l 174 341 q 198 114 159 187 q 345 40 236 40 m 284 1165 l 263 1197 l 467 1410 l 506 1410 l 668 1197 l 640 1165 l 481 1355 l 284 1165 z "},"Õ":{"ha":788,"x_min":96,"x_max":691,"o":"m 96 0 m 340 -13 q 152 76 208 -13 q 114 341 96 164 l 148 664 q 242 932 167 842 q 449 1023 318 1023 q 636 932 581 1023 q 672 664 691 842 l 638 341 q 545 76 620 164 q 340 -13 471 -13 m 345 40 q 508 114 453 40 q 578 341 563 187 l 612 664 q 590 896 629 822 q 443 970 552 970 q 280 896 335 970 q 208 664 225 822 l 174 341 q 198 114 159 187 q 345 40 236 40 m 552 1149 q 494 1173 516 1149 q 449 1265 472 1197 q 422 1336 436 1317 q 391 1355 409 1355 q 340 1311 360 1355 q 313 1176 321 1266 l 312 1162 l 264 1162 l 265 1181 q 310 1346 277 1290 q 396 1402 343 1402 q 455 1379 433 1402 q 495 1293 476 1356 q 527 1217 513 1237 q 557 1196 540 1196 q 606 1240 587 1196 q 634 1375 625 1284 l 636 1389 l 684 1389 l 682 1370 q 638 1205 670 1260 q 552 1149 605 1149 z "},"Ö":{"ha":788,"x_min":96,"x_max":691,"o":"m 96 0 m 340 -13 q 152 76 208 -13 q 114 341 96 164 l 148 664 q 242 932 167 842 q 449 1023 318 1023 q 636 932 581 1023 q 672 664 691 842 l 638 341 q 545 76 620 164 q 340 -13 471 -13 m 345 40 q 508 114 453 40 q 578 341 563 187 l 612 664 q 590 896 629 822 q 443 970 552 970 q 280 896 335 970 q 208 664 225 822 l 174 341 q 198 114 159 187 q 345 40 236 40 m 351 1176 q 315 1185 328 1176 q 306 1221 302 1194 l 306 1230 q 324 1268 309 1258 q 361 1278 338 1278 q 397 1268 384 1278 q 407 1230 410 1258 l 407 1221 q 388 1185 403 1194 q 351 1176 372 1176 m 576 1176 q 540 1185 553 1176 q 530 1221 527 1194 l 530 1230 q 549 1268 534 1258 q 586 1278 563 1278 q 622 1268 609 1278 q 631 1230 635 1258 l 631 1221 q 612 1185 628 1194 q 576 1176 597 1176 z "},"Ō":{"ha":788,"x_min":96,"x_max":691,"o":"m 96 0 m 340 -13 q 152 76 208 -13 q 114 341 96 164 l 148 664 q 242 932 167 842 q 449 1023 318 1023 q 636 932 581 1023 q 672 664 691 842 l 638 341 q 545 76 620 164 q 340 -13 471 -13 m 345 40 q 508 114 453 40 q 578 341 563 187 l 612 664 q 590 896 629 822 q 443 970 552 970 q 280 896 335 970 q 208 664 225 822 l 174 341 q 198 114 159 187 q 345 40 236 40 m 282 1239 l 288 1293 l 664 1293 l 658 1239 l 282 1239 z "},"Ŏ":{"ha":788,"x_min":96,"x_max":703,"o":"m 96 0 m 340 -13 q 152 76 208 -13 q 114 341 96 164 l 148 664 q 242 932 167 842 q 449 1023 318 1023 q 636 932 581 1023 q 672 664 691 842 l 638 341 q 545 76 620 164 q 340 -13 471 -13 m 345 40 q 508 114 453 40 q 578 341 563 187 l 612 664 q 590 896 629 822 q 443 970 552 970 q 280 896 335 970 q 208 664 225 822 l 174 341 q 198 114 159 187 q 345 40 236 40 m 458 1128 q 306 1195 356 1128 q 269 1389 256 1263 l 328 1389 q 350 1230 317 1279 q 463 1182 383 1182 q 587 1230 544 1182 q 644 1389 630 1279 l 703 1389 q 624 1195 688 1263 q 458 1128 561 1128 z "},"Ő":{"ha":788,"x_min":96,"x_max":712,"o":"m 96 0 m 340 -13 q 152 76 208 -13 q 114 341 96 164 l 148 664 q 242 932 167 842 q 449 1023 318 1023 q 636 932 581 1023 q 672 664 691 842 l 638 341 q 545 76 620 164 q 340 -13 471 -13 m 345 40 q 508 114 453 40 q 578 341 563 187 l 612 664 q 590 896 629 822 q 443 970 552 970 q 280 896 335 970 q 208 664 225 822 l 174 341 q 198 114 159 187 q 345 40 236 40 m 524 1136 l 610 1389 l 712 1389 l 572 1136 l 524 1136 m 319 1136 l 404 1389 l 506 1389 l 366 1136 l 319 1136 z "},"P":{"ha":788,"x_min":101,"x_max":706,"o":"m 101 0 l 207 1010 l 480 1010 q 652 942 597 1010 q 692 744 706 874 l 679 620 q 596 422 665 490 q 409 354 527 354 l 196 354 l 159 0 l 101 0 m 202 407 l 415 407 q 559 457 513 407 q 619 622 606 508 l 630 739 q 607 906 643 855 q 473 957 571 957 l 260 957 l 202 407 z "},"Q":{"ha":788,"x_min":96,"x_max":691,"o":"m 605 -241 q 386 -220 458 -277 q 330 -13 314 -163 q 150 80 205 -9 q 114 341 96 169 l 148 664 q 243 932 167 842 q 449 1023 319 1023 q 634 932 578 1023 q 672 664 691 842 l 638 341 q 557 91 621 178 q 388 -9 492 4 q 431 -181 376 -144 q 598 -189 486 -217 l 605 -241 m 345 40 q 508 114 453 40 q 578 341 563 187 l 612 664 q 590 896 629 822 q 443 970 552 970 q 280 896 335 970 q 208 664 225 822 l 174 341 q 198 114 159 187 q 345 40 236 40 z "},"R":{"ha":788,"x_min":100,"x_max":726,"o":"m 207 451 l 442 451 q 585 501 538 451 q 644 665 633 552 l 652 739 q 628 906 664 855 q 495 957 591 957 l 260 957 l 207 451 m 159 0 l 100 0 l 206 1010 l 500 1010 q 674 942 621 1010 q 712 744 726 874 l 703 663 q 633 474 691 542 q 473 398 576 407 l 648 0 l 582 0 l 408 396 l 201 396 l 159 0 z "},"Ŕ":{"ha":788,"x_min":100,"x_max":729,"o":"m 100 0 m 207 451 l 442 451 q 585 501 538 451 q 644 665 633 552 l 652 739 q 628 906 664 855 q 495 957 591 957 l 260 957 l 207 451 m 159 0 l 100 0 l 206 1010 l 500 1010 q 674 942 621 1010 q 712 744 726 874 l 703 663 q 633 474 691 542 q 473 398 576 407 l 648 0 l 582 0 l 408 396 l 201 396 l 159 0 m 456 1136 l 635 1389 l 729 1389 l 506 1136 l 456 1136 z "},"Ŗ":{"ha":788,"x_min":100,"x_max":726,"o":"m 100 0 m 207 451 l 442 451 q 585 501 538 451 q 644 665 633 552 l 652 739 q 628 906 664 855 q 495 957 591 957 l 260 957 l 207 451 m 159 0 l 100 0 l 206 1010 l 500 1010 q 674 942 621 1010 q 712 744 726 874 l 703 663 q 633 474 691 542 q 473 398 576 407 l 648 0 l 582 0 l 408 396 l 201 396 l 159 0 m 160 -379 l 289 -126 l 383 -126 l 211 -379 l 160 -379 z "},"Ř":{"ha":788,"x_min":100,"x_max":726,"o":"m 100 0 m 207 451 l 442 451 q 585 501 538 451 q 644 665 633 552 l 652 739 q 628 906 664 855 q 495 957 591 957 l 260 957 l 207 451 m 159 0 l 100 0 l 206 1010 l 500 1010 q 674 942 621 1010 q 712 744 726 874 l 703 663 q 633 474 691 542 q 473 398 576 407 l 648 0 l 582 0 l 408 396 l 201 396 l 159 0 m 443 1141 l 282 1355 l 309 1386 l 468 1197 l 665 1386 l 687 1355 l 482 1141 l 443 1141 z "},"S":{"ha":788,"x_min":82,"x_max":678,"o":"m 345 -6 q 194 25 259 -6 q 82 111 129 57 l 121 155 q 225 74 169 101 q 352 47 282 47 q 506 102 443 47 q 580 256 569 158 q 551 397 590 347 q 395 494 511 447 q 218 603 273 543 q 174 769 163 663 q 260 948 186 881 q 444 1014 335 1014 q 578 985 519 1014 q 678 910 636 956 l 640 865 q 548 936 596 910 q 439 961 500 961 q 295 910 350 961 q 232 775 240 859 q 267 641 222 688 q 426 548 312 595 q 598 435 548 499 q 636 256 649 371 q 542 66 625 139 q 345 -6 460 -6 z "},"":{"ha":788,"x_min":82,"x_max":678,"o":"m 345 -6 q 194 25 259 -6 q 82 111 129 57 l 121 155 q 225 74 169 101 q 352 47 282 47 q 506 102 443 47 q 580 256 569 158 q 551 397 590 347 q 395 494 511 447 q 218 603 273 543 q 174 769 163 663 q 260 948 186 881 q 444 1014 335 1014 q 578 985 519 1014 q 678 910 636 956 l 640 865 q 548 936 596 910 q 439 961 500 961 q 295 910 350 961 q 232 775 240 859 q 267 641 222 688 q 426 548 312 595 q 598 435 548 499 q 636 256 649 371 q 542 66 625 139 q 345 -6 460 -6 z "},"Ś":{"ha":788,"x_min":82,"x_max":678,"o":"m 82 0 m 345 -6 q 194 25 259 -6 q 82 111 129 57 l 121 155 q 225 74 169 101 q 352 47 282 47 q 506 102 443 47 q 580 256 569 158 q 551 397 590 347 q 395 494 511 447 q 218 603 273 543 q 174 769 163 663 q 260 948 186 881 q 444 1014 335 1014 q 578 985 519 1014 q 678 910 636 956 l 640 865 q 548 936 596 910 q 439 961 500 961 q 295 910 350 961 q 232 775 240 859 q 267 641 222 688 q 426 548 312 595 q 598 435 548 499 q 636 256 649 371 q 542 66 625 139 q 345 -6 460 -6 m 384 1136 l 563 1389 l 657 1389 l 434 1136 l 384 1136 z "},"Ŝ":{"ha":788,"x_min":82,"x_max":678,"o":"m 82 0 m 345 -6 q 194 25 259 -6 q 82 111 129 57 l 121 155 q 225 74 169 101 q 352 47 282 47 q 506 102 443 47 q 580 256 569 158 q 551 397 590 347 q 395 494 511 447 q 218 603 273 543 q 174 769 163 663 q 260 948 186 881 q 444 1014 335 1014 q 578 985 519 1014 q 678 910 636 956 l 640 865 q 548 936 596 910 q 439 961 500 961 q 295 910 350 961 q 232 775 240 859 q 267 641 222 688 q 426 548 312 595 q 598 435 548 499 q 636 256 649 371 q 542 66 625 139 q 345 -6 460 -6 m 285 1165 l 264 1197 l 468 1410 l 508 1410 l 669 1197 l 641 1165 l 482 1355 l 285 1165 z "},"Ş":{"ha":788,"x_min":82,"x_max":678,"o":"m 82 0 m 345 -6 q 194 25 259 -6 q 82 111 129 57 l 121 155 q 225 74 169 101 q 352 47 282 47 q 506 102 443 47 q 580 256 569 158 q 551 397 590 347 q 395 494 511 447 q 218 603 273 543 q 174 769 163 663 q 260 948 186 881 q 444 1014 335 1014 q 578 985 519 1014 q 678 910 636 956 l 640 865 q 548 936 596 910 q 439 961 500 961 q 295 910 350 961 q 232 775 240 859 q 267 641 222 688 q 426 548 312 595 q 598 435 548 499 q 636 256 649 371 q 542 66 625 139 q 345 -6 460 -6 m 311 0 l 326 27 q 415 -28 385 13 q 439 -129 446 -69 q 390 -234 433 -196 q 279 -273 346 -273 q 183 -241 217 -273 q 152 -133 149 -208 l 208 -128 q 223 -201 207 -179 q 279 -223 240 -223 q 352 -201 330 -223 q 381 -125 375 -179 q 371 -45 386 -74 q 311 0 355 -16 z "},"Š":{"ha":788,"x_min":82,"x_max":686,"o":"m 82 0 m 345 -6 q 194 25 259 -6 q 82 111 129 57 l 121 155 q 225 74 169 101 q 352 47 282 47 q 506 102 443 47 q 580 256 569 158 q 551 397 590 347 q 395 494 511 447 q 218 603 273 543 q 174 769 163 663 q 260 948 186 881 q 444 1014 335 1014 q 578 985 519 1014 q 678 910 636 956 l 640 865 q 548 936 596 910 q 439 961 500 961 q 295 910 350 961 q 232 775 240 859 q 267 641 222 688 q 426 548 312 595 q 598 435 548 499 q 636 256 649 371 q 542 66 625 139 q 345 -6 460 -6 m 442 1141 l 280 1355 l 308 1386 l 467 1197 l 664 1386 l 686 1355 l 481 1141 l 442 1141 z "},"Ș":{"ha":788,"x_min":82,"x_max":678,"o":"m 82 0 m 345 -6 q 194 25 259 -6 q 82 111 129 57 l 121 155 q 225 74 169 101 q 352 47 282 47 q 506 102 443 47 q 580 256 569 158 q 551 397 590 347 q 395 494 511 447 q 218 603 273 543 q 174 769 163 663 q 260 948 186 881 q 444 1014 335 1014 q 578 985 519 1014 q 678 910 636 956 l 640 865 q 548 936 596 910 q 439 961 500 961 q 295 910 350 961 q 232 775 240 859 q 267 641 222 688 q 426 548 312 595 q 598 435 548 499 q 636 256 649 371 q 542 66 625 139 q 345 -6 460 -6 m 157 -379 l 285 -126 l 379 -126 l 207 -379 l 157 -379 z "},"T":{"ha":788,"x_min":149,"x_max":740,"o":"m 312 0 l 413 957 l 149 957 l 154 1010 l 740 1010 l 735 957 l 471 957 l 370 0 l 312 0 z "},"Ţ":{"ha":788,"x_min":149,"x_max":740,"o":"m 149 0 m 312 0 l 413 957 l 149 957 l 154 1010 l 740 1010 l 735 957 l 471 957 l 370 0 l 312 0 m 321 0 l 336 27 q 426 -28 395 13 q 449 -129 456 -69 q 400 -234 443 -196 q 289 -273 356 -273 q 193 -241 227 -273 q 162 -133 159 -208 l 218 -128 q 234 -201 217 -179 q 289 -223 250 -223 q 362 -201 340 -223 q 391 -125 385 -179 q 381 -45 396 -74 q 321 0 365 -16 z "},"Ť":{"ha":788,"x_min":149,"x_max":740,"o":"m 149 0 m 312 0 l 413 957 l 149 957 l 154 1010 l 740 1010 l 735 957 l 471 957 l 370 0 l 312 0 m 441 1141 l 279 1355 l 307 1386 l 466 1197 l 663 1386 l 684 1355 l 480 1141 l 441 1141 z "},"Ț":{"ha":788,"x_min":149,"x_max":740,"o":"m 149 0 m 312 0 l 413 957 l 149 957 l 154 1010 l 740 1010 l 735 957 l 471 957 l 370 0 l 312 0 m 155 -379 l 284 -126 l 378 -126 l 206 -379 l 155 -379 z "},"U":{"ha":788,"x_min":117,"x_max":687,"o":"m 340 -13 q 167 76 216 -13 q 135 333 117 164 l 206 1010 l 265 1010 l 194 333 q 213 112 178 183 q 345 40 247 40 q 491 112 441 40 q 557 333 540 183 l 628 1010 l 687 1010 l 616 333 q 530 76 598 164 q 340 -13 462 -13 z "},"Ù":{"ha":788,"x_min":117,"x_max":687,"o":"m 117 0 m 340 -13 q 167 76 216 -13 q 135 333 117 164 l 206 1010 l 265 1010 l 194 333 q 213 112 178 183 q 345 40 247 40 q 491 112 441 40 q 557 333 540 183 l 628 1010 l 687 1010 l 616 333 q 530 76 598 164 q 340 -13 462 -13 m 484 1136 l 313 1389 l 408 1389 l 533 1136 l 484 1136 z "},"Ú":{"ha":788,"x_min":117,"x_max":687,"o":"m 117 0 m 340 -13 q 167 76 216 -13 q 135 333 117 164 l 206 1010 l 265 1010 l 194 333 q 213 112 178 183 q 345 40 247 40 q 491 112 441 40 q 557 333 540 183 l 628 1010 l 687 1010 l 616 333 q 530 76 598 164 q 340 -13 462 -13 m 383 1136 l 562 1389 l 655 1389 l 433 1136 l 383 1136 z "},"Û":{"ha":788,"x_min":117,"x_max":687,"o":"m 117 0 m 340 -13 q 167 76 216 -13 q 135 333 117 164 l 206 1010 l 265 1010 l 194 333 q 213 112 178 183 q 345 40 247 40 q 491 112 441 40 q 557 333 540 183 l 628 1010 l 687 1010 l 616 333 q 530 76 598 164 q 340 -13 462 -13 m 284 1165 l 263 1197 l 467 1410 l 506 1410 l 668 1197 l 640 1165 l 481 1355 l 284 1165 z "},"Ü":{"ha":788,"x_min":117,"x_max":687,"o":"m 117 0 m 340 -13 q 167 76 216 -13 q 135 333 117 164 l 206 1010 l 265 1010 l 194 333 q 213 112 178 183 q 345 40 247 40 q 491 112 441 40 q 557 333 540 183 l 628 1010 l 687 1010 l 616 333 q 530 76 598 164 q 340 -13 462 -13 m 351 1176 q 315 1185 328 1176 q 306 1221 302 1194 l 306 1230 q 324 1268 309 1258 q 361 1278 338 1278 q 397 1268 384 1278 q 407 1230 410 1258 l 407 1221 q 388 1185 403 1194 q 351 1176 372 1176 m 576 1176 q 540 1185 553 1176 q 530 1221 527 1194 l 530 1230 q 549 1268 534 1258 q 586 1278 563 1278 q 622 1268 609 1278 q 631 1230 635 1258 l 631 1221 q 612 1185 628 1194 q 576 1176 597 1176 z "},"Ũ":{"ha":788,"x_min":117,"x_max":687,"o":"m 117 0 m 340 -13 q 167 76 216 -13 q 135 333 117 164 l 206 1010 l 265 1010 l 194 333 q 213 112 178 183 q 345 40 247 40 q 491 112 441 40 q 557 333 540 183 l 628 1010 l 687 1010 l 616 333 q 530 76 598 164 q 340 -13 462 -13 m 552 1149 q 494 1173 516 1149 q 449 1265 472 1197 q 422 1336 436 1317 q 391 1355 409 1355 q 340 1311 360 1355 q 313 1176 321 1266 l 312 1162 l 264 1162 l 265 1181 q 310 1346 277 1290 q 396 1402 343 1402 q 455 1379 433 1402 q 495 1293 476 1356 q 527 1217 513 1237 q 557 1196 540 1196 q 606 1240 587 1196 q 634 1375 625 1284 l 636 1389 l 684 1389 l 682 1370 q 638 1205 670 1260 q 552 1149 605 1149 z "},"Ū":{"ha":788,"x_min":117,"x_max":687,"o":"m 117 0 m 340 -13 q 167 76 216 -13 q 135 333 117 164 l 206 1010 l 265 1010 l 194 333 q 213 112 178 183 q 345 40 247 40 q 491 112 441 40 q 557 333 540 183 l 628 1010 l 687 1010 l 616 333 q 530 76 598 164 q 340 -13 462 -13 m 282 1239 l 288 1293 l 664 1293 l 658 1239 l 282 1239 z "},"Ŭ":{"ha":788,"x_min":117,"x_max":703,"o":"m 117 0 m 340 -13 q 167 76 216 -13 q 135 333 117 164 l 206 1010 l 265 1010 l 194 333 q 213 112 178 183 q 345 40 247 40 q 491 112 441 40 q 557 333 540 183 l 628 1010 l 687 1010 l 616 333 q 530 76 598 164 q 340 -13 462 -13 m 458 1128 q 306 1195 356 1128 q 269 1389 256 1263 l 328 1389 q 350 1230 317 1279 q 463 1182 383 1182 q 587 1230 544 1182 q 644 1389 630 1279 l 703 1389 q 624 1195 688 1263 q 458 1128 561 1128 z "},"Ů":{"ha":788,"x_min":117,"x_max":687,"o":"m 117 0 m 340 -13 q 167 76 216 -13 q 135 333 117 164 l 206 1010 l 265 1010 l 194 333 q 213 112 178 183 q 345 40 247 40 q 491 112 441 40 q 557 333 540 183 l 628 1010 l 687 1010 l 616 333 q 530 76 598 164 q 340 -13 462 -13 m 457 1117 q 350 1162 385 1117 q 326 1292 316 1207 l 331 1350 q 384 1482 340 1436 q 500 1528 428 1528 q 606 1482 572 1528 q 631 1350 640 1436 l 626 1292 q 573 1162 616 1207 q 457 1117 529 1117 m 462 1167 q 539 1197 513 1167 q 572 1292 564 1227 l 577 1350 q 565 1448 585 1417 q 495 1479 545 1479 q 419 1448 444 1479 q 385 1350 393 1417 l 380 1292 q 392 1197 372 1227 q 462 1167 412 1167 z "},"Ű":{"ha":788,"x_min":117,"x_max":722,"o":"m 117 0 m 340 -13 q 167 76 216 -13 q 135 333 117 164 l 206 1010 l 265 1010 l 194 333 q 213 112 178 183 q 345 40 247 40 q 491 112 441 40 q 557 333 540 183 l 628 1010 l 687 1010 l 616 333 q 530 76 598 164 q 340 -13 462 -13 m 534 1136 l 620 1389 l 722 1389 l 582 1136 l 534 1136 m 330 1136 l 414 1389 l 516 1389 l 376 1136 l 330 1136 z "},"Ų":{"ha":788,"x_min":117,"x_max":687,"o":"m 117 0 m 389 -271 q 292 -234 326 -271 q 264 -135 258 -197 q 307 -33 269 -81 q 405 42 346 14 l 419 29 q 351 -38 374 -3 q 323 -119 328 -73 q 337 -195 318 -172 q 403 -218 356 -218 q 443 -216 423 -218 q 484 -208 462 -213 l 477 -261 q 432 -269 457 -266 q 389 -271 408 -271 m 340 -13 q 167 76 216 -13 q 135 333 117 164 l 206 1010 l 265 1010 l 194 333 q 213 112 178 183 q 345 40 247 40 q 491 112 441 40 q 557 333 540 183 l 628 1010 l 687 1010 l 616 333 q 530 76 598 164 q 340 -13 462 -13 z "},"V":{"ha":788,"x_min":143,"x_max":753,"o":"m 364 0 l 317 0 l 143 1010 l 206 1010 l 352 114 l 689 1010 l 753 1010 l 364 0 z "},"W":{"ha":788,"x_min":135,"x_max":759,"o":"m 484 0 l 413 677 l 198 0 l 138 0 l 135 1010 l 189 1010 l 188 116 l 391 771 l 455 771 l 520 125 l 699 1010 l 759 1010 l 544 0 l 484 0 z "},"Ŵ":{"ha":788,"x_min":135,"x_max":759,"o":"m 135 0 m 484 0 l 413 677 l 198 0 l 138 0 l 135 1010 l 189 1010 l 188 116 l 391 771 l 455 771 l 520 125 l 699 1010 l 759 1010 l 544 0 l 484 0 m 284 1165 l 263 1197 l 467 1410 l 506 1410 l 668 1197 l 640 1165 l 481 1355 l 284 1165 z "},"Ẁ":{"ha":788,"x_min":135,"x_max":759,"o":"m 135 0 m 484 0 l 413 677 l 198 0 l 138 0 l 135 1010 l 189 1010 l 188 116 l 391 771 l 455 771 l 520 125 l 699 1010 l 759 1010 l 544 0 l 484 0 m 492 1136 l 322 1389 l 417 1389 l 542 1136 l 492 1136 z "},"Ẃ":{"ha":788,"x_min":135,"x_max":759,"o":"m 135 0 m 484 0 l 413 677 l 198 0 l 138 0 l 135 1010 l 189 1010 l 188 116 l 391 771 l 455 771 l 520 125 l 699 1010 l 759 1010 l 544 0 l 484 0 m 391 1136 l 571 1389 l 664 1389 l 442 1136 l 391 1136 z "},"Ẅ":{"ha":788,"x_min":135,"x_max":759,"o":"m 135 0 m 484 0 l 413 677 l 198 0 l 138 0 l 135 1010 l 189 1010 l 188 116 l 391 771 l 455 771 l 520 125 l 699 1010 l 759 1010 l 544 0 l 484 0 m 352 1176 q 316 1185 330 1176 q 307 1221 303 1194 l 307 1230 q 325 1268 311 1258 q 362 1278 340 1278 q 398 1268 385 1278 q 408 1230 412 1258 l 408 1221 q 389 1185 404 1194 q 352 1176 374 1176 m 577 1176 q 541 1185 554 1176 q 532 1221 528 1194 l 532 1230 q 550 1268 535 1258 q 587 1278 564 1278 q 623 1268 610 1278 q 633 1230 636 1258 l 633 1221 q 614 1185 629 1194 q 577 1176 598 1176 z "},"X":{"ha":788,"x_min":16,"x_max":771,"o":"m 600 0 l 394 466 l 82 0 l 16 0 l 366 521 l 149 1010 l 212 1010 l 409 567 l 706 1010 l 771 1010 l 436 513 l 663 0 l 600 0 z "},"Y":{"ha":788,"x_min":116,"x_max":778,"o":"m 370 0 l 312 0 l 352 379 l 116 1010 l 182 1010 l 389 443 l 711 1010 l 778 1010 l 410 379 l 370 0 z "},"Ý":{"ha":788,"x_min":116,"x_max":778,"o":"m 116 0 m 370 0 l 312 0 l 352 379 l 116 1010 l 182 1010 l 389 443 l 711 1010 l 778 1010 l 410 379 l 370 0 m 383 1136 l 562 1389 l 655 1389 l 433 1136 l 383 1136 z "},"Ŷ":{"ha":788,"x_min":116,"x_max":778,"o":"m 116 0 m 370 0 l 312 0 l 352 379 l 116 1010 l 182 1010 l 389 443 l 711 1010 l 778 1010 l 410 379 l 370 0 m 284 1165 l 263 1197 l 467 1410 l 506 1410 l 668 1197 l 640 1165 l 481 1355 l 284 1165 z "},"Ÿ":{"ha":788,"x_min":116,"x_max":778,"o":"m 116 0 m 370 0 l 312 0 l 352 379 l 116 1010 l 182 1010 l 389 443 l 711 1010 l 778 1010 l 410 379 l 370 0 m 351 1176 q 315 1185 328 1176 q 306 1221 302 1194 l 306 1230 q 324 1268 309 1258 q 361 1278 338 1278 q 397 1268 384 1278 q 407 1230 410 1258 l 407 1221 q 388 1185 403 1194 q 351 1176 372 1176 m 576 1176 q 540 1185 553 1176 q 530 1221 527 1194 l 530 1230 q 549 1268 534 1258 q 586 1278 563 1278 q 622 1268 609 1278 q 631 1230 635 1258 l 631 1221 q 612 1185 628 1194 q 576 1176 597 1176 z "},"Ỳ":{"ha":788,"x_min":116,"x_max":778,"o":"m 116 0 m 370 0 l 312 0 l 352 379 l 116 1010 l 182 1010 l 389 443 l 711 1010 l 778 1010 l 410 379 l 370 0 m 484 1136 l 313 1389 l 408 1389 l 533 1136 l 484 1136 z "},"Z":{"ha":788,"x_min":78,"x_max":717,"o":"m 611 0 l 78 0 l 83 53 l 645 957 l 179 957 l 184 1010 l 717 1010 l 712 957 l 152 53 l 616 53 l 611 0 z "},"Ź":{"ha":788,"x_min":78,"x_max":717,"o":"m 78 0 m 611 0 l 78 0 l 83 53 l 645 957 l 179 957 l 184 1010 l 717 1010 l 712 957 l 152 53 l 616 53 l 611 0 m 414 1136 l 593 1389 l 687 1389 l 465 1136 l 414 1136 z "},"Ż":{"ha":788,"x_min":78,"x_max":717,"o":"m 78 0 m 611 0 l 78 0 l 83 53 l 645 957 l 179 957 l 184 1010 l 717 1010 l 712 957 l 152 53 l 616 53 l 611 0 m 463 1176 q 424 1186 438 1176 q 412 1221 409 1196 l 412 1230 q 432 1267 415 1256 q 473 1278 448 1278 q 514 1267 499 1278 q 525 1230 529 1256 l 525 1221 q 505 1186 523 1196 q 463 1176 487 1176 z "},"Ž":{"ha":788,"x_min":78,"x_max":717,"o":"m 78 0 m 611 0 l 78 0 l 83 53 l 645 957 l 179 957 l 184 1010 l 717 1010 l 712 957 l 152 53 l 616 53 l 611 0 m 441 1141 l 279 1355 l 307 1386 l 466 1197 l 663 1386 l 684 1355 l 480 1141 l 441 1141 z "},"Æ":{"ha":788,"x_min":-10,"x_max":782,"o":"m 378 956 l 177 371 l 408 371 l 470 956 l 378 956 m 402 317 l 154 317 l 44 0 l -10 0 l 347 1010 l 782 1010 l 777 956 l 529 956 l 487 569 l 725 569 l 720 515 l 482 515 l 434 54 l 682 54 l 676 0 l 369 0 l 402 317 z "},"Ǽ":{"ha":788,"x_min":-10,"x_max":790,"o":"m 0 0 m 378 956 l 177 371 l 408 371 l 470 956 l 378 956 m 402 317 l 154 317 l 44 0 l -10 0 l 347 1010 l 782 1010 l 777 956 l 529 956 l 487 569 l 725 569 l 720 515 l 482 515 l 434 54 l 682 54 l 676 0 l 369 0 l 402 317 m 518 1136 l 697 1389 l 790 1389 l 568 1136 l 518 1136 z "},"Ð":{"ha":788,"x_min":51,"x_max":688,"o":"m 51 525 l 56 580 l 378 580 l 372 525 l 51 525 m 100 0 l 206 1010 l 415 1010 q 621 912 553 1010 q 670 652 688 814 l 639 354 q 534 96 622 192 q 309 0 446 0 l 100 0 m 164 53 l 314 53 q 499 136 432 53 q 580 354 566 220 l 611 652 q 576 870 625 783 q 410 957 528 957 l 260 957 l 164 53 z "},"Ø":{"ha":788,"x_min":88,"x_max":683,"o":"m 189 120 l 544 944 q 500 963 525 957 q 443 970 475 970 q 280 897 333 970 q 208 655 226 824 l 176 350 q 170 214 168 271 q 189 120 173 157 m 345 40 q 508 112 455 40 q 580 350 562 184 l 612 655 q 616 810 621 746 q 586 910 610 874 l 226 77 q 277 49 247 58 q 345 40 306 40 m 340 -13 q 263 -3 297 -13 q 202 28 229 8 l 148 -93 l 88 -93 l 159 62 q 116 178 128 106 q 115 350 105 250 l 148 655 q 243 933 167 843 q 449 1023 319 1023 q 515 1016 485 1023 q 568 992 544 1009 l 619 1104 l 678 1104 l 614 963 q 669 843 655 920 q 672 655 683 766 l 639 350 q 544 75 620 163 q 340 -13 468 -13 z "},"Ǿ":{"ha":788,"x_min":88,"x_max":696,"o":"m 88 0 m 189 120 l 544 944 q 500 963 525 957 q 443 970 475 970 q 280 897 333 970 q 208 655 226 824 l 176 350 q 170 214 168 271 q 189 120 173 157 m 345 40 q 508 112 455 40 q 580 350 562 184 l 612 655 q 616 810 621 746 q 586 910 610 874 l 226 77 q 277 49 247 58 q 345 40 306 40 m 340 -13 q 263 -3 297 -13 q 202 28 229 8 l 148 -93 l 88 -93 l 159 62 q 116 178 128 106 q 115 350 105 250 l 148 655 q 243 933 167 843 q 449 1023 319 1023 q 515 1016 485 1023 q 568 992 544 1009 l 619 1104 l 678 1104 l 614 963 q 669 843 655 920 q 672 655 683 766 l 639 350 q 544 75 620 163 q 340 -13 468 -13 m 423 1136 l 602 1389 l 696 1389 l 473 1136 l 423 1136 z "},"Þ":{"ha":788,"x_min":101,"x_max":688,"o":"m 101 0 l 207 1010 l 265 1010 l 247 846 l 462 846 q 634 778 580 846 q 674 580 688 710 l 663 463 q 580 260 649 331 q 393 189 510 189 l 179 189 l 159 0 l 101 0 m 184 242 l 398 242 q 542 294 495 242 q 602 463 590 345 l 614 580 q 590 743 626 693 q 456 793 553 793 l 242 793 l 184 242 z "},"Đ":{"ha":788,"x_min":51,"x_max":688,"o":"m 51 525 l 56 580 l 378 580 l 372 525 l 51 525 m 100 0 l 206 1010 l 415 1010 q 621 912 553 1010 q 670 652 688 814 l 639 354 q 534 96 622 192 q 309 0 446 0 l 100 0 m 164 53 l 314 53 q 499 136 432 53 q 580 354 566 220 l 611 652 q 576 870 625 783 q 410 957 528 957 l 260 957 l 164 53 z "},"Ħ":{"ha":788,"x_min":73,"x_max":770,"o":"m 211 489 l 573 489 l 600 740 l 237 740 l 211 489 m 205 436 l 159 0 l 100 0 l 178 740 l 73 740 l 78 794 l 183 794 l 206 1010 l 265 1010 l 242 794 l 605 794 l 628 1010 l 687 1010 l 664 794 l 770 794 l 765 740 l 659 740 l 581 0 l 521 0 l 567 436 l 205 436 z "},"Ĳ":{"ha":788,"x_min":58,"x_max":731,"o":"m 117 0 l 58 0 l 164 1010 l 223 1010 l 117 0 m 437 -13 q 307 59 345 -13 q 279 292 269 131 l 340 298 q 355 101 332 162 q 443 40 379 40 q 546 100 511 40 q 596 302 581 160 l 665 957 l 443 957 l 448 1010 l 731 1010 l 657 303 q 587 61 639 134 q 437 -13 535 -13 z "},"Ŀ":{"ha":788,"x_min":153,"x_max":758,"o":"m 153 0 m 153 0 l 259 1010 l 318 1010 l 217 53 l 586 53 l 581 0 l 153 0 m 692 545 q 652 556 667 545 q 640 591 638 566 l 640 600 q 660 637 644 626 q 702 648 677 648 q 742 637 727 648 q 754 600 758 626 l 754 591 q 734 556 751 566 q 692 545 716 545 z "},"Ł":{"ha":788,"x_min":93,"x_max":586,"o":"m 93 437 l 100 491 l 547 668 l 540 614 l 93 437 m 153 0 l 259 1010 l 318 1010 l 217 53 l 586 53 l 581 0 l 153 0 z "},"Ŋ":{"ha":788,"x_min":100,"x_max":673,"o":"m 332 -263 q 264 -258 298 -263 q 193 -236 230 -253 l 215 -182 q 278 -203 249 -197 q 335 -210 307 -210 q 465 -146 418 -210 q 527 45 513 -82 l 597 725 q 578 903 610 843 q 475 963 547 963 q 359 925 413 963 q 244 806 306 886 l 159 0 l 100 0 l 206 1010 l 265 1010 l 249 859 l 263 859 q 372 980 313 938 q 496 1023 431 1023 q 629 951 586 1023 q 660 755 673 880 l 583 29 q 502 -184 569 -106 q 332 -263 434 -263 z "},"Œ":{"ha":788,"x_min":21,"x_max":793,"o":"m 261 0 q 80 97 139 0 q 39 362 21 193 l 68 643 q 166 912 87 814 q 366 1010 245 1010 l 793 1010 l 788 956 l 529 956 l 489 580 l 747 580 l 742 525 l 484 525 l 434 54 l 693 54 l 687 0 l 261 0 m 268 54 l 375 54 l 470 956 l 362 956 q 203 876 263 956 q 126 643 143 797 l 97 362 q 125 133 82 211 q 268 54 168 54 z "},"Ŧ":{"ha":788,"x_min":145,"x_max":740,"o":"m 145 424 l 152 479 l 631 479 l 625 424 l 145 424 m 312 0 l 413 957 l 149 957 l 154 1010 l 740 1010 l 735 957 l 471 957 l 370 0 l 312 0 z "},"Α":{"ha":788,"x_min":37,"x_max":646,"o":"m 37 0 m 524 371 l 437 902 l 239 371 l 524 371 m 585 0 l 533 317 l 217 317 l 98 0 l 37 0 l 423 1010 l 470 1010 l 646 0 l 585 0 z "},"Ά":{"ha":788,"x_min":37,"x_max":646,"o":"m 37 0 m 524 371 l 437 902 l 239 371 l 524 371 m 585 0 l 533 317 l 217 317 l 98 0 l 37 0 l 423 1010 l 470 1010 l 646 0 l 585 0 m 107 884 l 222 1136 l 316 1136 l 157 884 l 107 884 z "},"Β":{"ha":788,"x_min":100,"x_max":667,"o":"m 100 0 m 100 0 l 206 1010 l 453 1010 q 616 948 564 1010 q 654 773 667 886 l 649 716 q 605 599 641 648 q 515 539 569 551 l 514 530 q 615 463 581 523 q 639 314 649 404 l 633 258 q 552 67 620 134 q 366 0 484 0 l 100 0 m 217 556 l 407 556 q 539 597 496 556 q 592 735 582 638 l 596 770 q 573 914 606 870 q 449 957 539 957 l 260 957 l 217 556 m 164 53 l 375 53 q 516 100 470 53 q 573 258 562 148 l 578 298 q 554 455 590 408 q 423 501 518 501 l 212 501 l 164 53 z "},"Γ":{"ha":788,"x_min":100,"x_max":708,"o":"m 100 0 l 206 1010 l 708 1010 l 703 957 l 260 957 l 159 0 l 100 0 z "},"Δ":{"ha":788,"x_min":37,"x_max":650,"o":"m 37 0 l 42 53 l 419 1010 l 466 1010 l 650 53 l 645 0 l 37 0 m 591 53 l 437 914 l 100 53 l 591 53 z "},"Ε":{"ha":788,"x_min":101,"x_max":708,"o":"m 101 0 m 101 0 l 207 1010 l 708 1010 l 703 957 l 260 957 l 220 580 l 611 580 l 606 525 l 215 525 l 164 53 l 607 53 l 602 0 l 101 0 z "},"Έ":{"ha":788,"x_min":-42,"x_max":708,"o":"m 0 0 m 101 0 l 207 1010 l 708 1010 l 703 957 l 260 957 l 220 580 l 611 580 l 606 525 l 215 525 l 164 53 l 607 53 l 602 0 l 101 0 m -42 884 l 73 1136 l 167 1136 l 8 884 l -42 884 z "},"Ζ":{"ha":788,"x_min":78,"x_max":717,"o":"m 78 0 m 611 0 l 78 0 l 83 53 l 645 957 l 179 957 l 184 1010 l 717 1010 l 712 957 l 152 53 l 616 53 l 611 0 z "},"Η":{"ha":788,"x_min":100,"x_max":687,"o":"m 100 0 m 100 0 l 206 1010 l 265 1010 l 220 580 l 582 580 l 628 1010 l 687 1010 l 581 0 l 521 0 l 577 525 l 215 525 l 159 0 l 100 0 z "},"Ή":{"ha":788,"x_min":-53,"x_max":687,"o":"m 0 0 m 100 0 l 206 1010 l 265 1010 l 220 580 l 582 580 l 628 1010 l 687 1010 l 581 0 l 521 0 l 577 525 l 215 525 l 159 0 l 100 0 m -53 884 l 62 1136 l 155 1136 l -4 884 l -53 884 z "},"Θ":{"ha":788,"x_min":92,"x_max":694,"o":"m 340 -13 q 150 78 208 -13 q 111 350 92 169 l 144 655 q 241 931 163 838 q 449 1023 318 1023 q 638 931 581 1023 q 676 655 694 838 l 643 350 q 547 78 624 169 q 340 -13 471 -13 m 345 40 q 511 112 456 40 q 583 350 566 184 l 616 655 q 594 897 634 824 q 443 970 554 970 q 276 897 331 970 q 203 655 221 824 l 170 350 q 193 112 153 184 q 345 40 232 40 m 306 487 l 311 542 l 485 542 l 480 487 l 306 487 z "},"Ι":{"ha":788,"x_min":101,"x_max":687,"o":"m 101 0 m 101 0 l 106 53 l 317 53 l 413 957 l 202 957 l 207 1010 l 687 1010 l 682 957 l 471 957 l 375 53 l 586 53 l 581 0 l 101 0 z "},"Ί":{"ha":788,"x_min":-53,"x_max":687,"o":"m 0 0 m 101 0 l 106 53 l 317 53 l 413 957 l 202 957 l 207 1010 l 687 1010 l 682 957 l 471 957 l 375 53 l 586 53 l 581 0 l 101 0 m -53 884 l 62 1136 l 155 1136 l -4 884 l -53 884 z "},"Ϊ":{"ha":788,"x_min":101,"x_max":687,"o":"m 101 0 m 101 0 l 106 53 l 317 53 l 413 957 l 202 957 l 207 1010 l 687 1010 l 682 957 l 471 957 l 375 53 l 586 53 l 581 0 l 101 0 m 351 1176 q 315 1185 328 1176 q 306 1221 302 1194 l 306 1230 q 324 1268 309 1258 q 361 1278 338 1278 q 397 1268 384 1278 q 407 1230 410 1258 l 407 1221 q 388 1185 403 1194 q 351 1176 372 1176 m 576 1176 q 540 1185 553 1176 q 530 1221 527 1194 l 530 1230 q 549 1268 534 1258 q 586 1278 563 1278 q 622 1268 609 1278 q 631 1230 635 1258 l 631 1221 q 612 1185 628 1194 q 576 1176 597 1176 z "},"Κ":{"ha":788,"x_min":101,"x_max":750,"o":"m 101 0 m 212 506 l 159 0 l 101 0 l 207 1010 l 265 1010 l 218 561 l 299 561 l 674 1010 l 750 1010 l 352 542 l 640 0 l 576 0 l 307 506 l 212 506 z "},"Λ":{"ha":788,"x_min":37,"x_max":646,"o":"m 583 0 l 436 902 l 97 0 l 37 0 l 423 1010 l 470 1010 l 646 0 l 583 0 z "},"Μ":{"ha":788,"x_min":64,"x_max":723,"o":"m 64 0 m 337 253 l 217 898 l 122 0 l 64 0 l 170 1010 l 250 1010 l 375 323 l 644 1010 l 723 1010 l 617 0 l 559 0 l 654 900 l 398 253 l 337 253 z "},"Ν":{"ha":788,"x_min":100,"x_max":687,"o":"m 100 0 m 510 0 l 249 878 l 157 0 l 100 0 l 206 1010 l 270 1010 l 537 106 l 631 1010 l 687 1010 l 581 0 l 510 0 z "},"Ξ":{"ha":788,"x_min":80,"x_max":708,"o":"m 181 957 l 186 1010 l 708 1010 l 703 957 l 181 957 m 160 525 l 165 580 l 638 580 l 633 525 l 160 525 m 80 0 l 85 53 l 607 53 l 602 0 l 80 0 z "},"Ο":{"ha":788,"x_min":96,"x_max":691,"o":"m 96 0 m 340 -13 q 152 76 208 -13 q 114 341 96 164 l 148 664 q 242 932 167 842 q 449 1023 318 1023 q 636 932 581 1023 q 672 664 691 842 l 638 341 q 545 76 620 164 q 340 -13 471 -13 m 345 40 q 508 114 453 40 q 578 341 563 187 l 612 664 q 590 896 629 822 q 443 970 552 970 q 280 896 335 970 q 208 664 225 822 l 174 341 q 198 114 159 187 q 345 40 236 40 z "},"Ό":{"ha":788,"x_min":40,"x_max":696,"o":"m 40 0 m 345 -13 q 157 76 213 -13 q 119 341 101 164 l 153 664 q 247 932 172 842 q 455 1023 323 1023 q 641 932 586 1023 q 677 664 696 842 l 643 341 q 551 76 625 164 q 345 -13 476 -13 m 350 40 q 513 114 458 40 q 583 341 568 187 l 617 664 q 595 896 634 822 q 448 970 557 970 q 285 896 340 970 q 213 664 230 822 l 179 341 q 203 114 164 187 q 350 40 241 40 m 40 884 l 155 1136 l 249 1136 l 90 884 l 40 884 z "},"Π":{"ha":788,"x_min":100,"x_max":687,"o":"m 100 0 l 206 1010 l 687 1010 l 581 0 l 521 0 l 622 957 l 260 957 l 159 0 l 100 0 z "},"Ρ":{"ha":788,"x_min":101,"x_max":706,"o":"m 101 0 m 101 0 l 207 1010 l 480 1010 q 652 942 597 1010 q 692 744 706 874 l 679 620 q 596 422 665 490 q 409 354 527 354 l 196 354 l 159 0 l 101 0 m 202 407 l 415 407 q 559 457 513 407 q 619 622 606 508 l 630 739 q 607 906 643 855 q 473 957 571 957 l 260 957 l 202 407 z "},"Σ":{"ha":788,"x_min":68,"x_max":708,"o":"m 602 0 l 68 0 l 73 53 l 489 520 l 169 957 l 174 1010 l 708 1010 l 703 957 l 247 957 l 534 551 l 528 490 l 150 53 l 607 53 l 602 0 z "},"Τ":{"ha":788,"x_min":149,"x_max":740,"o":"m 149 0 m 312 0 l 413 957 l 149 957 l 154 1010 l 740 1010 l 735 957 l 471 957 l 370 0 l 312 0 z "},"Υ":{"ha":788,"x_min":116,"x_max":778,"o":"m 116 0 m 370 0 l 312 0 l 352 379 l 116 1010 l 182 1010 l 389 443 l 711 1010 l 778 1010 l 410 379 l 370 0 z "},"Ύ":{"ha":788,"x_min":-81,"x_max":778,"o":"m 0 0 m 370 0 l 312 0 l 352 379 l 116 1010 l 182 1010 l 389 443 l 711 1010 l 778 1010 l 410 379 l 370 0 m -81 884 l 34 1136 l 128 1136 l -32 884 l -81 884 z "},"Ϋ":{"ha":788,"x_min":116,"x_max":778,"o":"m 116 0 m 370 0 l 312 0 l 352 379 l 116 1010 l 182 1010 l 389 443 l 711 1010 l 778 1010 l 410 379 l 370 0 m 351 1176 q 315 1185 328 1176 q 306 1221 302 1194 l 306 1230 q 324 1268 309 1258 q 361 1278 338 1278 q 397 1268 384 1278 q 407 1230 410 1258 l 407 1221 q 388 1185 403 1194 q 351 1176 372 1176 m 576 1176 q 540 1185 553 1176 q 530 1221 527 1194 l 530 1230 q 549 1268 534 1258 q 586 1278 563 1278 q 622 1268 609 1278 q 631 1230 635 1258 l 631 1221 q 612 1185 628 1194 q 576 1176 597 1176 z "},"Φ":{"ha":788,"x_min":76,"x_max":712,"o":"m 76 0 m 441 114 l 381 114 l 367 -27 l 309 -27 l 323 114 l 266 114 q 120 189 164 114 q 91 407 76 264 l 111 598 q 187 821 126 745 q 350 896 247 896 l 407 896 l 420 1037 l 479 1037 l 465 896 l 524 896 q 669 821 625 896 q 697 598 712 745 l 677 407 q 602 189 662 264 q 441 114 542 114 m 518 843 l 458 843 l 388 167 l 447 167 q 563 224 523 167 q 617 407 604 282 l 638 598 q 622 785 650 726 q 518 843 593 843 m 273 167 l 330 167 l 400 843 l 343 843 q 224 785 265 843 q 170 598 183 726 l 150 407 q 165 224 136 282 q 273 167 194 167 z "},"Χ":{"ha":788,"x_min":16,"x_max":771,"o":"m 16 0 m 600 0 l 394 466 l 82 0 l 16 0 l 366 521 l 149 1010 l 212 1010 l 409 567 l 706 1010 l 771 1010 l 436 513 l 663 0 l 600 0 z "},"Ψ":{"ha":788,"x_min":121,"x_max":713,"o":"m 370 0 l 312 0 l 340 269 q 169 362 216 278 q 135 577 121 446 l 181 1010 l 240 1010 l 194 577 q 217 400 182 460 q 347 335 253 341 l 418 1010 l 476 1010 l 405 335 q 548 400 500 341 q 609 577 596 460 l 654 1010 l 713 1010 l 668 577 q 589 362 654 446 q 398 269 524 278 l 370 0 z "},"Ω":{"ha":788,"x_min":68,"x_max":701,"o":"m 265 0 l 68 0 l 73 53 l 211 53 l 231 241 q 137 343 162 266 q 122 519 112 419 l 138 655 q 232 929 155 835 q 448 1023 309 1023 q 644 929 587 1023 q 683 655 701 835 l 668 519 q 617 343 658 419 q 501 241 576 266 l 481 53 l 619 53 l 614 0 l 417 0 l 446 277 q 562 361 527 301 q 607 519 597 422 l 622 655 q 598 896 640 823 q 443 970 557 970 q 273 896 330 970 q 198 655 216 823 l 183 519 q 196 361 173 422 q 294 277 218 301 l 265 0 z "},"Ώ":{"ha":788,"x_min":13,"x_max":701,"o":"m 13 0 m 265 0 l 68 0 l 73 53 l 211 53 l 231 241 q 137 343 162 266 q 122 519 112 419 l 138 655 q 232 929 155 835 q 448 1023 309 1023 q 644 929 587 1023 q 683 655 701 835 l 668 519 q 617 343 658 419 q 501 241 576 266 l 481 53 l 619 53 l 614 0 l 417 0 l 446 277 q 562 361 527 301 q 607 519 597 422 l 622 655 q 598 896 640 823 q 443 970 557 970 q 273 896 330 970 q 198 655 216 823 l 183 519 q 196 361 173 422 q 294 277 218 301 l 265 0 m 13 884 l 128 1136 l 221 1136 l 62 884 l 13 884 z "},"Ω":{"ha":788,"x_min":68,"x_max":701,"o":"m 68 0 m 265 0 l 68 0 l 73 53 l 211 53 l 231 241 q 137 343 162 266 q 122 519 112 419 l 138 655 q 232 929 155 835 q 448 1023 309 1023 q 644 929 587 1023 q 683 655 701 835 l 668 519 q 617 343 658 419 q 501 241 576 266 l 481 53 l 619 53 l 614 0 l 417 0 l 446 277 q 562 361 527 301 q 607 519 597 422 l 622 655 q 598 896 640 823 q 443 970 557 970 q 273 896 330 970 q 198 655 216 823 l 183 519 q 196 361 173 422 q 294 277 218 301 l 265 0 z "},"Ђ":{"ha":788,"x_min":128,"x_max":678,"o":"m 186 0 l 287 957 l 128 957 l 133 1010 l 614 1010 l 609 957 l 345 957 l 309 630 l 452 630 q 624 571 569 630 q 665 399 678 511 l 650 258 q 575 66 638 133 q 404 0 513 0 l 409 51 q 536 100 492 51 q 592 260 580 149 l 606 396 q 578 537 616 495 q 447 578 540 578 l 304 578 l 244 0 l 186 0 z "},"Є":{"ha":788,"x_min":95,"x_max":705,"o":"m 650 292 q 553 65 629 143 q 350 -13 477 -13 q 156 74 217 -13 q 114 333 95 160 l 149 672 q 247 936 168 848 q 460 1023 326 1023 q 646 944 587 1023 q 694 713 705 865 l 635 708 q 598 908 641 847 q 453 970 556 970 q 283 900 340 970 q 210 672 226 831 l 199 580 l 438 580 l 433 525 l 194 525 l 174 333 q 199 109 158 177 q 355 40 241 40 q 514 101 460 40 q 592 297 568 162 l 650 292 z "},"Ѕ":{"ha":788,"x_min":82,"x_max":678,"o":"m 82 0 m 345 -6 q 194 25 259 -6 q 82 111 129 57 l 121 155 q 225 74 169 101 q 352 47 282 47 q 506 102 443 47 q 580 256 569 158 q 551 397 590 347 q 395 494 511 447 q 218 603 273 543 q 174 769 163 663 q 260 948 186 881 q 444 1014 335 1014 q 578 985 519 1014 q 678 910 636 956 l 640 865 q 548 936 596 910 q 439 961 500 961 q 295 910 350 961 q 232 775 240 859 q 267 641 222 688 q 426 548 312 595 q 598 435 548 499 q 636 256 649 371 q 542 66 625 139 q 345 -6 460 -6 z "},"І":{"ha":788,"x_min":101,"x_max":687,"o":"m 101 0 m 101 0 l 106 53 l 317 53 l 413 957 l 202 957 l 207 1010 l 687 1010 l 682 957 l 471 957 l 375 53 l 586 53 l 581 0 l 101 0 z "},"Ї":{"ha":788,"x_min":101,"x_max":687,"o":"m 101 0 m 101 0 l 106 53 l 317 53 l 413 957 l 202 957 l 207 1010 l 687 1010 l 682 957 l 471 957 l 375 53 l 586 53 l 581 0 l 101 0 m 351 1176 q 315 1185 328 1176 q 306 1221 302 1194 l 306 1230 q 324 1268 309 1258 q 361 1278 338 1278 q 397 1268 384 1278 q 407 1230 410 1258 l 407 1221 q 388 1185 403 1194 q 351 1176 372 1176 m 576 1176 q 540 1185 553 1176 q 530 1221 527 1194 l 530 1230 q 549 1268 534 1258 q 586 1278 563 1278 q 622 1268 609 1278 q 631 1230 635 1258 l 631 1221 q 612 1185 628 1194 q 576 1176 597 1176 z "},"Ј":{"ha":788,"x_min":78,"x_max":687,"o":"m 78 0 m 318 -13 q 134 61 189 -13 q 90 295 78 135 l 149 303 q 180 99 143 158 q 319 40 217 40 q 485 109 429 40 q 557 327 542 177 l 624 957 l 389 957 l 394 1010 l 687 1010 l 615 328 q 523 71 597 155 q 318 -13 449 -13 z "},"Љ":{"ha":788,"x_min":-33,"x_max":679,"o":"m 158 191 q 109 39 145 85 q 27 -8 72 -8 q -3 -4 13 -9 q -33 5 -18 0 l -11 66 q 8 59 -3 62 q 27 56 18 56 q 70 83 51 56 q 101 201 90 111 l 198 1010 l 476 1010 l 437 640 l 511 640 q 641 574 602 640 q 667 381 679 509 l 653 258 q 588 65 640 130 q 446 0 535 0 l 312 0 l 413 957 l 249 957 l 158 191 m 375 53 l 449 53 q 545 98 506 53 q 596 263 583 144 l 609 379 q 592 541 620 496 q 506 586 563 586 l 432 586 l 375 53 z "},"Њ":{"ha":788,"x_min":54,"x_max":679,"o":"m 375 53 l 451 53 q 545 98 506 53 q 596 263 583 144 l 609 379 q 592 542 620 497 q 508 586 563 586 l 432 586 l 375 53 m 170 553 l 112 0 l 54 0 l 160 1010 l 218 1010 l 176 606 l 375 606 l 418 1010 l 476 1010 l 437 640 l 513 640 q 641 574 604 640 q 667 381 679 509 l 653 258 q 589 65 640 130 q 447 0 538 0 l 312 0 l 370 553 l 170 553 z "},"Ћ":{"ha":788,"x_min":117,"x_max":674,"o":"m 234 0 l 174 0 l 275 957 l 117 957 l 122 1010 l 604 1010 l 598 957 l 335 957 l 297 602 l 467 602 q 626 539 577 602 q 660 352 674 476 l 624 0 l 564 0 l 601 350 q 581 504 612 460 q 462 548 549 548 l 292 548 l 234 0 z "},"Џ":{"ha":788,"x_min":100,"x_max":687,"o":"m 290 -189 l 311 0 l 100 0 l 206 1010 l 265 1010 l 164 53 l 527 53 l 628 1010 l 687 1010 l 581 0 l 370 0 l 350 -189 l 290 -189 z "},"А":{"ha":788,"x_min":37,"x_max":646,"o":"m 37 0 m 524 371 l 437 902 l 239 371 l 524 371 m 585 0 l 533 317 l 217 317 l 98 0 l 37 0 l 423 1010 l 470 1010 l 646 0 l 585 0 z "},"Б":{"ha":788,"x_min":100,"x_max":660,"o":"m 100 0 l 206 1010 l 660 1010 l 655 957 l 260 957 l 221 591 l 429 591 q 592 528 538 591 q 633 351 645 465 l 622 258 q 543 68 610 136 q 367 0 476 0 l 100 0 m 164 53 l 361 53 q 503 105 453 53 q 564 264 553 158 l 572 340 q 544 489 583 441 q 413 538 505 538 l 216 538 l 164 53 z "},"В":{"ha":788,"x_min":100,"x_max":667,"o":"m 100 0 m 100 0 l 206 1010 l 453 1010 q 616 948 564 1010 q 654 773 667 886 l 649 716 q 605 599 641 648 q 515 539 569 551 l 514 530 q 615 463 581 523 q 639 314 649 404 l 633 258 q 552 67 620 134 q 366 0 484 0 l 100 0 m 217 556 l 407 556 q 539 597 496 556 q 592 735 582 638 l 596 770 q 573 914 606 870 q 449 957 539 957 l 260 957 l 217 556 m 164 53 l 375 53 q 516 100 470 53 q 573 258 562 148 l 578 298 q 554 455 590 408 q 423 501 518 501 l 212 501 l 164 53 z "},"Г":{"ha":788,"x_min":100,"x_max":708,"o":"m 100 0 m 100 0 l 206 1010 l 708 1010 l 703 957 l 260 957 l 159 0 l 100 0 z "},"Ѓ":{"ha":788,"x_min":100,"x_max":708,"o":"m 100 0 m 100 0 l 206 1010 l 708 1010 l 703 957 l 260 957 l 159 0 l 100 0 m 429 1136 l 609 1389 l 702 1389 l 480 1136 l 429 1136 z "},"Д":{"ha":788,"x_min":-15,"x_max":673,"o":"m 139 64 l 138 53 l 508 53 l 604 957 l 302 957 l 235 366 q 200 170 222 239 q 139 64 178 101 m 66 0 l 45 -189 l -15 -189 l 10 53 l 69 53 q 140 165 112 88 q 182 374 167 242 l 251 1010 l 669 1010 l 568 53 l 673 53 l 648 -189 l 588 -189 l 609 0 l 66 0 z "},"Е":{"ha":788,"x_min":101,"x_max":708,"o":"m 101 0 m 101 0 l 207 1010 l 708 1010 l 703 957 l 260 957 l 220 580 l 611 580 l 606 525 l 215 525 l 164 53 l 607 53 l 602 0 l 101 0 z "},"Ѐ":{"ha":788,"x_min":101,"x_max":708,"o":"m 101 0 m 101 0 l 207 1010 l 708 1010 l 703 957 l 260 957 l 220 580 l 611 580 l 606 525 l 215 525 l 164 53 l 607 53 l 602 0 l 101 0 m 509 1136 l 338 1389 l 433 1389 l 558 1136 l 509 1136 z "},"Ё":{"ha":788,"x_min":101,"x_max":708,"o":"m 101 0 m 101 0 l 207 1010 l 708 1010 l 703 957 l 260 957 l 220 580 l 611 580 l 606 525 l 215 525 l 164 53 l 607 53 l 602 0 l 101 0 m 380 1176 q 344 1185 357 1176 q 335 1221 331 1194 l 335 1230 q 353 1268 338 1258 q 390 1278 367 1278 q 426 1268 413 1278 q 436 1230 439 1258 l 436 1221 q 417 1185 432 1194 q 380 1176 402 1176 m 605 1176 q 569 1185 582 1176 q 559 1221 556 1194 l 559 1230 q 578 1268 563 1258 q 615 1278 592 1278 q 651 1268 638 1278 q 660 1230 664 1258 l 660 1221 q 641 1185 657 1194 q 605 1176 626 1176 z "},"Ж":{"ha":788,"x_min":0,"x_max":793,"o":"m 293 515 l 58 0 l 0 0 l 249 542 l 102 1010 l 162 1010 l 294 566 l 374 566 l 420 1010 l 475 1010 l 428 566 l 504 566 l 735 1010 l 793 1010 l 547 545 l 684 0 l 624 0 l 499 515 l 423 515 l 369 0 l 314 0 l 369 515 l 293 515 z "},"З":{"ha":788,"x_min":86,"x_max":676,"o":"m 337 -13 q 146 50 206 -13 q 93 244 86 112 l 154 251 q 194 87 152 136 q 342 38 237 38 q 513 90 458 38 q 581 265 568 143 l 586 317 q 561 460 597 418 q 428 501 525 501 l 312 501 l 317 554 l 433 554 q 550 592 513 554 q 597 718 587 629 l 604 777 q 574 927 614 883 q 433 972 535 972 q 296 927 342 972 q 231 778 250 883 l 172 785 q 256 965 191 907 q 438 1023 321 1023 q 619 962 563 1023 q 663 777 676 902 l 657 718 q 612 589 648 635 q 520 533 576 543 l 520 523 q 622 460 587 516 q 646 317 657 404 l 641 265 q 552 55 626 122 q 337 -13 479 -13 z "},"И":{"ha":788,"x_min":100,"x_max":687,"o":"m 523 0 l 615 875 l 173 0 l 100 0 l 206 1010 l 264 1010 l 169 111 l 625 1010 l 687 1010 l 581 0 l 523 0 z "},"Ѝ":{"ha":788,"x_min":100,"x_max":687,"o":"m 100 0 m 523 0 l 615 875 l 173 0 l 100 0 l 206 1010 l 264 1010 l 169 111 l 625 1010 l 687 1010 l 581 0 l 523 0 m 471 1136 l 301 1389 l 395 1389 l 520 1136 l 471 1136 z "},"Й":{"ha":788,"x_min":100,"x_max":708,"o":"m 100 0 m 523 0 l 615 875 l 173 0 l 100 0 l 206 1010 l 264 1010 l 169 111 l 625 1010 l 687 1010 l 581 0 l 523 0 m 467 1128 q 322 1183 379 1128 q 279 1378 265 1239 l 340 1384 q 361 1227 330 1274 q 472 1181 393 1181 q 593 1227 552 1181 q 648 1384 635 1274 l 708 1378 q 624 1183 692 1239 q 467 1128 556 1128 z "},"К":{"ha":788,"x_min":101,"x_max":750,"o":"m 101 0 m 212 506 l 159 0 l 101 0 l 207 1010 l 265 1010 l 218 561 l 299 561 l 674 1010 l 750 1010 l 352 542 l 640 0 l 576 0 l 307 506 l 212 506 z "},"Ќ":{"ha":788,"x_min":101,"x_max":750,"o":"m 101 0 m 212 506 l 159 0 l 101 0 l 207 1010 l 265 1010 l 218 561 l 299 561 l 674 1010 l 750 1010 l 352 542 l 640 0 l 576 0 l 307 506 l 212 506 m 455 1136 l 634 1389 l 727 1389 l 505 1136 l 455 1136 z "},"Л":{"ha":788,"x_min":-18,"x_max":687,"o":"m 521 0 l 622 957 l 323 957 l 247 280 q 181 57 231 128 q 54 -13 130 -13 q 15 -10 33 -13 q -18 0 -3 -8 l 0 51 q 25 43 13 45 q 49 40 37 40 q 145 101 111 40 q 194 297 178 162 l 271 1010 l 687 1010 l 581 0 l 521 0 z "},"М":{"ha":788,"x_min":64,"x_max":723,"o":"m 64 0 m 337 253 l 217 898 l 122 0 l 64 0 l 170 1010 l 250 1010 l 375 323 l 644 1010 l 723 1010 l 617 0 l 559 0 l 654 900 l 398 253 l 337 253 z "},"Н":{"ha":788,"x_min":100,"x_max":687,"o":"m 100 0 m 100 0 l 206 1010 l 265 1010 l 220 580 l 582 580 l 628 1010 l 687 1010 l 581 0 l 521 0 l 577 525 l 215 525 l 159 0 l 100 0 z "},"О":{"ha":788,"x_min":96,"x_max":691,"o":"m 96 0 m 340 -13 q 152 76 208 -13 q 114 341 96 164 l 148 664 q 242 932 167 842 q 449 1023 318 1023 q 636 932 581 1023 q 672 664 691 842 l 638 341 q 545 76 620 164 q 340 -13 471 -13 m 345 40 q 508 114 453 40 q 578 341 563 187 l 612 664 q 590 896 629 822 q 443 970 552 970 q 280 896 335 970 q 208 664 225 822 l 174 341 q 198 114 159 187 q 345 40 236 40 z "},"П":{"ha":788,"x_min":100,"x_max":687,"o":"m 100 0 m 100 0 l 206 1010 l 687 1010 l 581 0 l 521 0 l 622 957 l 260 957 l 159 0 l 100 0 z "},"Р":{"ha":788,"x_min":101,"x_max":706,"o":"m 101 0 m 101 0 l 207 1010 l 480 1010 q 652 942 597 1010 q 692 744 706 874 l 679 620 q 596 422 665 490 q 409 354 527 354 l 196 354 l 159 0 l 101 0 m 202 407 l 415 407 q 559 457 513 407 q 619 622 606 508 l 630 739 q 607 906 643 855 q 473 957 571 957 l 260 957 l 202 407 z "},"С":{"ha":788,"x_min":95,"x_max":706,"o":"m 95 0 m 350 -13 q 156 74 217 -13 q 114 336 95 160 l 149 669 q 246 933 167 843 q 460 1023 326 1023 q 645 948 585 1023 q 694 713 706 872 l 635 708 q 600 912 640 854 q 453 970 559 970 q 283 897 340 970 q 208 664 226 824 l 174 341 q 199 112 158 183 q 355 40 241 40 q 520 101 466 40 q 592 297 574 162 l 650 292 q 557 66 634 144 q 350 -13 481 -13 z "},"Т":{"ha":788,"x_min":149,"x_max":740,"o":"m 149 0 m 312 0 l 413 957 l 149 957 l 154 1010 l 740 1010 l 735 957 l 471 957 l 370 0 l 312 0 z "},"У":{"ha":788,"x_min":117,"x_max":745,"o":"m 186 -11 q 151 -9 168 -11 q 117 -1 134 -6 l 133 53 q 163 46 150 48 q 192 44 176 44 q 276 78 242 44 q 347 207 309 112 l 355 226 l 335 226 l 148 1010 l 208 1010 l 375 282 l 679 1010 l 745 1010 l 394 191 q 297 32 343 74 q 186 -11 250 -11 z "},"Ў":{"ha":788,"x_min":117,"x_max":745,"o":"m 117 0 m 186 -11 q 151 -9 168 -11 q 117 -1 134 -6 l 133 53 q 163 46 150 48 q 192 44 176 44 q 276 78 242 44 q 347 207 309 112 l 355 226 l 335 226 l 148 1010 l 208 1010 l 375 282 l 679 1010 l 745 1010 l 394 191 q 297 32 343 74 q 186 -11 250 -11 m 458 1128 q 313 1183 370 1128 q 270 1378 256 1239 l 331 1384 q 352 1227 321 1274 q 463 1181 384 1181 q 585 1227 543 1181 q 639 1384 626 1274 l 699 1378 q 615 1183 683 1239 q 458 1128 547 1128 z "},"Ф":{"ha":788,"x_min":76,"x_max":712,"o":"m 441 114 l 381 114 l 367 -27 l 309 -27 l 323 114 l 266 114 q 120 189 164 114 q 91 407 76 264 l 111 598 q 187 821 126 745 q 350 896 247 896 l 407 896 l 420 1037 l 479 1037 l 465 896 l 524 896 q 669 821 625 896 q 697 598 712 745 l 677 407 q 602 189 662 264 q 441 114 542 114 m 518 843 l 458 843 l 388 167 l 447 167 q 563 224 523 167 q 617 407 604 282 l 638 598 q 622 785 650 726 q 518 843 593 843 m 273 167 l 330 167 l 400 843 l 343 843 q 224 785 265 843 q 170 598 183 726 l 150 407 q 165 224 136 282 q 273 167 194 167 z "},"Х":{"ha":788,"x_min":16,"x_max":771,"o":"m 16 0 m 600 0 l 394 466 l 82 0 l 16 0 l 366 521 l 149 1010 l 212 1010 l 409 567 l 706 1010 l 771 1010 l 436 513 l 663 0 l 600 0 z "},"Ц":{"ha":788,"x_min":100,"x_max":639,"o":"m 554 -189 l 574 0 l 100 0 l 206 1010 l 265 1010 l 164 53 l 475 53 l 576 1010 l 634 1010 l 533 53 l 639 53 l 614 -189 l 554 -189 z "},"Ч":{"ha":788,"x_min":152,"x_max":687,"o":"m 687 1010 l 581 0 l 523 0 l 561 362 l 379 362 q 201 421 251 362 q 165 611 152 480 l 207 1010 l 265 1010 l 223 614 q 249 461 212 508 q 384 414 287 414 l 566 414 l 629 1010 l 687 1010 z "},"Ш":{"ha":788,"x_min":48,"x_max":740,"o":"m 48 0 l 154 1010 l 213 1010 l 112 53 l 317 53 l 418 1010 l 476 1010 l 375 53 l 580 53 l 681 1010 l 740 1010 l 634 0 l 48 0 z "},"Щ":{"ha":788,"x_min":48,"x_max":740,"o":"m 657 -189 l 600 -189 l 620 0 l 48 0 l 154 1010 l 213 1010 l 112 53 l 317 53 l 418 1010 l 476 1010 l 375 53 l 580 53 l 681 1010 l 740 1010 l 639 53 l 682 53 l 657 -189 z "},"Ъ":{"ha":788,"x_min":97,"x_max":688,"o":"m 424 0 l 206 0 l 307 957 l 97 957 l 102 1010 l 371 1010 l 332 640 l 490 640 q 641 576 593 640 q 674 381 688 511 l 660 258 q 588 64 648 129 q 424 0 528 0 m 270 53 l 428 53 q 550 102 509 53 q 602 263 591 150 l 615 379 q 596 540 626 492 q 485 588 566 588 l 327 588 l 270 53 z "},"Ы":{"ha":788,"x_min":74,"x_max":713,"o":"m 74 0 l 181 1010 l 239 1010 l 199 640 l 295 640 q 429 573 393 640 q 452 381 465 506 l 438 258 q 376 66 426 133 q 230 0 326 0 l 74 0 m 549 0 l 655 1010 l 713 1010 l 607 0 l 549 0 m 138 53 l 234 53 q 333 102 298 53 q 380 263 369 152 l 393 379 q 379 540 404 491 q 290 588 355 588 l 194 588 l 138 53 z "},"Ь":{"ha":788,"x_min":101,"x_max":667,"o":"m 101 0 l 207 1010 l 265 1010 l 226 641 l 439 641 q 612 574 558 641 q 654 381 667 508 l 640 258 q 559 66 628 133 q 374 0 491 0 l 101 0 m 164 53 l 378 53 q 521 102 472 53 q 581 263 569 152 l 593 379 q 567 540 605 491 q 434 588 529 588 l 221 588 l 164 53 z "},"Э":{"ha":788,"x_min":101,"x_max":712,"o":"m 350 -13 q 161 66 221 -13 q 109 294 101 145 l 170 302 q 208 102 167 163 q 355 40 249 40 q 525 109 468 40 q 598 333 582 177 l 619 525 l 333 525 l 338 580 l 624 580 l 634 672 q 609 900 650 831 q 453 970 567 970 q 294 908 350 970 q 213 703 237 846 l 153 711 q 253 943 177 862 q 457 1023 330 1023 q 653 932 595 1023 q 694 672 712 842 l 659 333 q 564 76 641 165 q 350 -13 486 -13 z "},"Ю":{"ha":788,"x_min":53,"x_max":720,"o":"m 434 -13 q 305 59 342 -13 q 283 282 268 131 l 309 525 l 168 525 l 112 0 l 53 0 l 159 1010 l 218 1010 l 173 580 l 314 580 l 330 723 q 399 950 346 878 q 544 1023 452 1023 q 680 949 640 1023 q 703 723 720 876 l 657 282 q 587 59 641 131 q 434 -13 533 -13 m 439 40 q 549 97 511 40 q 598 282 586 154 l 645 723 q 634 912 659 855 q 538 970 610 970 q 437 912 472 970 q 388 723 402 855 l 341 282 q 351 97 328 154 q 439 40 374 40 z "},"Я":{"ha":788,"x_min":32,"x_max":686,"o":"m 335 451 l 568 451 l 621 957 l 388 957 q 244 908 292 957 q 184 747 196 859 l 176 657 q 201 499 164 547 q 335 451 239 451 m 562 396 l 355 396 l 98 0 l 32 0 l 290 398 q 146 472 189 407 q 115 654 104 537 l 126 753 q 205 944 139 878 q 391 1010 270 1010 l 686 1010 l 580 0 l 520 0 l 562 396 z "},"Ґ":{"ha":788,"x_min":100,"x_max":729,"o":"m 100 0 l 206 1010 l 649 1010 l 669 1199 l 729 1199 l 703 957 l 260 957 l 159 0 l 100 0 z "},"a":{"ha":788,"x_min":72,"x_max":665,"o":"m 280 38 q 391 68 340 38 q 491 157 443 97 l 511 348 l 292 348 q 186 319 227 348 q 138 211 145 289 q 163 83 129 128 q 280 38 197 38 m 269 -13 q 122 45 173 -13 q 82 203 72 104 q 147 347 91 294 q 294 399 203 399 l 516 399 l 533 557 q 503 673 540 629 q 385 717 465 717 q 264 686 306 717 q 193 571 222 654 l 143 586 q 234 727 177 684 q 390 770 292 770 q 547 713 492 770 q 591 557 602 657 l 553 193 q 567 69 543 98 q 665 54 591 39 l 659 -1 q 547 14 587 -14 q 508 114 506 42 l 497 114 q 400 22 462 57 q 269 -13 338 -13 z "},"à":{"ha":788,"x_min":72,"x_max":665,"o":"m 72 0 m 280 38 q 391 68 340 38 q 491 157 443 97 l 511 348 l 292 348 q 186 319 227 348 q 138 211 145 289 q 163 83 129 128 q 280 38 197 38 m 269 -13 q 122 45 173 -13 q 82 203 72 104 q 147 347 91 294 q 294 399 203 399 l 516 399 l 533 557 q 503 673 540 629 q 385 717 465 717 q 264 686 306 717 q 193 571 222 654 l 143 586 q 234 727 177 684 q 390 770 292 770 q 547 713 492 770 q 591 557 602 657 l 553 193 q 567 69 543 98 q 665 54 591 39 l 659 -1 q 547 14 587 -14 q 508 114 506 42 l 497 114 q 400 22 462 57 q 269 -13 338 -13 m 438 884 l 268 1136 l 362 1136 l 487 884 l 438 884 z "},"á":{"ha":788,"x_min":72,"x_max":665,"o":"m 72 0 m 280 38 q 391 68 340 38 q 491 157 443 97 l 511 348 l 292 348 q 186 319 227 348 q 138 211 145 289 q 163 83 129 128 q 280 38 197 38 m 269 -13 q 122 45 173 -13 q 82 203 72 104 q 147 347 91 294 q 294 399 203 399 l 516 399 l 533 557 q 503 673 540 629 q 385 717 465 717 q 264 686 306 717 q 193 571 222 654 l 143 586 q 234 727 177 684 q 390 770 292 770 q 547 713 492 770 q 591 557 602 657 l 553 193 q 567 69 543 98 q 665 54 591 39 l 659 -1 q 547 14 587 -14 q 508 114 506 42 l 497 114 q 400 22 462 57 q 269 -13 338 -13 m 337 884 l 516 1136 l 610 1136 l 388 884 l 337 884 z "},"â":{"ha":788,"x_min":72,"x_max":665,"o":"m 72 0 m 280 38 q 391 68 340 38 q 491 157 443 97 l 511 348 l 292 348 q 186 319 227 348 q 138 211 145 289 q 163 83 129 128 q 280 38 197 38 m 269 -13 q 122 45 173 -13 q 82 203 72 104 q 147 347 91 294 q 294 399 203 399 l 516 399 l 533 557 q 503 673 540 629 q 385 717 465 717 q 264 686 306 717 q 193 571 222 654 l 143 586 q 234 727 177 684 q 390 770 292 770 q 547 713 492 770 q 591 557 602 657 l 553 193 q 567 69 543 98 q 665 54 591 39 l 659 -1 q 547 14 587 -14 q 508 114 506 42 l 497 114 q 400 22 462 57 q 269 -13 338 -13 m 249 913 l 227 944 l 432 1158 l 471 1158 l 633 944 l 605 913 l 446 1102 l 249 913 z "},"ã":{"ha":788,"x_min":72,"x_max":665,"o":"m 72 0 m 280 38 q 391 68 340 38 q 491 157 443 97 l 511 348 l 292 348 q 186 319 227 348 q 138 211 145 289 q 163 83 129 128 q 280 38 197 38 m 269 -13 q 122 45 173 -13 q 82 203 72 104 q 147 347 91 294 q 294 399 203 399 l 516 399 l 533 557 q 503 673 540 629 q 385 717 465 717 q 264 686 306 717 q 193 571 222 654 l 143 586 q 234 727 177 684 q 390 770 292 770 q 547 713 492 770 q 591 557 602 657 l 553 193 q 567 69 543 98 q 665 54 591 39 l 659 -1 q 547 14 587 -14 q 508 114 506 42 l 497 114 q 400 22 462 57 q 269 -13 338 -13 m 506 896 q 449 920 471 896 q 404 1013 427 944 q 377 1083 390 1064 q 346 1102 364 1102 q 295 1058 314 1102 q 268 923 275 1014 l 266 909 l 218 909 l 220 928 q 265 1093 231 1038 q 351 1149 298 1149 q 409 1126 388 1149 q 449 1040 431 1104 q 481 964 467 985 q 511 943 495 943 q 561 987 542 943 q 588 1122 580 1032 l 591 1136 l 639 1136 l 636 1117 q 592 952 625 1008 q 506 896 559 896 z "},"ä":{"ha":788,"x_min":72,"x_max":665,"o":"m 72 0 m 280 38 q 391 68 340 38 q 491 157 443 97 l 511 348 l 292 348 q 186 319 227 348 q 138 211 145 289 q 163 83 129 128 q 280 38 197 38 m 269 -13 q 122 45 173 -13 q 82 203 72 104 q 147 347 91 294 q 294 399 203 399 l 516 399 l 533 557 q 503 673 540 629 q 385 717 465 717 q 264 686 306 717 q 193 571 222 654 l 143 586 q 234 727 177 684 q 390 770 292 770 q 547 713 492 770 q 591 557 602 657 l 553 193 q 567 69 543 98 q 665 54 591 39 l 659 -1 q 547 14 587 -14 q 508 114 506 42 l 497 114 q 400 22 462 57 q 269 -13 338 -13 m 306 923 q 270 932 283 923 q 260 968 256 942 l 260 977 q 278 1015 264 1005 q 316 1025 293 1025 q 352 1015 338 1025 q 361 977 365 1005 l 361 968 q 342 932 357 942 q 306 923 327 923 m 530 923 q 494 932 508 923 q 485 968 481 942 l 485 977 q 503 1015 489 1005 q 540 1025 518 1025 q 576 1015 563 1025 q 586 977 590 1005 l 586 968 q 567 932 582 942 q 530 923 552 923 z "},"å":{"ha":788,"x_min":72,"x_max":665,"o":"m 72 0 m 280 38 q 391 68 340 38 q 491 157 443 97 l 511 348 l 292 348 q 186 319 227 348 q 138 211 145 289 q 163 83 129 128 q 280 38 197 38 m 269 -13 q 122 45 173 -13 q 82 203 72 104 q 147 347 91 294 q 294 399 203 399 l 516 399 l 533 557 q 503 673 540 629 q 385 717 465 717 q 264 686 306 717 q 193 571 222 654 l 143 586 q 234 727 177 684 q 390 770 292 770 q 547 713 492 770 q 591 557 602 657 l 553 193 q 567 69 543 98 q 665 54 591 39 l 659 -1 q 547 14 587 -14 q 508 114 506 42 l 497 114 q 400 22 462 57 q 269 -13 338 -13 m 412 865 q 305 910 340 865 q 280 1039 270 955 l 285 1097 q 338 1229 294 1183 q 455 1275 383 1275 q 561 1229 527 1275 q 586 1097 595 1183 l 581 1039 q 527 910 571 955 q 412 865 484 865 m 417 914 q 493 944 467 914 q 527 1039 519 975 l 532 1097 q 520 1195 539 1164 q 449 1226 500 1226 q 373 1195 399 1226 q 340 1097 347 1164 l 335 1039 q 347 944 327 975 q 417 914 366 914 z "},"ā":{"ha":788,"x_min":72,"x_max":665,"o":"m 72 0 m 280 38 q 391 68 340 38 q 491 157 443 97 l 511 348 l 292 348 q 186 319 227 348 q 138 211 145 289 q 163 83 129 128 q 280 38 197 38 m 269 -13 q 122 45 173 -13 q 82 203 72 104 q 147 347 91 294 q 294 399 203 399 l 516 399 l 533 557 q 503 673 540 629 q 385 717 465 717 q 264 686 306 717 q 193 571 222 654 l 143 586 q 234 727 177 684 q 390 770 292 770 q 547 713 492 770 q 591 557 602 657 l 553 193 q 567 69 543 98 q 665 54 591 39 l 659 -1 q 547 14 587 -14 q 508 114 506 42 l 497 114 q 400 22 462 57 q 269 -13 338 -13 m 236 986 l 242 1040 l 619 1040 l 612 986 l 236 986 z "},"ă":{"ha":788,"x_min":72,"x_max":665,"o":"m 72 0 m 280 38 q 391 68 340 38 q 491 157 443 97 l 511 348 l 292 348 q 186 319 227 348 q 138 211 145 289 q 163 83 129 128 q 280 38 197 38 m 269 -13 q 122 45 173 -13 q 82 203 72 104 q 147 347 91 294 q 294 399 203 399 l 516 399 l 533 557 q 503 673 540 629 q 385 717 465 717 q 264 686 306 717 q 193 571 222 654 l 143 586 q 234 727 177 684 q 390 770 292 770 q 547 713 492 770 q 591 557 602 657 l 553 193 q 567 69 543 98 q 665 54 591 39 l 659 -1 q 547 14 587 -14 q 508 114 506 42 l 497 114 q 400 22 462 57 q 269 -13 338 -13 m 413 875 q 261 943 311 875 q 223 1136 211 1010 l 283 1136 q 304 978 271 1027 q 418 929 337 929 q 542 978 499 929 q 598 1136 585 1027 l 658 1136 q 579 943 643 1010 q 413 875 515 875 z "},"ą":{"ha":788,"x_min":72,"x_max":672,"o":"m 72 0 m 280 38 q 391 68 340 38 q 491 157 443 97 l 511 348 l 292 348 q 186 319 227 348 q 138 211 145 289 q 163 83 129 128 q 280 38 197 38 m 269 -13 q 122 45 173 -13 q 82 203 72 104 q 147 347 91 294 q 294 399 203 399 l 516 399 l 533 557 q 503 673 540 629 q 385 717 465 717 q 264 686 306 717 q 193 571 222 654 l 143 586 q 234 727 177 684 q 390 770 292 770 q 547 713 492 770 q 591 557 602 657 l 553 193 q 567 69 543 98 q 665 54 591 39 l 659 -1 q 547 14 587 -14 q 508 114 506 42 l 497 114 q 400 22 462 57 q 269 -13 338 -13 m 577 -271 q 480 -234 514 -271 q 452 -135 446 -197 q 496 -33 457 -81 q 593 42 534 14 l 607 29 q 539 -38 562 -3 q 511 -119 516 -73 q 525 -195 506 -172 q 591 -218 544 -218 q 631 -216 611 -218 q 672 -208 650 -213 l 665 -261 q 621 -269 645 -266 q 577 -271 596 -271 z "},"ǻ":{"ha":788,"x_min":72,"x_max":670,"o":"m 72 0 m 280 38 q 391 68 340 38 q 491 157 443 97 l 511 348 l 292 348 q 186 319 227 348 q 138 211 145 289 q 163 83 129 128 q 280 38 197 38 m 269 -13 q 122 45 173 -13 q 82 203 72 104 q 147 347 91 294 q 294 399 203 399 l 516 399 l 533 557 q 503 673 540 629 q 385 717 465 717 q 264 686 306 717 q 193 571 222 654 l 143 586 q 234 727 177 684 q 390 770 292 770 q 547 713 492 770 q 591 557 602 657 l 553 193 q 567 69 543 98 q 665 54 591 39 l 659 -1 q 547 14 587 -14 q 508 114 506 42 l 497 114 q 400 22 462 57 q 269 -13 338 -13 m 412 865 q 305 910 340 865 q 280 1039 270 955 l 285 1097 q 338 1229 294 1183 q 455 1275 383 1275 q 561 1229 527 1275 q 586 1097 595 1183 l 581 1039 q 527 910 571 955 q 412 865 484 865 m 417 914 q 493 944 467 914 q 527 1039 519 975 l 532 1097 q 520 1195 539 1164 q 449 1226 500 1226 q 373 1195 399 1226 q 340 1097 347 1164 l 335 1039 q 347 944 327 975 q 417 914 366 914 m 398 1263 l 577 1515 l 670 1515 l 448 1263 l 398 1263 z "},"b":{"ha":788,"x_min":107,"x_max":648,"o":"m 332 -13 q 211 7 268 -13 q 107 62 154 27 l 207 1010 l 265 1010 l 227 653 l 239 653 q 333 737 277 703 q 462 770 390 770 q 600 701 553 770 q 634 508 648 633 l 609 260 q 518 62 595 136 q 332 -13 442 -13 m 336 38 q 483 95 427 38 q 551 263 539 153 l 576 506 q 556 665 587 612 q 448 717 524 717 q 334 687 386 717 q 221 586 282 657 l 168 88 q 242 51 201 64 q 336 38 283 38 z "},"":{"ha":788,"x_min":107,"x_max":648,"o":"m 332 -13 q 211 7 268 -13 q 107 62 154 27 l 207 1010 l 265 1010 l 227 653 l 239 653 q 333 737 277 703 q 462 770 390 770 q 600 701 553 770 q 634 508 648 633 l 609 260 q 518 62 595 136 q 332 -13 442 -13 m 336 38 q 483 95 427 38 q 551 263 539 153 l 576 506 q 556 665 587 612 q 448 717 524 717 q 334 687 386 717 q 221 586 282 657 l 168 88 q 242 51 201 64 q 336 38 283 38 z "},"c":{"ha":788,"x_min":115,"x_max":654,"o":"m 355 -13 q 172 57 230 -13 q 128 258 115 126 l 153 495 q 240 699 167 629 q 436 770 313 770 q 604 715 553 770 q 650 543 654 660 l 592 538 q 559 677 595 638 q 429 717 523 717 q 277 663 331 717 q 211 495 223 609 l 186 258 q 217 93 174 146 q 360 40 260 40 q 497 74 453 40 q 556 194 542 109 l 614 189 q 533 36 596 85 q 355 -13 471 -13 z "},"ç":{"ha":788,"x_min":115,"x_max":654,"o":"m 115 0 m 355 -13 q 172 57 230 -13 q 128 258 115 126 l 153 495 q 240 699 167 629 q 436 770 313 770 q 604 715 553 770 q 650 543 654 660 l 592 538 q 559 677 595 638 q 429 717 523 717 q 277 663 331 717 q 211 495 223 609 l 186 258 q 217 93 174 146 q 360 40 260 40 q 497 74 453 40 q 556 194 542 109 l 614 189 q 533 36 596 85 q 355 -13 471 -13 m 312 0 l 327 27 q 417 -28 386 13 q 441 -129 447 -69 q 391 -234 434 -196 q 280 -273 347 -273 q 184 -241 218 -273 q 153 -133 150 -208 l 210 -128 q 225 -201 208 -179 q 280 -223 241 -223 q 354 -201 331 -223 q 383 -125 376 -179 q 372 -45 388 -74 q 312 0 356 -16 z "},"ć":{"ha":788,"x_min":115,"x_max":654,"o":"m 115 0 m 355 -13 q 172 57 230 -13 q 128 258 115 126 l 153 495 q 240 699 167 629 q 436 770 313 770 q 604 715 553 770 q 650 543 654 660 l 592 538 q 559 677 595 638 q 429 717 523 717 q 277 663 331 717 q 211 495 223 609 l 186 258 q 217 93 174 146 q 360 40 260 40 q 497 74 453 40 q 556 194 542 109 l 614 189 q 533 36 596 85 q 355 -13 471 -13 m 369 884 l 548 1136 l 641 1136 l 419 884 l 369 884 z "},"ĉ":{"ha":788,"x_min":115,"x_max":658,"o":"m 115 0 m 355 -13 q 172 57 230 -13 q 128 258 115 126 l 153 495 q 240 699 167 629 q 436 770 313 770 q 604 715 553 770 q 650 543 654 660 l 592 538 q 559 677 595 638 q 429 717 523 717 q 277 663 331 717 q 211 495 223 609 l 186 258 q 217 93 174 146 q 360 40 260 40 q 497 74 453 40 q 556 194 542 109 l 614 189 q 533 36 596 85 q 355 -13 471 -13 m 274 913 l 253 944 l 457 1158 l 496 1158 l 658 944 l 630 913 l 471 1102 l 274 913 z "},"ċ":{"ha":788,"x_min":115,"x_max":654,"o":"m 115 0 m 355 -13 q 172 57 230 -13 q 128 258 115 126 l 153 495 q 240 699 167 629 q 436 770 313 770 q 604 715 553 770 q 650 543 654 660 l 592 538 q 559 677 595 638 q 429 717 523 717 q 277 663 331 717 q 211 495 223 609 l 186 258 q 217 93 174 146 q 360 40 260 40 q 497 74 453 40 q 556 194 542 109 l 614 189 q 533 36 596 85 q 355 -13 471 -13 m 444 923 q 405 933 419 923 q 393 968 390 943 l 393 977 q 413 1015 396 1004 q 455 1025 429 1025 q 495 1015 480 1025 q 506 977 510 1004 l 506 968 q 486 933 504 943 q 444 923 468 923 z "},"č":{"ha":788,"x_min":115,"x_max":665,"o":"m 115 0 m 355 -13 q 172 57 230 -13 q 128 258 115 126 l 153 495 q 240 699 167 629 q 436 770 313 770 q 604 715 553 770 q 650 543 654 660 l 592 538 q 559 677 595 638 q 429 717 523 717 q 277 663 331 717 q 211 495 223 609 l 186 258 q 217 93 174 146 q 360 40 260 40 q 497 74 453 40 q 556 194 542 109 l 614 189 q 533 36 596 85 q 355 -13 471 -13 m 422 889 l 260 1102 l 288 1134 l 447 944 l 644 1134 l 665 1102 l 461 889 l 422 889 z "},"d":{"ha":788,"x_min":115,"x_max":687,"o":"m 322 40 q 431 69 380 40 q 540 163 482 97 l 593 670 q 515 707 557 694 q 426 720 472 720 q 277 662 331 720 q 211 495 222 605 l 187 259 q 208 93 174 145 q 322 40 241 40 m 523 105 q 429 18 485 49 q 309 -13 374 -13 q 161 57 207 -13 q 129 259 115 128 l 153 497 q 241 696 167 622 q 431 770 314 770 q 521 758 479 770 q 600 730 563 746 l 629 1010 l 687 1010 l 581 0 l 523 0 l 534 105 l 523 105 z "},"ď":{"ha":788,"x_min":115,"x_max":1009,"o":"m 115 0 m 322 40 q 431 69 380 40 q 540 163 482 97 l 593 670 q 515 707 557 694 q 426 720 472 720 q 277 662 331 720 q 211 495 222 605 l 187 259 q 208 93 174 145 q 322 40 241 40 m 523 105 q 429 18 485 49 q 309 -13 374 -13 q 161 57 207 -13 q 129 259 115 128 l 153 497 q 241 696 167 622 q 431 770 314 770 q 521 758 479 770 q 600 730 563 746 l 629 1010 l 687 1010 l 581 0 l 523 0 l 534 105 l 523 105 m 811 957 l 927 1263 l 1009 1263 l 859 957 l 811 957 z "},"e":{"ha":788,"x_min":114,"x_max":646,"o":"m 591 149 q 501 27 558 66 q 345 -13 443 -13 q 171 56 229 -13 q 129 259 114 125 l 153 495 q 241 701 168 633 q 423 770 314 770 q 589 700 532 770 q 631 486 646 630 l 620 372 l 198 372 l 186 258 q 215 92 174 144 q 350 40 256 40 q 468 68 429 40 q 537 167 508 96 l 591 149 m 211 495 l 203 424 l 567 424 l 573 484 q 547 660 586 605 q 417 716 508 716 q 275 662 327 716 q 211 495 223 609 z "},"è":{"ha":788,"x_min":114,"x_max":646,"o":"m 114 0 m 591 149 q 501 27 558 66 q 345 -13 443 -13 q 171 56 229 -13 q 129 259 114 125 l 153 495 q 241 701 168 633 q 423 770 314 770 q 589 700 532 770 q 631 486 646 630 l 620 372 l 198 372 l 186 258 q 215 92 174 144 q 350 40 256 40 q 468 68 429 40 q 537 167 508 96 l 591 149 m 211 495 l 203 424 l 567 424 l 573 484 q 547 660 586 605 q 417 716 508 716 q 275 662 327 716 q 211 495 223 609 m 460 884 l 289 1136 l 384 1136 l 509 884 l 460 884 z "},"é":{"ha":788,"x_min":114,"x_max":646,"o":"m 114 0 m 591 149 q 501 27 558 66 q 345 -13 443 -13 q 171 56 229 -13 q 129 259 114 125 l 153 495 q 241 701 168 633 q 423 770 314 770 q 589 700 532 770 q 631 486 646 630 l 620 372 l 198 372 l 186 258 q 215 92 174 144 q 350 40 256 40 q 468 68 429 40 q 537 167 508 96 l 591 149 m 211 495 l 203 424 l 567 424 l 573 484 q 547 660 586 605 q 417 716 508 716 q 275 662 327 716 q 211 495 223 609 m 361 884 l 540 1136 l 634 1136 l 412 884 l 361 884 z "},"ê":{"ha":788,"x_min":114,"x_max":646,"o":"m 114 0 m 591 149 q 501 27 558 66 q 345 -13 443 -13 q 171 56 229 -13 q 129 259 114 125 l 153 495 q 241 701 168 633 q 423 770 314 770 q 589 700 532 770 q 631 486 646 630 l 620 372 l 198 372 l 186 258 q 215 92 174 144 q 350 40 256 40 q 468 68 429 40 q 537 167 508 96 l 591 149 m 211 495 l 203 424 l 567 424 l 573 484 q 547 660 586 605 q 417 716 508 716 q 275 662 327 716 q 211 495 223 609 m 260 913 l 239 944 l 443 1158 l 482 1158 l 644 944 l 616 913 l 457 1102 l 260 913 z "},"ë":{"ha":788,"x_min":114,"x_max":646,"o":"m 114 0 m 591 149 q 501 27 558 66 q 345 -13 443 -13 q 171 56 229 -13 q 129 259 114 125 l 153 495 q 241 701 168 633 q 423 770 314 770 q 589 700 532 770 q 631 486 646 630 l 620 372 l 198 372 l 186 258 q 215 92 174 144 q 350 40 256 40 q 468 68 429 40 q 537 167 508 96 l 591 149 m 211 495 l 203 424 l 567 424 l 573 484 q 547 660 586 605 q 417 716 508 716 q 275 662 327 716 q 211 495 223 609 m 327 923 q 291 932 304 923 q 282 968 278 942 l 282 977 q 300 1015 285 1005 q 337 1025 314 1025 q 373 1015 360 1025 q 383 977 386 1005 l 383 968 q 364 932 379 942 q 327 923 348 923 m 552 923 q 516 932 529 923 q 506 968 503 942 l 506 977 q 525 1015 510 1005 q 562 1025 539 1025 q 598 1015 585 1025 q 607 977 611 1005 l 607 968 q 588 932 604 942 q 552 923 573 923 z "},"ē":{"ha":788,"x_min":114,"x_max":646,"o":"m 114 0 m 591 149 q 501 27 558 66 q 345 -13 443 -13 q 171 56 229 -13 q 129 259 114 125 l 153 495 q 241 701 168 633 q 423 770 314 770 q 589 700 532 770 q 631 486 646 630 l 620 372 l 198 372 l 186 258 q 215 92 174 144 q 350 40 256 40 q 468 68 429 40 q 537 167 508 96 l 591 149 m 211 495 l 203 424 l 567 424 l 573 484 q 547 660 586 605 q 417 716 508 716 q 275 662 327 716 q 211 495 223 609 m 258 986 l 264 1040 l 640 1040 l 634 986 l 258 986 z "},"ĕ":{"ha":788,"x_min":114,"x_max":678,"o":"m 114 0 m 591 149 q 501 27 558 66 q 345 -13 443 -13 q 171 56 229 -13 q 129 259 114 125 l 153 495 q 241 701 168 633 q 423 770 314 770 q 589 700 532 770 q 631 486 646 630 l 620 372 l 198 372 l 186 258 q 215 92 174 144 q 350 40 256 40 q 468 68 429 40 q 537 167 508 96 l 591 149 m 211 495 l 203 424 l 567 424 l 573 484 q 547 660 586 605 q 417 716 508 716 q 275 662 327 716 q 211 495 223 609 m 433 875 q 281 943 331 875 q 244 1136 231 1010 l 303 1136 q 324 978 292 1027 q 438 929 357 929 q 562 978 519 929 q 619 1136 605 1027 l 678 1136 q 599 943 663 1010 q 433 875 535 875 z "},"ė":{"ha":788,"x_min":114,"x_max":646,"o":"m 114 0 m 591 149 q 501 27 558 66 q 345 -13 443 -13 q 171 56 229 -13 q 129 259 114 125 l 153 495 q 241 701 168 633 q 423 770 314 770 q 589 700 532 770 q 631 486 646 630 l 620 372 l 198 372 l 186 258 q 215 92 174 144 q 350 40 256 40 q 468 68 429 40 q 537 167 508 96 l 591 149 m 211 495 l 203 424 l 567 424 l 573 484 q 547 660 586 605 q 417 716 508 716 q 275 662 327 716 q 211 495 223 609 m 439 923 q 400 933 414 923 q 388 968 385 943 l 388 977 q 408 1015 391 1004 q 449 1025 424 1025 q 490 1015 475 1025 q 501 977 505 1004 l 501 968 q 481 933 499 943 q 439 923 463 923 z "},"ę":{"ha":788,"x_min":114,"x_max":646,"o":"m 114 0 m 463 -271 q 366 -234 400 -271 q 338 -135 332 -197 q 382 -33 343 -81 q 480 42 420 14 l 494 29 q 426 -38 448 -3 q 398 -119 403 -73 q 412 -195 393 -172 q 477 -218 431 -218 q 517 -216 497 -218 q 558 -208 537 -213 l 552 -261 q 507 -269 532 -266 q 463 -271 482 -271 m 591 149 q 501 27 558 66 q 345 -13 443 -13 q 171 56 229 -13 q 129 259 114 125 l 153 495 q 241 701 168 633 q 423 770 314 770 q 589 700 532 770 q 631 486 646 630 l 620 372 l 198 372 l 186 258 q 215 92 174 144 q 350 40 256 40 q 468 68 429 40 q 537 167 508 96 l 591 149 m 211 495 l 203 424 l 567 424 l 573 484 q 547 660 586 605 q 417 716 508 716 q 275 662 327 716 q 211 495 223 609 z "},"ě":{"ha":788,"x_min":114,"x_max":660,"o":"m 114 0 m 591 149 q 501 27 558 66 q 345 -13 443 -13 q 171 56 229 -13 q 129 259 114 125 l 153 495 q 241 701 168 633 q 423 770 314 770 q 589 700 532 770 q 631 486 646 630 l 620 372 l 198 372 l 186 258 q 215 92 174 144 q 350 40 256 40 q 468 68 429 40 q 537 167 508 96 l 591 149 m 211 495 l 203 424 l 567 424 l 573 484 q 547 660 586 605 q 417 716 508 716 q 275 662 327 716 q 211 495 223 609 m 417 889 l 255 1102 l 283 1134 l 442 944 l 639 1134 l 660 1102 l 456 889 l 417 889 z "},"f":{"ha":788,"x_min":144,"x_max":697,"o":"m 232 -253 l 333 705 l 144 705 l 149 758 l 338 758 l 343 808 q 417 964 355 909 q 563 1019 479 1019 q 635 1011 600 1019 q 697 992 670 1004 l 678 941 q 622 958 654 952 q 556 965 591 965 q 452 928 494 965 q 402 809 410 891 l 396 758 l 670 758 l 665 705 l 391 705 l 290 -253 l 232 -253 z "},"g":{"ha":788,"x_min":32,"x_max":688,"o":"m 628 -61 q 554 -214 616 -163 q 405 -265 492 -265 l 223 -265 q 81 -210 131 -265 q 43 -53 32 -155 q 78 48 49 10 q 154 91 106 86 l 154 97 q 104 134 120 104 q 92 211 87 164 q 133 320 98 279 q 222 365 167 361 l 223 369 q 170 417 186 383 q 159 505 154 451 l 165 561 q 236 702 174 646 q 400 758 298 758 l 688 758 l 683 705 l 530 716 l 529 708 q 583 651 568 696 q 593 563 597 606 l 587 509 q 523 376 580 427 q 350 324 466 324 l 222 324 q 170 300 189 324 q 144 217 150 275 q 158 138 139 163 q 225 112 178 112 l 471 112 q 593 68 551 112 q 628 -61 636 23 m 360 374 q 478 406 436 374 q 528 505 520 438 l 533 553 q 506 668 542 633 q 395 703 471 703 q 276 668 319 703 q 223 553 232 633 l 218 505 q 247 406 211 438 q 360 374 284 374 m 227 -211 l 415 -211 q 524 -176 487 -211 q 568 -68 561 -140 q 551 23 574 -6 q 471 52 527 52 l 112 52 l 104 -34 q 127 -166 95 -121 q 227 -211 159 -211 z "},"ĝ":{"ha":788,"x_min":32,"x_max":688,"o":"m 32 0 m 628 -61 q 554 -214 616 -163 q 405 -265 492 -265 l 223 -265 q 81 -210 131 -265 q 43 -53 32 -155 q 78 48 49 10 q 154 91 106 86 l 154 97 q 104 134 120 104 q 92 211 87 164 q 133 320 98 279 q 222 365 167 361 l 223 369 q 170 417 186 383 q 159 505 154 451 l 165 561 q 236 702 174 646 q 400 758 298 758 l 688 758 l 683 705 l 530 716 l 529 708 q 583 651 568 696 q 593 563 597 606 l 587 509 q 523 376 580 427 q 350 324 466 324 l 222 324 q 170 300 189 324 q 144 217 150 275 q 158 138 139 163 q 225 112 178 112 l 471 112 q 593 68 551 112 q 628 -61 636 23 m 360 374 q 478 406 436 374 q 528 505 520 438 l 533 553 q 506 668 542 633 q 395 703 471 703 q 276 668 319 703 q 223 553 232 633 l 218 505 q 247 406 211 438 q 360 374 284 374 m 227 -211 l 415 -211 q 524 -176 487 -211 q 568 -68 561 -140 q 551 23 574 -6 q 471 52 527 52 l 112 52 l 104 -34 q 127 -166 95 -121 q 227 -211 159 -211 m 251 913 l 230 944 l 434 1158 l 473 1158 l 635 944 l 607 913 l 448 1102 l 251 913 z "},"ğ":{"ha":788,"x_min":32,"x_max":688,"o":"m 32 0 m 628 -61 q 554 -214 616 -163 q 405 -265 492 -265 l 223 -265 q 81 -210 131 -265 q 43 -53 32 -155 q 78 48 49 10 q 154 91 106 86 l 154 97 q 104 134 120 104 q 92 211 87 164 q 133 320 98 279 q 222 365 167 361 l 223 369 q 170 417 186 383 q 159 505 154 451 l 165 561 q 236 702 174 646 q 400 758 298 758 l 688 758 l 683 705 l 530 716 l 529 708 q 583 651 568 696 q 593 563 597 606 l 587 509 q 523 376 580 427 q 350 324 466 324 l 222 324 q 170 300 189 324 q 144 217 150 275 q 158 138 139 163 q 225 112 178 112 l 471 112 q 593 68 551 112 q 628 -61 636 23 m 360 374 q 478 406 436 374 q 528 505 520 438 l 533 553 q 506 668 542 633 q 395 703 471 703 q 276 668 319 703 q 223 553 232 633 l 218 505 q 247 406 211 438 q 360 374 284 374 m 227 -211 l 415 -211 q 524 -176 487 -211 q 568 -68 561 -140 q 551 23 574 -6 q 471 52 527 52 l 112 52 l 104 -34 q 127 -166 95 -121 q 227 -211 159 -211 m 433 875 q 281 943 331 875 q 244 1136 231 1010 l 303 1136 q 324 978 292 1027 q 438 929 357 929 q 562 978 519 929 q 619 1136 605 1027 l 678 1136 q 599 943 663 1010 q 433 875 535 875 z "},"ġ":{"ha":788,"x_min":32,"x_max":688,"o":"m 32 0 m 628 -61 q 554 -214 616 -163 q 405 -265 492 -265 l 223 -265 q 81 -210 131 -265 q 43 -53 32 -155 q 78 48 49 10 q 154 91 106 86 l 154 97 q 104 134 120 104 q 92 211 87 164 q 133 320 98 279 q 222 365 167 361 l 223 369 q 170 417 186 383 q 159 505 154 451 l 165 561 q 236 702 174 646 q 400 758 298 758 l 688 758 l 683 705 l 530 716 l 529 708 q 583 651 568 696 q 593 563 597 606 l 587 509 q 523 376 580 427 q 350 324 466 324 l 222 324 q 170 300 189 324 q 144 217 150 275 q 158 138 139 163 q 225 112 178 112 l 471 112 q 593 68 551 112 q 628 -61 636 23 m 360 374 q 478 406 436 374 q 528 505 520 438 l 533 553 q 506 668 542 633 q 395 703 471 703 q 276 668 319 703 q 223 553 232 633 l 218 505 q 247 406 211 438 q 360 374 284 374 m 227 -211 l 415 -211 q 524 -176 487 -211 q 568 -68 561 -140 q 551 23 574 -6 q 471 52 527 52 l 112 52 l 104 -34 q 127 -166 95 -121 q 227 -211 159 -211 m 438 923 q 398 933 413 923 q 386 968 384 943 l 386 977 q 407 1015 390 1004 q 448 1025 423 1025 q 489 1015 473 1025 q 500 977 504 1004 l 500 968 q 480 933 497 943 q 438 923 462 923 z "},"ģ":{"ha":788,"x_min":32,"x_max":688,"o":"m 32 0 m 628 -61 q 554 -214 616 -163 q 405 -265 492 -265 l 223 -265 q 81 -210 131 -265 q 43 -53 32 -155 q 78 48 49 10 q 154 91 106 86 l 154 97 q 104 134 120 104 q 92 211 87 164 q 133 320 98 279 q 222 365 167 361 l 223 369 q 170 417 186 383 q 159 505 154 451 l 165 561 q 236 702 174 646 q 400 758 298 758 l 688 758 l 683 705 l 530 716 l 529 708 q 583 651 568 696 q 593 563 597 606 l 587 509 q 523 376 580 427 q 350 324 466 324 l 222 324 q 170 300 189 324 q 144 217 150 275 q 158 138 139 163 q 225 112 178 112 l 471 112 q 593 68 551 112 q 628 -61 636 23 m 360 374 q 478 406 436 374 q 528 505 520 438 l 533 553 q 506 668 542 633 q 395 703 471 703 q 276 668 319 703 q 223 553 232 633 l 218 505 q 247 406 211 438 q 360 374 284 374 m 227 -211 l 415 -211 q 524 -176 487 -211 q 568 -68 561 -140 q 551 23 574 -6 q 471 52 527 52 l 112 52 l 104 -34 q 127 -166 95 -121 q 227 -211 159 -211 m 379 884 l 549 1136 l 600 1136 l 472 884 l 379 884 z "},"h":{"ha":788,"x_min":101,"x_max":649,"o":"m 101 0 l 207 1010 l 265 1010 l 227 648 l 239 648 q 335 739 282 707 q 461 770 388 770 q 602 708 554 770 q 638 543 649 645 l 581 0 l 523 0 l 578 530 q 554 667 587 617 q 451 717 520 717 q 334 689 389 717 q 221 588 279 660 l 159 0 l 101 0 z "},"ĥ":{"ha":788,"x_min":58,"x_max":649,"o":"m 58 0 m 101 0 l 207 1010 l 265 1010 l 227 648 l 239 648 q 335 739 282 707 q 461 770 388 770 q 602 708 554 770 q 638 543 649 645 l 581 0 l 523 0 l 578 530 q 554 667 587 617 q 451 717 520 717 q 334 689 389 717 q 221 588 279 660 l 159 0 l 101 0 m 80 1165 l 58 1197 l 263 1410 l 302 1410 l 463 1197 l 436 1165 l 277 1355 l 80 1165 z "},"i":{"ha":788,"x_min":101,"x_max":586,"o":"m 101 0 m 101 0 l 106 53 l 317 53 l 386 705 l 176 705 l 181 758 l 449 758 l 375 53 l 586 53 l 581 0 l 101 0 m 439 923 q 400 933 414 923 q 388 968 385 943 l 388 977 q 408 1015 391 1004 q 449 1025 424 1025 q 490 1015 475 1025 q 501 977 505 1004 l 501 968 q 481 933 499 943 q 439 923 463 923 z "},"ì":{"ha":788,"x_min":101,"x_max":586,"o":"m 101 0 m 101 0 l 106 53 l 317 53 l 386 705 l 176 705 l 181 758 l 449 758 l 375 53 l 586 53 l 581 0 l 101 0 m 461 884 l 290 1136 l 385 1136 l 510 884 l 461 884 z "},"í":{"ha":788,"x_min":101,"x_max":630,"o":"m 101 0 m 101 0 l 106 53 l 317 53 l 386 705 l 176 705 l 181 758 l 449 758 l 375 53 l 586 53 l 581 0 l 101 0 m 357 884 l 537 1136 l 630 1136 l 408 884 l 357 884 z "},"î":{"ha":788,"x_min":101,"x_max":643,"o":"m 101 0 m 101 0 l 106 53 l 317 53 l 386 705 l 176 705 l 181 758 l 449 758 l 375 53 l 586 53 l 581 0 l 101 0 m 259 913 l 237 944 l 442 1158 l 481 1158 l 643 944 l 615 913 l 456 1102 l 259 913 z "},"ï":{"ha":788,"x_min":101,"x_max":610,"o":"m 101 0 m 101 0 l 106 53 l 317 53 l 386 705 l 176 705 l 181 758 l 449 758 l 375 53 l 586 53 l 581 0 l 101 0 m 326 923 q 290 932 303 923 q 280 968 277 942 l 280 977 q 299 1015 284 1005 q 336 1025 313 1025 q 372 1015 359 1025 q 381 977 385 1005 l 381 968 q 362 932 378 942 q 326 923 347 923 m 551 923 q 515 932 528 923 q 505 968 501 942 l 505 977 q 523 1015 509 1005 q 561 1025 538 1025 q 597 1015 583 1025 q 606 977 610 1005 l 606 968 q 587 932 602 942 q 551 923 572 923 z "},"ĩ":{"ha":788,"x_min":101,"x_max":659,"o":"m 101 0 m 101 0 l 106 53 l 317 53 l 386 705 l 176 705 l 181 758 l 449 758 l 375 53 l 586 53 l 581 0 l 101 0 m 527 896 q 469 920 491 896 q 424 1013 447 944 q 397 1083 410 1064 q 366 1102 384 1102 q 315 1058 335 1102 q 288 923 295 1014 l 287 909 l 239 909 l 240 928 q 285 1093 251 1038 q 371 1149 318 1149 q 429 1126 408 1149 q 470 1040 451 1104 q 501 964 487 985 q 532 943 515 943 q 581 987 562 943 q 609 1122 600 1032 l 611 1136 l 659 1136 l 657 1117 q 612 952 645 1008 q 527 896 580 896 z "},"ī":{"ha":788,"x_min":101,"x_max":639,"o":"m 101 0 m 101 0 l 106 53 l 317 53 l 386 705 l 176 705 l 181 758 l 449 758 l 375 53 l 586 53 l 581 0 l 101 0 m 256 986 l 263 1040 l 639 1040 l 633 986 l 256 986 z "},"ĭ":{"ha":788,"x_min":101,"x_max":678,"o":"m 101 0 m 101 0 l 106 53 l 317 53 l 386 705 l 176 705 l 181 758 l 449 758 l 375 53 l 586 53 l 581 0 l 101 0 m 433 875 q 281 943 331 875 q 244 1136 231 1010 l 303 1136 q 324 978 292 1027 q 438 929 357 929 q 562 978 519 929 q 619 1136 605 1027 l 678 1136 q 599 943 663 1010 q 433 875 535 875 z "},"į":{"ha":788,"x_min":101,"x_max":586,"o":"m 101 0 m 439 923 q 400 933 414 923 q 388 968 385 943 l 388 977 q 408 1015 391 1004 q 449 1025 424 1025 q 490 1015 475 1025 q 501 977 505 1004 l 501 968 q 481 933 499 943 q 439 923 463 923 m 101 0 l 106 53 l 317 53 l 386 705 l 176 705 l 181 758 l 449 758 l 375 53 l 586 53 l 581 0 l 101 0 m 402 -271 q 304 -234 338 -271 q 277 -135 270 -197 q 320 -33 282 -81 q 418 42 359 14 l 432 29 q 364 -38 386 -3 q 336 -119 341 -73 q 350 -195 331 -172 q 415 -218 369 -218 q 455 -216 436 -218 q 496 -208 475 -213 l 490 -261 q 445 -269 470 -266 q 402 -271 420 -271 z "},"j":{"ha":788,"x_min":74,"x_max":605,"o":"m 74 0 m 223 -263 q 148 -254 186 -263 q 74 -232 110 -245 l 93 -178 q 162 -200 128 -192 q 227 -208 196 -208 q 359 -157 312 -208 q 417 0 405 -106 l 491 705 l 196 705 l 201 758 l 556 758 l 476 -5 q 396 -195 462 -128 q 223 -263 330 -263 m 539 923 q 499 933 514 923 q 487 968 485 943 l 487 977 q 508 1015 491 1004 q 549 1025 524 1025 q 590 1015 574 1025 q 601 977 605 1004 l 601 968 q 581 933 598 943 q 539 923 563 923 z "},"ĵ":{"ha":788,"x_min":74,"x_max":711,"o":"m 74 0 m 223 -263 q 148 -254 186 -263 q 74 -232 110 -245 l 93 -178 q 162 -200 128 -192 q 227 -208 196 -208 q 359 -157 312 -208 q 417 0 405 -106 l 491 705 l 196 705 l 201 758 l 556 758 l 476 -5 q 396 -195 462 -128 q 223 -263 330 -263 m 327 913 l 306 944 l 510 1158 l 549 1158 l 711 944 l 683 913 l 524 1102 l 327 913 z "},"k":{"ha":788,"x_min":153,"x_max":677,"o":"m 251 371 l 212 0 l 153 0 l 259 1010 l 318 1010 l 256 426 l 355 426 l 607 758 l 677 758 l 403 403 l 593 0 l 529 0 l 354 371 l 251 371 z "},"ķ":{"ha":788,"x_min":153,"x_max":677,"o":"m 153 0 m 251 371 l 212 0 l 153 0 l 259 1010 l 318 1010 l 256 426 l 355 426 l 607 758 l 677 758 l 403 403 l 593 0 l 529 0 l 354 371 l 251 371 m 173 -379 l 302 -126 l 395 -126 l 223 -379 l 173 -379 z "},"l":{"ha":788,"x_min":101,"x_max":586,"o":"m 101 0 l 106 53 l 317 53 l 413 957 l 202 957 l 207 1010 l 476 1010 l 375 53 l 586 53 l 581 0 l 101 0 z "},"ĺ":{"ha":788,"x_min":101,"x_max":644,"o":"m 101 0 m 101 0 l 106 53 l 317 53 l 413 957 l 202 957 l 207 1010 l 476 1010 l 375 53 l 586 53 l 581 0 l 101 0 m 371 1136 l 551 1389 l 644 1389 l 422 1136 l 371 1136 z "},"ļ":{"ha":788,"x_min":101,"x_max":586,"o":"m 101 0 m 101 0 l 106 53 l 317 53 l 413 957 l 202 957 l 207 1010 l 476 1010 l 375 53 l 586 53 l 581 0 l 101 0 m 152 -379 l 280 -126 l 374 -126 l 202 -379 l 152 -379 z "},"ľ":{"ha":788,"x_min":101,"x_max":806,"o":"m 101 0 m 101 0 l 106 53 l 317 53 l 413 957 l 202 957 l 207 1010 l 476 1010 l 375 53 l 586 53 l 581 0 l 101 0 m 607 957 l 723 1263 l 806 1263 l 655 957 l 607 957 z "},"m":{"ha":788,"x_min":49,"x_max":703,"o":"m 174 622 l 109 0 l 49 0 l 129 758 l 188 758 l 179 669 l 191 669 q 246 743 213 716 q 322 770 279 770 q 395 744 366 770 q 431 669 423 717 l 443 669 q 503 743 466 716 q 586 770 539 770 q 674 718 645 770 q 694 574 703 667 l 634 0 l 574 0 l 634 562 q 625 678 641 641 q 566 715 609 715 q 503 692 534 715 q 436 622 471 669 l 370 0 l 312 0 l 371 562 q 362 678 379 641 q 303 715 346 715 q 240 692 271 715 q 174 622 208 669 z "},"n":{"ha":788,"x_min":101,"x_max":649,"o":"m 101 0 l 181 758 l 239 758 l 227 648 l 239 648 q 335 738 274 706 q 458 770 396 770 q 600 708 551 770 q 638 542 649 646 l 581 0 l 523 0 l 578 530 q 554 669 588 621 q 447 716 519 716 q 330 686 388 716 q 222 595 273 657 l 159 0 l 101 0 z "},"ñ":{"ha":788,"x_min":101,"x_max":681,"o":"m 101 0 m 101 0 l 181 758 l 239 758 l 227 648 l 239 648 q 335 738 274 706 q 458 770 396 770 q 600 708 551 770 q 638 542 649 646 l 581 0 l 523 0 l 578 530 q 554 669 588 621 q 447 716 519 716 q 330 686 388 716 q 222 595 273 657 l 159 0 l 101 0 m 548 896 q 491 920 513 896 q 446 1013 468 944 q 419 1083 432 1064 q 388 1102 405 1102 q 336 1058 356 1102 q 309 923 317 1014 l 308 909 l 260 909 l 261 928 q 306 1093 273 1038 q 393 1149 340 1149 q 451 1126 429 1149 q 491 1040 472 1104 q 523 964 509 985 q 553 943 537 943 q 602 987 583 943 q 630 1122 621 1032 l 633 1136 l 681 1136 l 678 1117 q 634 952 667 1008 q 548 896 601 896 z "},"ń":{"ha":788,"x_min":101,"x_max":652,"o":"m 101 0 m 101 0 l 181 758 l 239 758 l 227 648 l 239 648 q 335 738 274 706 q 458 770 396 770 q 600 708 551 770 q 638 542 649 646 l 581 0 l 523 0 l 578 530 q 554 669 588 621 q 447 716 519 716 q 330 686 388 716 q 222 595 273 657 l 159 0 l 101 0 m 379 884 l 558 1136 l 652 1136 l 429 884 l 379 884 z "},"ņ":{"ha":788,"x_min":101,"x_max":649,"o":"m 101 0 m 177 -379 l 306 -126 l 399 -126 l 227 -379 l 177 -379 m 101 0 l 181 758 l 239 758 l 227 648 l 239 648 q 335 738 274 706 q 458 770 396 770 q 600 708 551 770 q 638 542 649 646 l 581 0 l 523 0 l 578 530 q 554 669 588 621 q 447 716 519 716 q 330 686 388 716 q 222 595 273 657 l 159 0 l 101 0 z "},"ň":{"ha":788,"x_min":101,"x_max":681,"o":"m 101 0 m 101 0 l 181 758 l 239 758 l 227 648 l 239 648 q 335 738 274 706 q 458 770 396 770 q 600 708 551 770 q 638 542 649 646 l 581 0 l 523 0 l 578 530 q 554 669 588 621 q 447 716 519 716 q 330 686 388 716 q 222 595 273 657 l 159 0 l 101 0 m 437 889 l 275 1102 l 303 1134 l 462 944 l 659 1134 l 681 1102 l 476 889 l 437 889 z "},"o":{"ha":788,"x_min":115,"x_max":646,"o":"m 340 -13 q 169 57 223 -13 q 128 258 115 128 l 153 495 q 237 699 167 628 q 423 770 307 770 q 592 699 538 770 q 633 495 646 628 l 607 258 q 525 57 595 128 q 340 -13 456 -13 m 345 40 q 487 94 437 40 q 549 258 538 148 l 574 495 q 548 663 587 609 q 417 717 509 717 q 274 663 324 717 q 211 495 223 609 l 186 258 q 213 94 174 148 q 345 40 253 40 z "},"ò":{"ha":788,"x_min":115,"x_max":646,"o":"m 115 0 m 340 -13 q 169 57 223 -13 q 128 258 115 128 l 153 495 q 237 699 167 628 q 423 770 307 770 q 592 699 538 770 q 633 495 646 628 l 607 258 q 525 57 595 128 q 340 -13 456 -13 m 345 40 q 487 94 437 40 q 549 258 538 148 l 574 495 q 548 663 587 609 q 417 717 509 717 q 274 663 324 717 q 211 495 223 609 l 186 258 q 213 94 174 148 q 345 40 253 40 m 458 884 l 288 1136 l 383 1136 l 508 884 l 458 884 z "},"ó":{"ha":788,"x_min":115,"x_max":646,"o":"m 115 0 m 340 -13 q 169 57 223 -13 q 128 258 115 128 l 153 495 q 237 699 167 628 q 423 770 307 770 q 592 699 538 770 q 633 495 646 628 l 607 258 q 525 57 595 128 q 340 -13 456 -13 m 345 40 q 487 94 437 40 q 549 258 538 148 l 574 495 q 548 663 587 609 q 417 717 509 717 q 274 663 324 717 q 211 495 223 609 l 186 258 q 213 94 174 148 q 345 40 253 40 m 357 884 l 537 1136 l 630 1136 l 408 884 l 357 884 z "},"ô":{"ha":788,"x_min":115,"x_max":646,"o":"m 115 0 m 340 -13 q 169 57 223 -13 q 128 258 115 128 l 153 495 q 237 699 167 628 q 423 770 307 770 q 592 699 538 770 q 633 495 646 628 l 607 258 q 525 57 595 128 q 340 -13 456 -13 m 345 40 q 487 94 437 40 q 549 258 538 148 l 574 495 q 548 663 587 609 q 417 717 509 717 q 274 663 324 717 q 211 495 223 609 l 186 258 q 213 94 174 148 q 345 40 253 40 m 259 913 l 237 944 l 442 1158 l 481 1158 l 643 944 l 615 913 l 456 1102 l 259 913 z "},"õ":{"ha":788,"x_min":115,"x_max":659,"o":"m 115 0 m 340 -13 q 169 57 223 -13 q 128 258 115 128 l 153 495 q 237 699 167 628 q 423 770 307 770 q 592 699 538 770 q 633 495 646 628 l 607 258 q 525 57 595 128 q 340 -13 456 -13 m 345 40 q 487 94 437 40 q 549 258 538 148 l 574 495 q 548 663 587 609 q 417 717 509 717 q 274 663 324 717 q 211 495 223 609 l 186 258 q 213 94 174 148 q 345 40 253 40 m 527 896 q 469 920 491 896 q 424 1013 447 944 q 397 1083 410 1064 q 366 1102 384 1102 q 315 1058 335 1102 q 288 923 295 1014 l 287 909 l 239 909 l 240 928 q 285 1093 251 1038 q 371 1149 318 1149 q 429 1126 408 1149 q 470 1040 451 1104 q 501 964 487 985 q 532 943 515 943 q 581 987 562 943 q 609 1122 600 1032 l 611 1136 l 659 1136 l 657 1117 q 612 952 645 1008 q 527 896 580 896 z "},"ö":{"ha":788,"x_min":115,"x_max":646,"o":"m 115 0 m 340 -13 q 169 57 223 -13 q 128 258 115 128 l 153 495 q 237 699 167 628 q 423 770 307 770 q 592 699 538 770 q 633 495 646 628 l 607 258 q 525 57 595 128 q 340 -13 456 -13 m 345 40 q 487 94 437 40 q 549 258 538 148 l 574 495 q 548 663 587 609 q 417 717 509 717 q 274 663 324 717 q 211 495 223 609 l 186 258 q 213 94 174 148 q 345 40 253 40 m 326 923 q 290 932 303 923 q 280 968 277 942 l 280 977 q 299 1015 284 1005 q 336 1025 313 1025 q 372 1015 359 1025 q 381 977 385 1005 l 381 968 q 362 932 378 942 q 326 923 347 923 m 551 923 q 515 932 528 923 q 505 968 501 942 l 505 977 q 523 1015 509 1005 q 561 1025 538 1025 q 597 1015 583 1025 q 606 977 610 1005 l 606 968 q 587 932 602 942 q 551 923 572 923 z "},"ō":{"ha":788,"x_min":115,"x_max":646,"o":"m 115 0 m 340 -13 q 169 57 223 -13 q 128 258 115 128 l 153 495 q 237 699 167 628 q 423 770 307 770 q 592 699 538 770 q 633 495 646 628 l 607 258 q 525 57 595 128 q 340 -13 456 -13 m 345 40 q 487 94 437 40 q 549 258 538 148 l 574 495 q 548 663 587 609 q 417 717 509 717 q 274 663 324 717 q 211 495 223 609 l 186 258 q 213 94 174 148 q 345 40 253 40 m 256 986 l 263 1040 l 639 1040 l 633 986 l 256 986 z "},"ŏ":{"ha":788,"x_min":115,"x_max":679,"o":"m 115 0 m 340 -13 q 169 57 223 -13 q 128 258 115 128 l 153 495 q 237 699 167 628 q 423 770 307 770 q 592 699 538 770 q 633 495 646 628 l 607 258 q 525 57 595 128 q 340 -13 456 -13 m 345 40 q 487 94 437 40 q 549 258 538 148 l 574 495 q 548 663 587 609 q 417 717 509 717 q 274 663 324 717 q 211 495 223 609 l 186 258 q 213 94 174 148 q 345 40 253 40 m 434 875 q 282 943 332 875 q 245 1136 232 1010 l 304 1136 q 326 978 293 1027 q 439 929 359 929 q 563 978 520 929 q 620 1136 606 1027 l 679 1136 q 600 943 664 1010 q 434 875 537 875 z "},"ő":{"ha":788,"x_min":115,"x_max":684,"o":"m 115 0 m 340 -13 q 169 57 223 -13 q 128 258 115 128 l 153 495 q 237 699 167 628 q 423 770 307 770 q 592 699 538 770 q 633 495 646 628 l 607 258 q 525 57 595 128 q 340 -13 456 -13 m 345 40 q 487 94 437 40 q 549 258 538 148 l 574 495 q 548 663 587 609 q 417 717 509 717 q 274 663 324 717 q 211 495 223 609 l 186 258 q 213 94 174 148 q 345 40 253 40 m 496 884 l 582 1136 l 684 1136 l 544 884 l 496 884 m 292 884 l 376 1136 l 479 1136 l 338 884 l 292 884 z "},"p":{"ha":788,"x_min":74,"x_max":646,"o":"m 336 38 q 485 93 433 38 q 551 263 538 148 l 576 500 q 554 664 587 610 q 441 717 520 717 q 330 689 381 717 q 222 595 279 660 l 169 91 q 247 51 205 63 q 336 38 289 38 m 332 -13 q 249 -3 295 -13 q 162 28 203 6 l 133 -253 l 74 -253 l 181 758 l 239 758 l 227 648 l 239 648 q 333 740 277 710 q 453 770 389 770 q 599 698 552 770 q 634 499 646 626 l 609 260 q 521 60 595 133 q 332 -13 448 -13 z "},"q":{"ha":788,"x_min":115,"x_max":655,"o":"m 496 -253 l 534 110 l 523 110 q 426 19 481 51 q 306 -13 370 -13 q 162 57 208 -13 q 128 250 115 126 l 153 497 q 240 697 167 624 q 431 770 313 770 q 555 751 496 770 q 655 703 614 732 l 554 -253 l 496 -253 m 321 40 q 431 69 380 40 q 540 163 482 98 l 593 674 q 517 708 559 696 q 426 720 475 720 q 277 664 330 720 q 211 495 223 607 l 187 263 q 208 95 174 149 q 321 40 241 40 z "},"r":{"ha":788,"x_min":153,"x_max":660,"o":"m 153 0 l 232 758 l 292 758 l 280 648 l 292 648 q 384 742 332 715 q 490 770 437 770 q 617 718 574 770 q 652 572 660 667 l 641 475 l 583 475 l 593 571 q 573 677 600 636 q 479 717 545 717 q 372 687 424 717 q 274 588 321 657 l 212 0 l 153 0 z "},"ŕ":{"ha":788,"x_min":153,"x_max":670,"o":"m 153 0 m 153 0 l 232 758 l 292 758 l 280 648 l 292 648 q 384 742 332 715 q 490 770 437 770 q 617 718 574 770 q 652 572 660 667 l 641 475 l 583 475 l 593 571 q 573 677 600 636 q 479 717 545 717 q 372 687 424 717 q 274 588 321 657 l 212 0 l 153 0 m 398 884 l 577 1136 l 670 1136 l 448 884 l 398 884 z "},"ŗ":{"ha":788,"x_min":34,"x_max":660,"o":"m 34 0 m 153 0 l 232 758 l 292 758 l 280 648 l 292 648 q 384 742 332 715 q 490 770 437 770 q 617 718 574 770 q 652 572 660 667 l 641 475 l 583 475 l 593 571 q 573 677 600 636 q 479 717 545 717 q 372 687 424 717 q 274 588 321 657 l 212 0 l 153 0 m 34 -379 l 163 -126 l 256 -126 l 85 -379 l 34 -379 z "},"ř":{"ha":788,"x_min":153,"x_max":699,"o":"m 153 0 m 153 0 l 232 758 l 292 758 l 280 648 l 292 648 q 384 742 332 715 q 490 770 437 770 q 617 718 574 770 q 652 572 660 667 l 641 475 l 583 475 l 593 571 q 573 677 600 636 q 479 717 545 717 q 372 687 424 717 q 274 588 321 657 l 212 0 l 153 0 m 456 889 l 294 1102 l 322 1134 l 481 944 l 678 1134 l 699 1102 l 495 889 l 456 889 z "},"s":{"ha":788,"x_min":87,"x_max":629,"o":"m 345 -13 q 209 10 278 -13 q 87 80 140 33 l 122 128 q 231 62 170 85 q 350 40 292 40 q 485 81 432 40 q 547 192 539 121 q 517 290 553 256 q 367 352 481 323 q 201 430 250 381 q 160 561 152 479 q 237 713 170 655 q 400 770 303 770 q 523 748 465 770 q 629 687 582 726 l 595 640 q 504 696 556 674 q 395 717 453 717 q 274 677 322 717 q 218 568 226 638 q 248 467 212 500 q 396 407 284 434 q 565 328 515 378 q 606 197 615 278 q 524 45 597 104 q 345 -13 451 -13 z "},"":{"ha":788,"x_min":87,"x_max":629,"o":"m 345 -13 q 209 10 278 -13 q 87 80 140 33 l 122 128 q 231 62 170 85 q 350 40 292 40 q 485 81 432 40 q 547 192 539 121 q 517 290 553 256 q 367 352 481 323 q 201 430 250 381 q 160 561 152 479 q 237 713 170 655 q 400 770 303 770 q 523 748 465 770 q 629 687 582 726 l 595 640 q 504 696 556 674 q 395 717 453 717 q 274 677 322 717 q 218 568 226 638 q 248 467 212 500 q 396 407 284 434 q 565 328 515 378 q 606 197 615 278 q 524 45 597 104 q 345 -13 451 -13 z "},"ś":{"ha":788,"x_min":87,"x_max":630,"o":"m 87 0 m 345 -13 q 209 10 278 -13 q 87 80 140 33 l 122 128 q 231 62 170 85 q 350 40 292 40 q 485 81 432 40 q 547 192 539 121 q 517 290 553 256 q 367 352 481 323 q 201 430 250 381 q 160 561 152 479 q 237 713 170 655 q 400 770 303 770 q 523 748 465 770 q 629 687 582 726 l 595 640 q 504 696 556 674 q 395 717 453 717 q 274 677 322 717 q 218 568 226 638 q 248 467 212 500 q 396 407 284 434 q 565 328 515 378 q 606 197 615 278 q 524 45 597 104 q 345 -13 451 -13 m 357 884 l 537 1136 l 630 1136 l 408 884 l 357 884 z "},"ŝ":{"ha":788,"x_min":87,"x_max":640,"o":"m 87 0 m 345 -13 q 209 10 278 -13 q 87 80 140 33 l 122 128 q 231 62 170 85 q 350 40 292 40 q 485 81 432 40 q 547 192 539 121 q 517 290 553 256 q 367 352 481 323 q 201 430 250 381 q 160 561 152 479 q 237 713 170 655 q 400 770 303 770 q 523 748 465 770 q 629 687 582 726 l 595 640 q 504 696 556 674 q 395 717 453 717 q 274 677 322 717 q 218 568 226 638 q 248 467 212 500 q 396 407 284 434 q 565 328 515 378 q 606 197 615 278 q 524 45 597 104 q 345 -13 451 -13 m 256 913 l 235 944 l 439 1158 l 479 1158 l 640 944 l 612 913 l 453 1102 l 256 913 z "},"ş":{"ha":788,"x_min":87,"x_max":629,"o":"m 87 0 m 345 -13 q 209 10 278 -13 q 87 80 140 33 l 122 128 q 231 62 170 85 q 350 40 292 40 q 485 81 432 40 q 547 192 539 121 q 517 290 553 256 q 367 352 481 323 q 201 430 250 381 q 160 561 152 479 q 237 713 170 655 q 400 770 303 770 q 523 748 465 770 q 629 687 582 726 l 595 640 q 504 696 556 674 q 395 717 453 717 q 274 677 322 717 q 218 568 226 638 q 248 467 212 500 q 396 407 284 434 q 565 328 515 378 q 606 197 615 278 q 524 45 597 104 q 345 -13 451 -13 m 306 0 l 321 27 q 410 -28 380 13 q 434 -129 441 -69 q 384 -234 428 -196 q 274 -273 341 -273 q 178 -241 212 -273 q 146 -133 144 -208 l 203 -128 q 218 -201 202 -179 q 274 -223 235 -223 q 347 -201 324 -223 q 376 -125 370 -179 q 366 -45 381 -74 q 306 0 350 -16 z "},"š":{"ha":788,"x_min":87,"x_max":657,"o":"m 87 0 m 345 -13 q 209 10 278 -13 q 87 80 140 33 l 122 128 q 231 62 170 85 q 350 40 292 40 q 485 81 432 40 q 547 192 539 121 q 517 290 553 256 q 367 352 481 323 q 201 430 250 381 q 160 561 152 479 q 237 713 170 655 q 400 770 303 770 q 523 748 465 770 q 629 687 582 726 l 595 640 q 504 696 556 674 q 395 717 453 717 q 274 677 322 717 q 218 568 226 638 q 248 467 212 500 q 396 407 284 434 q 565 328 515 378 q 606 197 615 278 q 524 45 597 104 q 345 -13 451 -13 m 413 889 l 251 1102 l 279 1134 l 438 944 l 635 1134 l 657 1102 l 452 889 l 413 889 z "},"ș":{"ha":788,"x_min":87,"x_max":629,"o":"m 87 0 m 345 -13 q 209 10 278 -13 q 87 80 140 33 l 122 128 q 231 62 170 85 q 350 40 292 40 q 485 81 432 40 q 547 192 539 121 q 517 290 553 256 q 367 352 481 323 q 201 430 250 381 q 160 561 152 479 q 237 713 170 655 q 400 770 303 770 q 523 748 465 770 q 629 687 582 726 l 595 640 q 504 696 556 674 q 395 717 453 717 q 274 677 322 717 q 218 568 226 638 q 248 467 212 500 q 396 407 284 434 q 565 328 515 378 q 606 197 615 278 q 524 45 597 104 q 345 -13 451 -13 m 157 -379 l 285 -126 l 379 -126 l 207 -379 l 157 -379 z "},"t":{"ha":788,"x_min":143,"x_max":660,"o":"m 453 -11 q 308 55 356 -11 q 273 236 260 121 l 322 705 l 143 705 l 148 758 l 327 758 l 354 1010 l 413 1010 l 386 758 l 660 758 l 655 705 l 381 705 l 333 247 q 355 93 322 144 q 466 43 388 43 q 525 51 494 43 q 588 74 557 59 l 597 23 q 525 -3 562 6 q 453 -11 487 -11 z "},"ţ":{"ha":788,"x_min":143,"x_max":660,"o":"m 143 0 m 453 -11 q 308 55 356 -11 q 273 236 260 121 l 322 705 l 143 705 l 148 758 l 327 758 l 354 1010 l 413 1010 l 386 758 l 660 758 l 655 705 l 381 705 l 333 247 q 355 93 322 144 q 466 43 388 43 q 525 51 494 43 q 588 74 557 59 l 597 23 q 525 -3 562 6 q 453 -11 487 -11 m 375 0 l 390 27 q 480 -28 449 13 q 504 -129 510 -69 q 454 -234 497 -196 q 343 -273 410 -273 q 247 -241 282 -273 q 216 -133 213 -208 l 273 -128 q 288 -201 271 -179 q 343 -223 304 -223 q 417 -201 394 -223 q 446 -125 439 -179 q 435 -45 451 -74 q 375 0 419 -16 z "},"ť":{"ha":788,"x_min":143,"x_max":742,"o":"m 143 0 m 453 -11 q 308 55 356 -11 q 273 236 260 121 l 322 705 l 143 705 l 148 758 l 327 758 l 354 1010 l 413 1010 l 386 758 l 660 758 l 655 705 l 381 705 l 333 247 q 355 93 322 144 q 466 43 388 43 q 525 51 494 43 q 588 74 557 59 l 597 23 q 525 -3 562 6 q 453 -11 487 -11 m 544 957 l 660 1263 l 742 1263 l 592 957 l 544 957 z "},"ț":{"ha":788,"x_min":143,"x_max":660,"o":"m 143 0 m 453 -11 q 308 55 356 -11 q 273 236 260 121 l 322 705 l 143 705 l 148 758 l 327 758 l 354 1010 l 413 1010 l 386 758 l 660 758 l 655 705 l 381 705 l 333 247 q 355 93 322 144 q 466 43 388 43 q 525 51 494 43 q 588 74 557 59 l 597 23 q 525 -3 562 6 q 453 -11 487 -11 m 181 -379 l 309 -126 l 403 -126 l 231 -379 l 181 -379 z "},"u":{"ha":788,"x_min":112,"x_max":660,"o":"m 302 -13 q 162 51 211 -13 q 124 221 112 114 l 181 758 l 239 758 l 184 236 q 208 92 174 141 q 316 42 242 42 q 430 71 372 42 q 540 163 487 100 l 602 758 l 660 758 l 581 0 l 523 0 l 534 110 l 523 110 q 424 19 482 51 q 302 -13 366 -13 z "},"ù":{"ha":788,"x_min":112,"x_max":660,"o":"m 112 0 m 302 -13 q 162 51 211 -13 q 124 221 112 114 l 181 758 l 239 758 l 184 236 q 208 92 174 141 q 316 42 242 42 q 430 71 372 42 q 540 163 487 100 l 602 758 l 660 758 l 581 0 l 523 0 l 534 110 l 523 110 q 424 19 482 51 q 302 -13 366 -13 m 432 884 l 261 1136 l 356 1136 l 481 884 l 432 884 z "},"ú":{"ha":788,"x_min":112,"x_max":673,"o":"m 112 0 m 302 -13 q 162 51 211 -13 q 124 221 112 114 l 181 758 l 239 758 l 184 236 q 208 92 174 141 q 316 42 242 42 q 430 71 372 42 q 540 163 487 100 l 602 758 l 660 758 l 581 0 l 523 0 l 534 110 l 523 110 q 424 19 482 51 q 302 -13 366 -13 m 400 884 l 580 1136 l 673 1136 l 451 884 l 400 884 z "},"û":{"ha":788,"x_min":112,"x_max":660,"o":"m 112 0 m 302 -13 q 162 51 211 -13 q 124 221 112 114 l 181 758 l 239 758 l 184 236 q 208 92 174 141 q 316 42 242 42 q 430 71 372 42 q 540 163 487 100 l 602 758 l 660 758 l 581 0 l 523 0 l 534 110 l 523 110 q 424 19 482 51 q 302 -13 366 -13 m 260 913 l 239 944 l 443 1158 l 482 1158 l 644 944 l 616 913 l 457 1102 l 260 913 z "},"ü":{"ha":788,"x_min":112,"x_max":660,"o":"m 112 0 m 302 -13 q 162 51 211 -13 q 124 221 112 114 l 181 758 l 239 758 l 184 236 q 208 92 174 141 q 316 42 242 42 q 430 71 372 42 q 540 163 487 100 l 602 758 l 660 758 l 581 0 l 523 0 l 534 110 l 523 110 q 424 19 482 51 q 302 -13 366 -13 m 327 923 q 291 932 304 923 q 282 968 278 942 l 282 977 q 300 1015 285 1005 q 337 1025 314 1025 q 373 1015 360 1025 q 383 977 386 1005 l 383 968 q 364 932 379 942 q 327 923 348 923 m 552 923 q 516 932 529 923 q 506 968 503 942 l 506 977 q 525 1015 510 1005 q 562 1025 539 1025 q 598 1015 585 1025 q 607 977 611 1005 l 607 968 q 588 932 604 942 q 552 923 573 923 z "},"ũ":{"ha":788,"x_min":112,"x_max":660,"o":"m 112 0 m 302 -13 q 162 51 211 -13 q 124 221 112 114 l 181 758 l 239 758 l 184 236 q 208 92 174 141 q 316 42 242 42 q 430 71 372 42 q 540 163 487 100 l 602 758 l 660 758 l 581 0 l 523 0 l 534 110 l 523 110 q 424 19 482 51 q 302 -13 366 -13 m 527 896 q 469 920 491 896 q 424 1013 447 944 q 397 1083 410 1064 q 366 1102 384 1102 q 315 1058 335 1102 q 288 923 295 1014 l 287 909 l 239 909 l 240 928 q 285 1093 251 1038 q 371 1149 318 1149 q 429 1126 408 1149 q 470 1040 451 1104 q 501 964 487 985 q 532 943 515 943 q 581 987 562 943 q 609 1122 600 1032 l 611 1136 l 659 1136 l 657 1117 q 612 952 645 1008 q 527 896 580 896 z "},"ū":{"ha":788,"x_min":112,"x_max":660,"o":"m 112 0 m 302 -13 q 162 51 211 -13 q 124 221 112 114 l 181 758 l 239 758 l 184 236 q 208 92 174 141 q 316 42 242 42 q 430 71 372 42 q 540 163 487 100 l 602 758 l 660 758 l 581 0 l 523 0 l 534 110 l 523 110 q 424 19 482 51 q 302 -13 366 -13 m 256 986 l 263 1040 l 639 1040 l 633 986 l 256 986 z "},"ŭ":{"ha":788,"x_min":112,"x_max":679,"o":"m 112 0 m 302 -13 q 162 51 211 -13 q 124 221 112 114 l 181 758 l 239 758 l 184 236 q 208 92 174 141 q 316 42 242 42 q 430 71 372 42 q 540 163 487 100 l 602 758 l 660 758 l 581 0 l 523 0 l 534 110 l 523 110 q 424 19 482 51 q 302 -13 366 -13 m 434 875 q 282 943 332 875 q 245 1136 232 1010 l 304 1136 q 326 978 293 1027 q 439 929 359 929 q 563 978 520 929 q 620 1136 606 1027 l 679 1136 q 600 943 664 1010 q 434 875 537 875 z "},"ů":{"ha":788,"x_min":112,"x_max":660,"o":"m 112 0 m 302 -13 q 162 51 211 -13 q 124 221 112 114 l 181 758 l 239 758 l 184 236 q 208 92 174 141 q 316 42 242 42 q 430 71 372 42 q 540 163 487 100 l 602 758 l 660 758 l 581 0 l 523 0 l 534 110 l 523 110 q 424 19 482 51 q 302 -13 366 -13 m 433 865 q 326 910 361 865 q 302 1039 292 955 l 307 1097 q 360 1229 316 1183 q 476 1275 404 1275 q 582 1229 548 1275 q 607 1097 616 1183 l 602 1039 q 549 910 592 955 q 433 865 505 865 m 438 914 q 515 944 489 914 q 548 1039 540 975 l 553 1097 q 541 1195 561 1164 q 471 1226 521 1226 q 395 1195 420 1226 q 361 1097 369 1164 l 356 1039 q 368 944 348 975 q 438 914 388 914 z "},"ű":{"ha":788,"x_min":112,"x_max":703,"o":"m 112 0 m 302 -13 q 162 51 211 -13 q 124 221 112 114 l 181 758 l 239 758 l 184 236 q 208 92 174 141 q 316 42 242 42 q 430 71 372 42 q 540 163 487 100 l 602 758 l 660 758 l 581 0 l 523 0 l 534 110 l 523 110 q 424 19 482 51 q 302 -13 366 -13 m 515 884 l 601 1136 l 703 1136 l 563 884 l 515 884 m 311 884 l 395 1136 l 497 1136 l 357 884 l 311 884 z "},"ų":{"ha":788,"x_min":112,"x_max":660,"o":"m 112 0 m 558 -271 q 461 -234 495 -271 q 433 -135 427 -197 q 477 -33 438 -81 q 574 42 515 14 l 588 29 q 520 -38 543 -3 q 492 -119 497 -73 q 506 -195 487 -172 q 572 -218 525 -218 q 612 -216 592 -218 q 653 -208 631 -213 l 646 -261 q 602 -269 626 -266 q 558 -271 577 -271 m 302 -13 q 162 51 211 -13 q 124 221 112 114 l 181 758 l 239 758 l 184 236 q 208 92 174 141 q 316 42 242 42 q 430 71 372 42 q 540 163 487 100 l 602 758 l 660 758 l 581 0 l 523 0 l 534 110 l 523 110 q 424 19 482 51 q 302 -13 366 -13 z "},"v":{"ha":788,"x_min":153,"x_max":687,"o":"m 374 0 l 306 0 l 153 758 l 213 758 l 346 66 l 626 758 l 687 758 l 374 0 z "},"w":{"ha":788,"x_min":102,"x_max":740,"o":"m 461 0 l 398 537 l 225 0 l 159 0 l 102 758 l 160 758 l 203 91 l 370 631 l 439 631 l 501 107 l 678 758 l 740 758 l 523 0 l 461 0 z "},"":{"ha":788,"x_min":102,"x_max":740,"o":"m 461 0 l 398 537 l 225 0 l 159 0 l 102 758 l 160 758 l 203 91 l 370 631 l 439 631 l 501 107 l 678 758 l 740 758 l 523 0 l 461 0 z "},"ŵ":{"ha":788,"x_min":102,"x_max":740,"o":"m 102 0 m 461 0 l 398 537 l 225 0 l 159 0 l 102 758 l 160 758 l 203 91 l 370 631 l 439 631 l 501 107 l 678 758 l 740 758 l 523 0 l 461 0 m 260 913 l 239 944 l 443 1158 l 482 1158 l 644 944 l 616 913 l 457 1102 l 260 913 z "},"ẁ":{"ha":788,"x_min":102,"x_max":740,"o":"m 102 0 m 461 0 l 398 537 l 225 0 l 159 0 l 102 758 l 160 758 l 203 91 l 370 631 l 439 631 l 501 107 l 678 758 l 740 758 l 523 0 l 461 0 m 458 884 l 288 1136 l 383 1136 l 508 884 l 458 884 z "},"ẃ":{"ha":788,"x_min":102,"x_max":740,"o":"m 102 0 m 461 0 l 398 537 l 225 0 l 159 0 l 102 758 l 160 758 l 203 91 l 370 631 l 439 631 l 501 107 l 678 758 l 740 758 l 523 0 l 461 0 m 364 884 l 543 1136 l 636 1136 l 414 884 l 364 884 z "},"ẅ":{"ha":788,"x_min":102,"x_max":740,"o":"m 102 0 m 461 0 l 398 537 l 225 0 l 159 0 l 102 758 l 160 758 l 203 91 l 370 631 l 439 631 l 501 107 l 678 758 l 740 758 l 523 0 l 461 0 m 327 923 q 291 932 304 923 q 282 968 278 942 l 282 977 q 300 1015 285 1005 q 337 1025 314 1025 q 373 1015 360 1025 q 383 977 386 1005 l 383 968 q 364 932 379 942 q 327 923 348 923 m 552 923 q 516 932 529 923 q 506 968 503 942 l 506 977 q 525 1015 510 1005 q 562 1025 539 1025 q 598 1015 585 1025 q 607 977 611 1005 l 607 968 q 588 932 604 942 q 552 923 573 923 z "},"x":{"ha":788,"x_min":88,"x_max":673,"o":"m 528 0 l 376 338 l 150 0 l 88 0 l 352 391 l 187 758 l 249 758 l 393 437 l 611 758 l 673 758 l 418 384 l 590 0 l 528 0 z "},"y":{"ha":788,"x_min":52,"x_max":688,"o":"m 128 -260 q 93 -258 111 -260 q 52 -250 76 -255 l 64 -198 q 104 -206 86 -203 q 145 -208 121 -208 q 232 -177 198 -208 q 302 -61 266 -146 l 324 0 l 309 0 l 153 758 l 215 758 l 352 67 l 628 758 l 688 758 l 350 -73 q 255 -218 307 -176 q 128 -260 203 -260 z "},"":{"ha":788,"x_min":52,"x_max":688,"o":"m 128 -260 q 93 -258 111 -260 q 52 -250 76 -255 l 64 -198 q 104 -206 86 -203 q 145 -208 121 -208 q 232 -177 198 -208 q 302 -61 266 -146 l 324 0 l 309 0 l 153 758 l 215 758 l 352 67 l 628 758 l 688 758 l 350 -73 q 255 -218 307 -176 q 128 -260 203 -260 z "},"ý":{"ha":788,"x_min":52,"x_max":688,"o":"m 52 0 m 128 -260 q 93 -258 111 -260 q 52 -250 76 -255 l 64 -198 q 104 -206 86 -203 q 145 -208 121 -208 q 232 -177 198 -208 q 302 -61 266 -146 l 324 0 l 309 0 l 153 758 l 215 758 l 352 67 l 628 758 l 688 758 l 350 -73 q 255 -218 307 -176 q 128 -260 203 -260 m 357 884 l 537 1136 l 630 1136 l 408 884 l 357 884 z "},"ÿ":{"ha":788,"x_min":52,"x_max":688,"o":"m 52 0 m 128 -260 q 93 -258 111 -260 q 52 -250 76 -255 l 64 -198 q 104 -206 86 -203 q 145 -208 121 -208 q 232 -177 198 -208 q 302 -61 266 -146 l 324 0 l 309 0 l 153 758 l 215 758 l 352 67 l 628 758 l 688 758 l 350 -73 q 255 -218 307 -176 q 128 -260 203 -260 m 326 923 q 290 932 303 923 q 280 968 277 942 l 280 977 q 299 1015 284 1005 q 336 1025 313 1025 q 372 1015 359 1025 q 381 977 385 1005 l 381 968 q 362 932 378 942 q 326 923 347 923 m 551 923 q 515 932 528 923 q 505 968 501 942 l 505 977 q 523 1015 509 1005 q 561 1025 538 1025 q 597 1015 583 1025 q 606 977 610 1005 l 606 968 q 587 932 602 942 q 551 923 572 923 z "},"ŷ":{"ha":788,"x_min":52,"x_max":688,"o":"m 52 0 m 128 -260 q 93 -258 111 -260 q 52 -250 76 -255 l 64 -198 q 104 -206 86 -203 q 145 -208 121 -208 q 232 -177 198 -208 q 302 -61 266 -146 l 324 0 l 309 0 l 153 758 l 215 758 l 352 67 l 628 758 l 688 758 l 350 -73 q 255 -218 307 -176 q 128 -260 203 -260 m 259 913 l 237 944 l 442 1158 l 481 1158 l 643 944 l 615 913 l 456 1102 l 259 913 z "},"ỳ":{"ha":788,"x_min":52,"x_max":688,"o":"m 52 0 m 128 -260 q 93 -258 111 -260 q 52 -250 76 -255 l 64 -198 q 104 -206 86 -203 q 145 -208 121 -208 q 232 -177 198 -208 q 302 -61 266 -146 l 324 0 l 309 0 l 153 758 l 215 758 l 352 67 l 628 758 l 688 758 l 350 -73 q 255 -218 307 -176 q 128 -260 203 -260 m 458 884 l 288 1136 l 383 1136 l 508 884 l 458 884 z "},"z":{"ha":788,"x_min":121,"x_max":640,"o":"m 561 0 l 121 0 l 126 53 l 569 705 l 196 705 l 201 758 l 640 758 l 635 705 l 189 53 l 566 53 l 561 0 z "},"ź":{"ha":788,"x_min":121,"x_max":640,"o":"m 121 0 m 561 0 l 121 0 l 126 53 l 569 705 l 196 705 l 201 758 l 640 758 l 635 705 l 189 53 l 566 53 l 561 0 m 364 884 l 543 1136 l 636 1136 l 414 884 l 364 884 z "},"ż":{"ha":788,"x_min":121,"x_max":640,"o":"m 121 0 m 561 0 l 121 0 l 126 53 l 569 705 l 196 705 l 201 758 l 640 758 l 635 705 l 189 53 l 566 53 l 561 0 m 444 923 q 405 933 419 923 q 393 968 390 943 l 393 977 q 413 1015 396 1004 q 455 1025 429 1025 q 495 1015 480 1025 q 506 977 510 1004 l 506 968 q 486 933 504 943 q 444 923 468 923 z "},"ž":{"ha":788,"x_min":121,"x_max":657,"o":"m 121 0 m 561 0 l 121 0 l 126 53 l 569 705 l 196 705 l 201 758 l 640 758 l 635 705 l 189 53 l 566 53 l 561 0 m 413 889 l 251 1102 l 279 1134 l 438 944 l 635 1134 l 657 1102 l 452 889 l 413 889 z "},"ª":{"ha":788,"x_min":159,"x_max":635,"o":"m 326 456 q 421 478 380 456 q 489 534 462 500 l 504 678 l 341 678 q 256 654 285 678 q 222 580 227 630 q 241 486 216 516 q 326 456 265 456 m 308 405 q 198 451 236 405 q 168 573 159 496 q 219 681 174 641 q 321 721 264 721 l 509 721 l 519 812 q 497 931 527 889 q 404 972 468 972 q 314 949 343 972 q 261 860 285 926 l 216 878 q 287 988 239 953 q 413 1023 335 1023 q 540 970 497 1023 q 573 824 582 918 l 545 559 q 557 481 539 500 q 635 471 576 462 l 629 412 q 536 427 564 405 q 511 508 508 449 l 503 508 q 420 433 470 461 q 308 405 371 405 z "},"º":{"ha":788,"x_min":187,"x_max":645,"o":"m 384 405 q 235 467 284 405 q 198 639 187 528 l 213 783 q 287 961 226 899 q 448 1023 348 1023 q 597 961 548 1023 q 633 783 645 899 l 617 639 q 545 467 606 528 q 384 405 484 405 m 389 460 q 509 503 467 460 q 559 639 551 547 l 574 783 q 553 924 585 879 q 443 968 521 968 q 323 924 365 968 q 270 783 280 879 l 255 639 q 278 503 246 547 q 389 460 311 460 z "},"ß":{"ha":788,"x_min":21,"x_max":701,"o":"m 461 -8 q 348 14 400 -8 q 260 72 295 35 l 295 119 q 374 64 331 83 q 468 45 417 45 q 583 83 540 45 q 633 189 625 120 q 610 287 639 254 q 494 347 582 319 q 345 425 388 380 q 312 548 303 470 q 391 686 321 634 q 561 744 461 739 q 530 910 571 854 q 395 967 489 967 q 249 908 302 967 q 183 727 196 848 l 80 -253 l 21 -253 l 126 744 q 213 946 140 872 q 402 1020 287 1020 q 575 948 516 1020 q 620 747 634 875 l 615 694 q 439 660 499 694 q 371 551 379 625 q 395 460 365 491 q 519 400 426 429 q 661 323 621 369 q 692 192 701 277 q 619 47 682 101 q 461 -8 556 -8 z "},"æ":{"ha":788,"x_min":32,"x_max":727,"o":"m 672 154 q 607 28 649 69 q 489 -13 564 -13 q 405 15 438 -13 q 359 92 371 43 l 351 92 q 273 16 318 45 q 174 -13 227 -13 q 68 44 105 -13 q 43 203 32 101 q 102 343 52 289 q 222 396 153 396 l 359 396 l 372 534 q 359 667 381 617 q 279 716 337 716 q 202 689 229 716 q 153 595 176 662 l 104 611 q 170 729 124 687 q 284 770 216 770 q 374 739 337 770 q 417 654 410 708 q 481 739 439 707 q 569 770 523 770 q 687 710 646 770 q 715 523 727 649 l 698 374 l 413 374 l 396 221 q 410 84 388 126 q 491 42 433 42 q 573 68 545 42 q 620 168 600 95 l 672 154 m 429 532 l 418 424 l 645 424 l 655 520 q 644 669 667 622 q 563 716 621 716 q 473 670 508 716 q 429 532 439 625 m 330 117 l 354 348 l 230 348 q 141 313 174 348 q 102 211 109 278 q 114 81 92 124 q 188 39 135 39 q 265 61 229 39 q 330 117 302 82 z "},"ǽ":{"ha":788,"x_min":32,"x_max":727,"o":"m 32 0 m 672 154 q 607 28 649 69 q 489 -13 564 -13 q 405 15 438 -13 q 359 92 371 43 l 351 92 q 273 16 318 45 q 174 -13 227 -13 q 68 44 105 -13 q 43 203 32 101 q 102 343 52 289 q 222 396 153 396 l 359 396 l 372 534 q 359 667 381 617 q 279 716 337 716 q 202 689 229 716 q 153 595 176 662 l 104 611 q 170 729 124 687 q 284 770 216 770 q 374 739 337 770 q 417 654 410 708 q 481 739 439 707 q 569 770 523 770 q 687 710 646 770 q 715 523 727 649 l 698 374 l 413 374 l 396 221 q 410 84 388 126 q 491 42 433 42 q 573 68 545 42 q 620 168 600 95 l 672 154 m 429 532 l 418 424 l 645 424 l 655 520 q 644 669 667 622 q 563 716 621 716 q 473 670 508 716 q 429 532 439 625 m 330 117 l 354 348 l 230 348 q 141 313 174 348 q 102 211 109 278 q 114 81 92 124 q 188 39 135 39 q 265 61 229 39 q 330 117 302 82 m 417 884 l 596 1136 l 689 1136 l 467 884 l 417 884 z "},"ð":{"ha":788,"x_min":115,"x_max":732,"o":"m 340 -13 q 170 59 226 -13 q 129 269 115 130 l 140 378 q 225 563 153 495 q 403 631 298 631 q 521 600 477 631 q 580 524 566 568 l 587 524 q 580 690 592 615 q 533 826 567 765 l 335 722 l 340 769 l 509 859 q 425 939 476 907 q 307 992 374 971 l 328 1037 q 460 974 403 1013 q 554 881 518 936 l 732 973 l 727 927 l 578 850 q 629 685 616 778 q 631 476 643 592 l 610 277 q 524 59 595 131 q 340 -13 453 -13 m 346 40 q 489 95 441 40 q 551 266 538 149 l 561 364 q 535 526 573 475 q 403 577 497 577 q 260 526 308 577 q 199 364 212 475 l 189 266 q 214 95 177 149 q 346 40 251 40 z "},"ø":{"ha":788,"x_min":104,"x_max":658,"o":"m 186 258 q 188 161 181 201 q 212 96 194 121 l 514 689 q 472 710 496 703 q 417 717 447 717 q 275 663 327 717 q 211 495 223 609 l 186 258 m 345 40 q 487 91 436 40 q 549 258 538 141 l 574 495 q 574 591 581 551 q 549 659 567 631 l 247 66 q 290 47 266 53 q 345 40 314 40 m 340 -13 q 274 -5 304 -13 q 220 19 244 3 l 160 -93 l 104 -93 l 181 44 q 134 131 149 78 q 128 258 120 184 l 153 495 q 240 702 168 634 q 423 770 312 770 q 489 763 458 770 q 542 739 519 755 l 602 851 l 658 851 l 582 712 q 627 623 614 677 q 633 495 640 569 l 607 258 q 522 54 593 120 q 340 -13 451 -13 z "},"ǿ":{"ha":788,"x_min":104,"x_max":658,"o":"m 104 0 m 186 258 q 188 161 181 201 q 212 96 194 121 l 514 689 q 472 710 496 703 q 417 717 447 717 q 275 663 327 717 q 211 495 223 609 l 186 258 m 345 40 q 487 91 436 40 q 549 258 538 141 l 574 495 q 574 591 581 551 q 549 659 567 631 l 247 66 q 290 47 266 53 q 345 40 314 40 m 340 -13 q 274 -5 304 -13 q 220 19 244 3 l 160 -93 l 104 -93 l 181 44 q 134 131 149 78 q 128 258 120 184 l 153 495 q 240 702 168 634 q 423 770 312 770 q 489 763 458 770 q 542 739 519 755 l 602 851 l 658 851 l 582 712 q 627 623 614 677 q 633 495 640 569 l 607 258 q 522 54 593 120 q 340 -13 451 -13 m 364 884 l 543 1136 l 636 1136 l 414 884 l 364 884 z "},"þ":{"ha":788,"x_min":74,"x_max":646,"o":"m 336 38 q 485 93 433 38 q 551 263 538 148 l 576 500 q 554 664 587 610 q 441 717 520 717 q 330 689 381 717 q 222 595 279 660 l 169 91 q 247 51 205 63 q 336 38 289 38 m 332 -13 q 249 -3 295 -13 q 162 28 203 6 l 133 -253 l 74 -253 l 207 1010 l 265 1010 l 227 648 l 239 648 q 333 740 277 710 q 453 770 389 770 q 599 698 552 770 q 634 499 646 626 l 609 260 q 521 60 595 133 q 332 -13 448 -13 z "},"đ":{"ha":788,"x_min":114,"x_max":779,"o":"m 317 40 q 431 69 380 40 q 540 163 482 98 l 586 606 q 507 643 548 630 q 419 657 466 657 q 270 604 321 657 q 208 451 218 551 l 186 239 q 208 89 174 138 q 317 40 241 40 m 521 105 q 427 17 480 47 q 302 -13 374 -13 q 160 53 206 -13 q 126 240 114 119 l 149 453 q 232 639 162 571 q 424 707 303 707 q 511 695 465 707 q 592 665 557 683 l 609 821 l 398 821 l 404 875 l 615 875 l 629 1010 l 687 1010 l 673 875 l 779 875 l 773 821 l 667 821 l 581 0 l 523 0 l 534 105 l 521 105 z "},"ħ":{"ha":788,"x_min":81,"x_max":643,"o":"m 215 529 l 159 0 l 101 0 l 187 821 l 81 821 l 87 875 l 193 875 l 207 1010 l 265 1010 l 251 875 l 462 875 l 456 821 l 245 821 l 221 585 l 232 585 q 331 676 274 645 q 453 707 388 707 q 593 646 543 707 q 631 479 643 585 l 581 0 l 523 0 l 572 465 q 544 605 581 558 q 439 653 508 653 q 328 625 380 653 q 215 529 275 597 z "},"ı":{"ha":788,"x_min":101,"x_max":586,"o":"m 101 0 l 106 53 l 317 53 l 386 705 l 176 705 l 181 758 l 449 758 l 375 53 l 586 53 l 581 0 l 101 0 z "},"ĳ":{"ha":788,"x_min":121,"x_max":710,"o":"m 247 923 q 208 933 222 923 q 196 968 193 943 l 196 977 q 216 1015 199 1004 q 258 1025 232 1025 q 299 1015 284 1025 q 311 977 314 1004 l 311 968 q 290 933 308 943 q 247 923 273 923 m 644 923 q 604 933 619 923 q 591 968 588 943 l 591 977 q 612 1015 595 1004 q 654 1025 629 1025 q 694 1015 679 1025 q 706 977 710 1004 l 706 968 q 686 933 703 943 q 644 923 668 923 m 181 0 l 121 0 l 201 758 l 260 758 l 181 0 m 357 -263 q 299 -256 328 -263 q 241 -237 269 -250 l 260 -184 q 314 -204 287 -199 q 365 -208 341 -208 q 472 -160 432 -208 q 521 -14 511 -112 l 597 705 l 460 705 l 465 758 l 662 758 l 580 -24 q 508 -199 568 -136 q 357 -263 448 -263 z "},"ĸ":{"ha":788,"x_min":154,"x_max":677,"o":"m 154 0 m 251 371 l 212 0 l 154 0 l 234 758 l 292 758 l 256 424 l 355 424 l 607 758 l 677 758 l 403 403 l 593 0 l 529 0 l 355 371 l 251 371 z "},"ŀ":{"ha":788,"x_min":101,"x_max":846,"o":"m 101 0 m 101 0 l 106 53 l 317 53 l 413 957 l 202 957 l 207 1010 l 476 1010 l 375 53 l 586 53 l 581 0 l 101 0 m 780 413 q 741 423 755 413 q 729 458 726 433 l 729 467 q 749 504 732 494 q 790 515 765 515 q 831 504 816 515 q 842 467 846 494 l 842 458 q 822 423 840 433 q 780 413 804 413 z "},"ł":{"ha":788,"x_min":101,"x_max":616,"o":"m 174 418 l 179 472 l 616 611 l 610 557 l 174 418 m 101 0 l 106 53 l 317 53 l 413 957 l 202 957 l 207 1010 l 476 1010 l 375 53 l 586 53 l 581 0 l 101 0 z "},"ŉ":{"ha":788,"x_min":93,"x_max":649,"o":"m 93 0 m 101 0 l 181 758 l 239 758 l 227 648 l 239 648 q 335 738 274 706 q 458 770 396 770 q 600 708 551 770 q 638 542 649 646 l 581 0 l 523 0 l 578 530 q 554 669 588 621 q 447 716 519 716 q 330 686 388 716 q 222 595 273 657 l 159 0 l 101 0 m 93 884 l 273 1136 l 366 1136 l 144 884 l 93 884 z "},"ŋ":{"ha":788,"x_min":101,"x_max":649,"o":"m 362 -263 q 310 -257 337 -263 q 255 -241 283 -251 l 275 -186 q 326 -203 301 -198 q 374 -207 351 -207 q 471 -164 432 -207 q 520 -24 510 -120 l 578 532 q 554 668 588 620 q 447 716 520 716 q 331 688 386 716 q 222 595 275 659 l 159 0 l 101 0 l 181 758 l 239 758 l 227 648 l 239 648 q 332 738 273 706 q 463 770 391 770 q 602 707 556 770 q 636 530 649 644 l 577 -40 q 505 -208 564 -154 q 362 -263 446 -263 z "},"œ":{"ha":788,"x_min":35,"x_max":725,"o":"m 669 149 q 596 29 640 71 q 485 -13 552 -13 q 396 21 433 -13 q 352 117 359 56 q 286 21 331 56 q 191 -13 241 -13 q 72 57 109 -13 q 48 258 35 126 l 73 495 q 139 699 87 629 q 274 770 191 770 q 363 737 324 770 q 409 644 402 705 q 475 737 433 703 q 564 770 518 770 q 687 696 649 770 q 710 484 725 622 l 698 374 l 408 374 l 396 260 q 406 93 384 144 q 486 42 428 42 q 564 71 537 42 q 619 168 591 100 l 669 149 m 420 492 l 413 424 l 645 424 l 652 481 q 640 659 664 604 q 557 715 616 715 q 466 660 500 715 q 420 492 432 606 m 197 42 q 292 92 256 42 q 338 258 327 143 l 364 495 q 352 662 376 609 q 269 716 328 716 q 178 662 212 716 q 131 495 144 609 l 106 258 q 117 92 95 143 q 197 42 140 42 z "},"ŧ":{"ha":788,"x_min":109,"x_max":660,"o":"m 109 386 l 115 441 l 626 441 l 620 386 l 109 386 m 453 -11 q 308 55 356 -11 q 273 236 260 121 l 322 705 l 143 705 l 148 758 l 327 758 l 354 1010 l 413 1010 l 386 758 l 660 758 l 655 705 l 381 705 l 333 247 q 355 93 322 144 q 466 43 388 43 q 525 51 494 43 q 588 74 557 59 l 597 23 q 525 -3 562 6 q 453 -11 487 -11 z "},"ſ":{"ha":788,"x_min":260,"x_max":687,"o":"m 285 -253 l 386 705 l 260 705 l 265 758 l 391 758 l 398 821 q 458 967 408 915 q 574 1019 509 1019 q 636 1011 606 1019 q 687 991 665 1004 l 668 941 q 624 958 649 951 q 568 965 598 965 q 495 931 525 965 q 456 822 465 898 l 343 -253 l 285 -253 z "},"ȷ":{"ha":788,"x_min":74,"x_max":556,"o":"m 223 -263 q 148 -254 186 -263 q 74 -232 110 -245 l 93 -178 q 162 -200 128 -192 q 227 -208 196 -208 q 359 -157 312 -208 q 417 0 405 -106 l 491 705 l 196 705 l 201 758 l 556 758 l 476 -5 q 396 -195 462 -128 q 223 -263 330 -263 z "},"":{"ha":788,"x_min":74,"x_max":556,"o":"m 223 -263 q 148 -254 186 -263 q 74 -232 110 -245 l 93 -178 q 162 -200 128 -192 q 227 -208 196 -208 q 359 -157 312 -208 q 417 0 405 -106 l 491 705 l 196 705 l 201 758 l 556 758 l 476 -5 q 396 -195 462 -128 q 223 -263 330 -263 z "},"α":{"ha":788,"x_min":105,"x_max":677,"o":"m 308 42 q 410 71 360 42 q 509 163 460 101 l 554 595 q 475 686 519 657 q 380 716 432 716 q 259 658 304 716 q 202 486 215 601 l 181 271 q 201 100 168 158 q 308 42 234 42 m 520 122 l 510 122 q 415 21 468 56 q 295 -13 362 -13 q 152 59 199 -13 q 119 259 105 131 l 144 499 q 219 698 157 626 q 378 770 282 770 q 477 738 432 770 q 548 648 523 706 l 559 648 l 571 758 l 630 758 l 572 202 q 584 69 561 100 q 677 52 607 38 l 672 -4 q 555 15 592 -16 q 520 122 518 45 z "},"ά":{"ha":788,"x_min":105,"x_max":677,"o":"m 105 0 m 308 42 q 410 71 360 42 q 509 163 460 101 l 554 595 q 475 686 519 657 q 380 716 432 716 q 259 658 304 716 q 202 486 215 601 l 181 271 q 201 100 168 158 q 308 42 234 42 m 520 122 l 510 122 q 415 21 468 56 q 295 -13 362 -13 q 152 59 199 -13 q 119 259 105 131 l 144 499 q 219 698 157 626 q 378 770 282 770 q 477 738 432 770 q 548 648 523 706 l 559 648 l 571 758 l 630 758 l 572 202 q 584 69 561 100 q 677 52 607 38 l 672 -4 q 555 15 592 -16 q 520 122 518 45 m 431 884 l 545 1136 l 639 1136 l 480 884 l 431 884 z "},"β":{"ha":788,"x_min":74,"x_max":643,"o":"m 336 38 q 484 91 432 38 q 547 258 535 144 l 554 328 q 525 470 564 426 q 395 515 486 515 l 341 515 l 346 567 l 394 567 q 516 607 475 567 q 567 732 558 646 l 571 773 q 549 922 582 874 q 437 970 516 970 q 299 915 347 970 q 237 744 250 861 l 168 88 q 244 50 203 62 q 336 38 284 38 m 332 -13 q 242 -2 287 -13 q 162 29 197 9 l 133 -253 l 74 -253 l 179 746 q 263 948 193 874 q 442 1023 333 1023 q 592 959 540 1023 q 630 783 643 895 l 625 732 q 580 609 617 658 q 482 548 543 561 l 481 542 q 589 476 553 533 q 615 328 625 419 l 607 255 q 521 59 595 130 q 332 -13 448 -13 z "},"γ":{"ha":788,"x_min":153,"x_max":687,"o":"m 347 -253 l 280 -253 l 313 14 l 153 758 l 216 758 l 351 106 l 617 758 l 687 758 l 370 14 l 347 -253 z "},"δ":{"ha":788,"x_min":115,"x_max":634,"o":"m 340 -13 q 169 59 222 -13 q 129 265 115 130 l 141 390 q 196 532 150 470 q 324 635 242 593 q 235 715 261 668 q 216 831 208 763 q 280 965 226 919 q 426 1010 335 1010 l 616 1010 l 611 957 l 420 957 q 320 927 357 957 q 275 833 283 896 q 299 727 268 763 q 433 655 331 691 q 594 554 554 605 q 624 403 634 503 l 609 265 q 526 59 595 130 q 340 -13 457 -13 m 345 40 q 489 93 439 40 q 551 265 538 146 l 566 403 q 535 527 573 486 q 367 615 497 567 q 251 520 294 576 q 199 390 208 465 l 187 265 q 212 93 174 146 q 345 40 250 40 z "},"ε":{"ha":788,"x_min":90,"x_max":641,"o":"m 345 -13 q 148 41 206 -13 q 102 211 90 95 l 104 223 q 152 351 111 297 q 265 410 193 405 l 265 414 q 181 458 210 418 q 159 567 153 499 l 162 585 q 234 725 172 679 q 415 770 295 770 q 588 723 535 770 q 639 572 641 676 l 578 566 q 540 683 578 649 q 410 717 503 717 q 270 686 313 717 q 220 577 227 654 l 218 559 q 248 467 211 494 q 384 439 285 439 l 443 439 l 437 388 l 378 388 q 218 355 261 388 q 165 236 174 323 l 164 223 q 194 82 153 124 q 350 40 236 40 q 494 78 446 40 q 561 206 543 115 l 619 199 q 533 39 598 90 q 345 -13 467 -13 z "},"έ":{"ha":788,"x_min":90,"x_max":641,"o":"m 90 0 m 345 -13 q 148 41 206 -13 q 102 211 90 95 l 104 223 q 152 351 111 297 q 265 410 193 405 l 265 414 q 181 458 210 418 q 159 567 153 499 l 162 585 q 234 725 172 679 q 415 770 295 770 q 588 723 535 770 q 639 572 641 676 l 578 566 q 540 683 578 649 q 410 717 503 717 q 270 686 313 717 q 220 577 227 654 l 218 559 q 248 467 211 494 q 384 439 285 439 l 443 439 l 437 388 l 378 388 q 218 355 261 388 q 165 236 174 323 l 164 223 q 194 82 153 124 q 350 40 236 40 q 494 78 446 40 q 561 206 543 115 l 619 199 q 533 39 598 90 q 345 -13 467 -13 m 378 884 l 492 1136 l 586 1136 l 427 884 l 378 884 z "},"ζ":{"ha":788,"x_min":114,"x_max":706,"o":"m 394 -253 l 285 -253 l 290 -199 l 399 -199 q 482 -170 453 -199 q 518 -78 511 -140 q 502 13 525 -16 q 424 42 479 42 l 335 42 q 167 112 221 42 q 128 311 114 183 q 164 448 135 383 q 251 591 193 514 l 452 857 l 449 864 q 268 892 338 851 q 188 1020 198 933 l 242 1033 q 326 919 249 951 q 509 926 403 888 l 688 1020 l 706 955 l 525 876 l 289 558 q 215 435 235 484 q 188 317 196 386 q 217 153 178 212 q 341 95 256 95 l 429 95 q 543 49 505 95 q 572 -78 581 3 q 517 -206 564 -160 q 394 -253 470 -253 z "},"η":{"ha":788,"x_min":101,"x_max":649,"o":"m 496 -253 l 578 530 q 554 669 588 621 q 447 716 519 716 q 330 686 388 716 q 222 595 273 657 l 159 0 l 101 0 l 181 758 l 239 758 l 227 648 l 239 648 q 335 738 274 706 q 458 770 396 770 q 600 708 551 770 q 638 542 649 646 l 554 -253 l 496 -253 z "},"ή":{"ha":788,"x_min":101,"x_max":649,"o":"m 101 0 m 496 -253 l 578 530 q 554 669 588 621 q 447 716 519 716 q 330 686 388 716 q 222 595 273 657 l 159 0 l 101 0 l 181 758 l 239 758 l 227 648 l 239 648 q 335 738 274 706 q 458 770 396 770 q 600 708 551 770 q 638 542 649 646 l 554 -253 l 496 -253 m 385 884 l 500 1136 l 593 1136 l 434 884 l 385 884 z "},"θ":{"ha":788,"x_min":115,"x_max":672,"o":"m 340 -13 q 170 62 225 -13 q 130 274 115 138 l 178 731 q 263 946 192 870 q 449 1023 333 1023 q 617 946 563 1023 q 658 731 672 870 l 610 274 q 525 62 595 138 q 340 -13 455 -13 m 236 731 l 216 542 l 580 542 l 600 731 q 573 911 612 852 q 443 970 534 970 q 301 911 352 970 q 236 731 249 852 m 345 40 q 487 98 436 40 q 552 274 539 157 l 574 487 l 211 487 l 188 274 q 215 98 176 157 q 345 40 254 40 z "},"ι":{"ha":788,"x_min":153,"x_max":602,"o":"m 153 0 m 473 -6 q 360 54 396 -6 q 335 225 323 115 l 385 705 l 153 705 l 158 758 l 449 758 l 394 227 q 406 93 384 138 q 481 48 428 48 q 537 56 506 48 q 592 77 567 64 l 602 25 q 544 3 577 13 q 473 -6 510 -6 z "},"ΐ":{"ha":788,"x_min":153,"x_max":660,"o":"m 153 0 m 473 -6 q 360 54 396 -6 q 335 225 323 115 l 385 705 l 153 705 l 158 758 l 449 758 l 394 227 q 406 93 384 138 q 481 48 428 48 q 537 56 506 48 q 592 77 567 64 l 602 25 q 544 3 577 13 q 473 -6 510 -6 m 366 884 l 460 1136 l 530 1136 l 412 884 l 366 884 m 242 910 q 214 920 225 910 q 207 956 203 929 l 207 965 q 223 1003 211 992 q 253 1013 235 1013 q 280 1003 270 1013 q 287 965 290 992 l 287 956 q 271 920 283 929 q 242 910 259 910 m 611 910 q 583 920 593 910 q 577 956 573 929 l 577 965 q 592 1003 581 992 q 621 1013 604 1013 q 650 1003 639 1013 q 657 965 660 992 l 657 956 q 640 920 653 929 q 611 910 628 910 z "},"ί":{"ha":788,"x_min":153,"x_max":602,"o":"m 153 0 m 473 -6 q 360 54 396 -6 q 335 225 323 115 l 385 705 l 153 705 l 158 758 l 449 758 l 394 227 q 406 93 384 138 q 481 48 428 48 q 537 56 506 48 q 592 77 567 64 l 602 25 q 544 3 577 13 q 473 -6 510 -6 m 371 884 l 486 1136 l 580 1136 l 420 884 l 371 884 z "},"ϊ":{"ha":788,"x_min":153,"x_max":605,"o":"m 153 0 m 473 -6 q 360 54 396 -6 q 335 225 323 115 l 385 705 l 153 705 l 158 758 l 449 758 l 394 227 q 406 93 384 138 q 481 48 428 48 q 537 56 506 48 q 592 77 567 64 l 602 25 q 544 3 577 13 q 473 -6 510 -6 m 321 923 q 285 932 298 923 q 275 968 271 942 l 275 977 q 294 1015 279 1005 q 331 1025 308 1025 q 367 1015 354 1025 q 376 977 380 1005 l 376 968 q 357 932 372 942 q 321 923 342 923 m 545 923 q 509 932 523 923 q 500 968 496 942 l 500 977 q 518 1015 504 1005 q 556 1025 533 1025 q 592 1015 578 1025 q 601 977 605 1005 l 601 968 q 582 932 597 942 q 545 923 567 923 z "},"κ":{"ha":788,"x_min":154,"x_max":677,"o":"m 251 371 l 212 0 l 154 0 l 234 758 l 292 758 l 256 424 l 355 424 l 607 758 l 677 758 l 403 403 l 593 0 l 529 0 l 355 371 l 251 371 z "},"λ":{"ha":788,"x_min":73,"x_max":607,"o":"m 548 0 l 419 694 l 136 0 l 73 0 l 389 758 l 404 758 l 394 818 q 348 934 376 903 q 266 966 319 966 q 225 963 242 966 q 186 956 207 961 l 183 1008 q 225 1015 206 1013 q 263 1018 245 1018 q 381 975 337 1018 q 443 831 424 933 l 607 0 l 548 0 z "},"μ":{"ha":788,"x_min":68,"x_max":650,"o":"m 162 25 l 139 -253 l 68 -253 l 104 25 l 181 758 l 239 758 l 184 244 q 208 94 174 146 q 312 42 241 42 q 410 66 366 42 q 494 138 455 90 l 559 758 l 619 758 l 561 198 q 568 69 549 98 q 650 52 587 39 l 645 -4 q 546 13 580 -14 q 515 109 513 40 l 506 109 q 420 23 473 58 q 303 -13 366 -13 q 221 13 255 -13 q 168 86 187 39 l 162 25 z "},"ν":{"ha":788,"x_min":153,"x_max":687,"o":"m 364 0 l 317 0 l 153 758 l 213 758 l 352 57 q 528 413 456 236 q 631 758 600 590 l 687 758 q 573 393 652 576 q 364 0 494 211 z "},"ξ":{"ha":788,"x_min":119,"x_max":702,"o":"m 595 -77 q 539 -208 585 -164 q 414 -253 494 -253 l 283 -253 l 288 -199 l 420 -199 q 504 -170 475 -199 q 540 -77 533 -141 q 524 15 547 -14 q 447 43 501 43 l 336 43 q 175 103 231 43 q 129 261 119 163 l 133 295 q 198 446 141 386 q 341 514 255 506 l 341 518 q 256 561 284 518 q 235 676 227 605 q 277 783 241 734 q 365 856 312 832 l 365 862 q 213 902 273 859 q 145 1020 154 946 l 199 1033 q 277 925 208 956 q 451 918 346 894 l 683 1020 l 702 955 l 465 872 l 384 826 q 323 767 346 806 q 294 678 301 729 q 312 577 288 612 q 386 542 336 542 l 564 542 l 559 487 l 384 487 q 251 443 301 487 q 192 314 201 398 l 188 280 q 218 145 179 192 q 341 97 258 97 l 451 97 q 567 53 530 97 q 595 -77 604 9 z "},"ο":{"ha":788,"x_min":115,"x_max":646,"o":"m 115 0 m 340 -13 q 169 57 223 -13 q 128 258 115 128 l 153 495 q 237 699 167 628 q 423 770 307 770 q 592 699 538 770 q 633 495 646 628 l 607 258 q 525 57 595 128 q 340 -13 456 -13 m 345 40 q 487 94 437 40 q 549 258 538 148 l 574 495 q 548 663 587 609 q 417 717 509 717 q 274 663 324 717 q 211 495 223 609 l 186 258 q 213 94 174 148 q 345 40 253 40 z "},"ό":{"ha":788,"x_min":115,"x_max":646,"o":"m 115 0 m 340 -13 q 169 57 223 -13 q 128 258 115 128 l 153 495 q 237 699 167 628 q 423 770 307 770 q 592 699 538 770 q 633 495 646 628 l 607 258 q 525 57 595 128 q 340 -13 456 -13 m 345 40 q 487 94 437 40 q 549 258 538 148 l 574 495 q 548 663 587 609 q 417 717 509 717 q 274 663 324 717 q 211 495 223 609 l 186 258 q 213 94 174 148 q 345 40 253 40 m 375 884 l 490 1136 l 583 1136 l 424 884 l 375 884 z "},"π":{"ha":788,"x_min":111,"x_max":692,"o":"m 692 758 l 687 705 l 561 705 l 503 154 q 520 61 495 82 q 617 52 544 40 l 612 -4 q 473 21 513 -18 q 444 163 433 59 l 501 705 l 277 705 l 202 0 l 141 0 l 216 705 l 111 705 l 116 758 l 692 758 z "},"ρ":{"ha":788,"x_min":74,"x_max":646,"o":"m 370 47 q 494 102 449 47 q 552 271 539 158 l 574 495 q 548 663 587 609 q 417 717 509 717 q 275 663 326 717 q 211 495 223 609 l 177 163 q 259 74 211 101 q 370 47 308 47 m 74 -253 l 153 495 q 237 698 167 626 q 423 770 308 770 q 592 698 537 770 q 633 495 646 626 l 609 259 q 532 58 595 129 q 366 -13 468 -13 q 258 19 306 -13 q 184 110 210 51 l 170 110 l 133 -253 l 74 -253 z "},"ς":{"ha":788,"x_min":119,"x_max":634,"o":"m 266 -253 l 271 -199 l 403 -199 q 489 -173 461 -199 q 523 -83 516 -146 q 507 0 529 -25 q 427 25 485 25 l 337 25 q 168 95 217 25 q 134 308 119 164 l 152 485 q 234 701 168 631 q 426 770 301 770 q 586 717 539 770 q 630 538 634 663 l 574 534 q 545 676 580 636 q 419 716 511 716 q 271 665 319 716 q 211 492 223 614 l 191 295 q 213 129 178 178 q 343 80 249 80 l 433 80 q 550 39 514 80 q 577 -83 586 -1 q 524 -211 568 -170 q 400 -253 480 -253 l 266 -253 z "},"σ":{"ha":788,"x_min":114,"x_max":766,"o":"m 323 40 q 449 95 403 40 q 506 258 495 149 l 528 457 q 507 643 540 581 q 394 705 473 705 q 268 649 314 705 q 210 482 221 593 l 186 258 q 209 95 174 149 q 323 40 244 40 m 318 -13 q 165 59 216 -13 q 126 258 114 130 l 150 482 q 230 685 164 612 q 400 758 297 758 l 766 758 l 760 692 l 529 707 q 581 610 566 676 q 587 457 596 545 l 566 258 q 487 59 553 130 q 318 -13 420 -13 z "},"τ":{"ha":788,"x_min":174,"x_max":670,"o":"m 497 -4 q 357 21 396 -15 q 327 152 317 57 l 385 705 l 174 705 l 179 758 l 670 758 l 665 705 l 444 705 l 386 153 q 402 61 379 81 q 503 52 426 40 l 497 -4 z "},"υ":{"ha":788,"x_min":115,"x_max":660,"o":"m 340 -13 q 169 57 222 -13 q 128 258 115 126 l 181 758 l 239 758 l 186 258 q 215 91 174 141 q 345 40 255 40 q 487 91 436 40 q 549 258 538 141 l 602 758 l 660 758 l 607 258 q 526 57 595 126 q 340 -13 457 -13 z "},"ΰ":{"ha":788,"x_min":115,"x_max":670,"o":"m 115 0 m 340 -13 q 169 57 222 -13 q 128 258 115 126 l 181 758 l 239 758 l 186 258 q 215 91 174 141 q 345 40 255 40 q 487 91 436 40 q 549 258 538 141 l 602 758 l 660 758 l 607 258 q 526 57 595 126 q 340 -13 457 -13 m 376 884 l 470 1136 l 540 1136 l 422 884 l 376 884 m 253 910 q 224 920 235 910 q 217 956 213 929 l 217 965 q 233 1003 221 992 q 263 1013 245 1013 q 290 1003 280 1013 q 297 965 301 992 l 297 956 q 281 920 293 929 q 253 910 269 910 m 621 910 q 593 920 604 910 q 587 956 583 929 l 587 965 q 602 1003 591 992 q 631 1013 614 1013 q 660 1003 649 1013 q 667 965 670 992 l 667 956 q 650 920 663 929 q 621 910 638 910 z "},"ϋ":{"ha":788,"x_min":115,"x_max":660,"o":"m 115 0 m 340 -13 q 169 57 222 -13 q 128 258 115 126 l 181 758 l 239 758 l 186 258 q 215 91 174 141 q 345 40 255 40 q 487 91 436 40 q 549 258 538 141 l 602 758 l 660 758 l 607 258 q 526 57 595 126 q 340 -13 457 -13 m 326 923 q 290 932 303 923 q 280 968 277 942 l 280 977 q 299 1015 284 1005 q 336 1025 313 1025 q 372 1015 359 1025 q 381 977 385 1005 l 381 968 q 362 932 378 942 q 326 923 347 923 m 551 923 q 515 932 528 923 q 505 968 501 942 l 505 977 q 523 1015 509 1005 q 561 1025 538 1025 q 597 1015 583 1025 q 606 977 610 1005 l 606 968 q 587 932 602 942 q 551 923 572 923 z "},"ύ":{"ha":788,"x_min":115,"x_max":660,"o":"m 115 0 m 340 -13 q 169 57 222 -13 q 128 258 115 126 l 181 758 l 239 758 l 186 258 q 215 91 174 141 q 345 40 255 40 q 487 91 436 40 q 549 258 538 141 l 602 758 l 660 758 l 607 258 q 526 57 595 126 q 340 -13 457 -13 m 374 884 l 489 1136 l 582 1136 l 423 884 l 374 884 z "},"φ":{"ha":788,"x_min":68,"x_max":693,"o":"m 343 -253 l 285 -253 l 311 -10 q 131 90 193 1 q 85 335 68 178 l 97 457 q 135 628 107 553 q 215 769 163 702 l 268 750 q 195 618 225 689 q 155 457 165 547 l 143 335 q 172 129 129 203 q 317 44 216 54 l 391 758 l 449 758 q 634 669 574 758 q 677 419 693 581 l 668 335 q 571 90 652 178 q 369 -10 490 1 l 343 -253 m 444 703 l 375 44 q 537 129 479 56 q 610 335 596 203 l 619 419 q 590 634 634 566 q 444 703 547 703 z "},"χ":{"ha":788,"x_min":68,"x_max":667,"o":"m 492 -253 l 360 206 l 140 -253 l 68 -253 l 333 260 l 183 758 l 246 758 l 375 314 l 596 758 l 667 758 l 402 258 l 557 -253 l 492 -253 z "},"ψ":{"ha":788,"x_min":67,"x_max":712,"o":"m 343 -253 l 285 -253 l 311 -10 q 124 81 182 -1 q 82 309 67 163 l 129 758 l 187 758 l 140 309 q 168 115 126 178 q 317 43 210 52 l 391 758 l 449 758 l 375 43 q 539 115 484 52 q 607 309 593 178 l 654 758 l 712 758 l 665 309 q 575 81 650 163 q 369 -10 500 -1 l 343 -253 z "},"ω":{"ha":788,"x_min":66,"x_max":688,"o":"m 203 -13 q 98 69 131 -13 q 81 297 66 150 l 93 419 q 136 622 105 525 q 196 765 167 718 l 246 745 q 193 612 225 703 q 152 419 162 520 l 139 297 q 143 102 125 163 q 215 40 160 40 q 297 97 266 40 q 341 275 328 154 l 372 581 l 431 581 l 399 275 q 405 97 386 154 q 476 40 423 40 q 561 102 529 40 q 606 297 592 163 l 619 419 q 617 612 629 520 q 592 745 606 703 l 646 765 q 677 622 665 718 q 677 419 688 525 l 664 297 q 599 69 649 150 q 477 -13 549 -13 q 394 26 427 -13 q 356 133 361 64 l 352 133 q 292 26 332 64 q 203 -13 253 -13 z "},"ώ":{"ha":788,"x_min":66,"x_max":688,"o":"m 66 0 m 203 -13 q 98 69 131 -13 q 81 297 66 150 l 93 419 q 136 622 105 525 q 196 765 167 718 l 246 745 q 193 612 225 703 q 152 419 162 520 l 139 297 q 143 102 125 163 q 215 40 160 40 q 297 97 266 40 q 341 275 328 154 l 372 581 l 431 581 l 399 275 q 405 97 386 154 q 476 40 423 40 q 561 102 529 40 q 606 297 592 163 l 619 419 q 617 612 629 520 q 592 745 606 703 l 646 765 q 677 622 665 718 q 677 419 688 525 l 664 297 q 599 69 649 150 q 477 -13 549 -13 q 394 26 427 -13 q 356 133 361 64 l 352 133 q 292 26 332 64 q 203 -13 253 -13 m 385 884 l 500 1136 l 593 1136 l 434 884 l 385 884 z "},"а":{"ha":788,"x_min":72,"x_max":665,"o":"m 72 0 m 280 38 q 391 68 340 38 q 491 157 443 97 l 511 348 l 292 348 q 186 319 227 348 q 138 211 145 289 q 163 83 129 128 q 280 38 197 38 m 269 -13 q 122 45 173 -13 q 82 203 72 104 q 147 347 91 294 q 294 399 203 399 l 516 399 l 533 557 q 503 673 540 629 q 385 717 465 717 q 264 686 306 717 q 193 571 222 654 l 143 586 q 234 727 177 684 q 390 770 292 770 q 547 713 492 770 q 591 557 602 657 l 553 193 q 567 69 543 98 q 665 54 591 39 l 659 -1 q 547 14 587 -14 q 508 114 506 42 l 497 114 q 400 22 462 57 q 269 -13 338 -13 z "},"б":{"ha":788,"x_min":114,"x_max":648,"o":"m 340 -13 q 170 56 226 -13 q 129 260 114 125 l 172 669 q 249 880 186 803 q 437 981 313 957 l 643 1023 l 648 971 l 448 933 q 283 846 336 912 q 217 646 231 780 l 210 574 l 216 574 q 299 654 244 626 q 427 682 355 682 q 586 617 534 682 q 626 436 639 553 l 607 253 q 523 54 593 121 q 340 -13 453 -13 m 343 40 q 487 93 438 40 q 548 259 535 145 l 564 422 q 538 578 576 529 q 405 628 500 628 q 263 578 311 628 q 203 422 215 529 l 187 259 q 211 93 174 145 q 343 40 249 40 z "},"в":{"ha":788,"x_min":101,"x_max":653,"o":"m 101 0 l 181 758 l 417 758 q 598 717 544 758 q 644 586 653 676 l 640 552 q 599 444 633 480 q 500 405 566 409 l 499 399 q 605 354 574 394 q 626 230 635 313 l 624 202 q 544 49 612 97 q 337 0 475 0 l 101 0 m 203 426 l 390 426 q 532 451 491 426 q 580 545 573 477 l 583 580 q 554 679 591 652 q 412 706 518 706 l 234 706 l 203 426 m 164 52 l 342 52 q 507 84 460 52 q 563 199 554 116 l 566 229 q 535 343 574 312 q 385 374 496 374 l 198 374 l 164 52 z "},"г":{"ha":788,"x_min":153,"x_max":672,"o":"m 153 0 l 232 758 l 672 758 l 667 705 l 287 705 l 212 0 l 153 0 z "},"ѓ":{"ha":788,"x_min":153,"x_max":701,"o":"m 153 0 m 153 0 l 232 758 l 672 758 l 667 705 l 287 705 l 212 0 l 153 0 m 428 884 l 607 1136 l 701 1136 l 479 884 l 428 884 z "},"д":{"ha":788,"x_min":16,"x_max":650,"o":"m 172 64 l 170 53 l 494 53 l 563 705 l 307 705 l 264 333 q 232 162 251 220 q 172 64 212 105 m 96 0 l 76 -189 l 16 -189 l 42 53 l 102 53 q 172 157 148 92 q 210 341 196 221 l 256 758 l 628 758 l 553 53 l 650 53 l 625 -189 l 564 -189 l 585 0 l 96 0 z "},"е":{"ha":788,"x_min":114,"x_max":646,"o":"m 114 0 m 591 149 q 501 27 558 66 q 345 -13 443 -13 q 171 56 229 -13 q 129 259 114 125 l 153 495 q 241 701 168 633 q 423 770 314 770 q 589 700 532 770 q 631 486 646 630 l 620 372 l 198 372 l 186 258 q 215 92 174 144 q 350 40 256 40 q 468 68 429 40 q 537 167 508 96 l 591 149 m 211 495 l 203 424 l 567 424 l 573 484 q 547 660 586 605 q 417 716 508 716 q 275 662 327 716 q 211 495 223 609 z "},"ѐ":{"ha":788,"x_min":114,"x_max":646,"o":"m 114 0 m 591 149 q 501 27 558 66 q 345 -13 443 -13 q 171 56 229 -13 q 129 259 114 125 l 153 495 q 241 701 168 633 q 423 770 314 770 q 589 700 532 770 q 631 486 646 630 l 620 372 l 198 372 l 186 258 q 215 92 174 144 q 350 40 256 40 q 468 68 429 40 q 537 167 508 96 l 591 149 m 211 495 l 203 424 l 567 424 l 573 484 q 547 660 586 605 q 417 716 508 716 q 275 662 327 716 q 211 495 223 609 m 460 884 l 289 1136 l 384 1136 l 509 884 l 460 884 z "},"ё":{"ha":788,"x_min":114,"x_max":646,"o":"m 114 0 m 591 149 q 501 27 558 66 q 345 -13 443 -13 q 171 56 229 -13 q 129 259 114 125 l 153 495 q 241 701 168 633 q 423 770 314 770 q 589 700 532 770 q 631 486 646 630 l 620 372 l 198 372 l 186 258 q 215 92 174 144 q 350 40 256 40 q 468 68 429 40 q 537 167 508 96 l 591 149 m 211 495 l 203 424 l 567 424 l 573 484 q 547 660 586 605 q 417 716 508 716 q 275 662 327 716 q 211 495 223 609 m 327 923 q 291 932 304 923 q 282 968 278 942 l 282 977 q 300 1015 285 1005 q 337 1025 314 1025 q 373 1015 360 1025 q 383 977 386 1005 l 383 968 q 364 932 379 942 q 327 923 348 923 m 552 923 q 516 932 529 923 q 506 968 503 942 l 506 977 q 525 1015 510 1005 q 562 1025 539 1025 q 598 1015 585 1025 q 607 977 611 1005 l 607 968 q 588 932 604 942 q 552 923 573 923 z "},"ж":{"ha":788,"x_min":21,"x_max":746,"o":"m 298 376 l 85 0 l 21 0 l 254 400 l 95 758 l 158 758 l 299 426 l 359 426 l 394 758 l 447 758 l 412 426 l 468 426 l 683 758 l 746 758 l 511 405 l 660 0 l 597 0 l 463 376 l 407 376 l 367 0 l 314 0 l 354 376 l 298 376 z "},"з":{"ha":788,"x_min":98,"x_max":653,"o":"m 346 -13 q 155 44 212 -13 q 104 230 98 101 l 164 239 q 202 85 164 128 q 341 42 240 42 q 504 79 455 42 q 563 207 554 116 l 564 220 q 535 336 573 303 q 395 370 497 370 l 347 370 l 352 423 l 400 423 q 533 454 492 423 q 582 561 573 485 l 583 578 q 553 685 591 654 q 413 716 515 716 q 278 676 322 716 q 213 533 234 636 l 157 543 q 240 717 177 664 q 428 770 303 770 q 598 721 544 770 q 643 576 653 672 l 640 558 q 598 443 633 482 q 501 400 564 404 l 501 395 q 603 345 572 390 q 625 217 634 301 l 624 205 q 544 41 612 95 q 346 -13 476 -13 z "},"и":{"ha":788,"x_min":101,"x_max":660,"o":"m 523 0 l 591 645 l 163 0 l 101 0 l 181 758 l 239 758 l 170 109 l 601 758 l 660 758 l 581 0 l 523 0 z "},"й":{"ha":788,"x_min":101,"x_max":674,"o":"m 101 0 m 523 0 l 591 645 l 163 0 l 101 0 l 181 758 l 239 758 l 170 109 l 601 758 l 660 758 l 581 0 l 523 0 m 433 875 q 288 931 345 875 q 245 1125 231 986 l 306 1131 q 327 975 295 1021 q 438 928 359 928 q 559 975 518 928 q 614 1131 601 1021 l 674 1125 q 590 931 658 986 q 433 875 521 875 z "},"ѝ":{"ha":788,"x_min":101,"x_max":660,"o":"m 101 0 m 523 0 l 591 645 l 163 0 l 101 0 l 181 758 l 239 758 l 170 109 l 601 758 l 660 758 l 581 0 l 523 0 m 461 884 l 290 1136 l 385 1136 l 510 884 l 461 884 z "},"к":{"ha":788,"x_min":153,"x_max":677,"o":"m 251 371 l 212 0 l 153 0 l 232 758 l 292 758 l 256 426 l 355 426 l 607 758 l 677 758 l 403 403 l 593 0 l 529 0 l 354 371 l 251 371 z "},"ќ":{"ha":788,"x_min":153,"x_max":697,"o":"m 153 0 m 251 371 l 212 0 l 153 0 l 232 758 l 292 758 l 256 426 l 355 426 l 607 758 l 677 758 l 403 403 l 593 0 l 529 0 l 354 371 l 251 371 m 424 884 l 604 1136 l 697 1136 l 475 884 l 424 884 z "},"л":{"ha":788,"x_min":5,"x_max":660,"o":"m 523 0 l 597 705 l 318 705 l 269 280 q 203 62 253 136 q 74 -13 154 -13 q 37 -9 54 -13 q 5 0 20 -6 l 23 51 q 49 43 37 45 q 78 40 62 40 q 169 100 138 40 q 217 297 201 159 l 268 758 l 660 758 l 581 0 l 523 0 z "},"м":{"ha":788,"x_min":81,"x_max":681,"o":"m 330 189 l 208 655 l 139 0 l 81 0 l 160 758 l 240 758 l 366 255 l 598 758 l 681 758 l 601 0 l 543 0 l 612 662 l 391 189 l 330 189 z "},"н":{"ha":788,"x_min":101,"x_max":660,"o":"m 101 0 l 181 758 l 239 758 l 208 466 l 572 466 l 602 758 l 660 758 l 581 0 l 523 0 l 566 412 l 202 412 l 159 0 l 101 0 z "},"о":{"ha":788,"x_min":115,"x_max":646,"o":"m 115 0 m 340 -13 q 169 57 223 -13 q 128 258 115 128 l 153 495 q 237 699 167 628 q 423 770 307 770 q 592 699 538 770 q 633 495 646 628 l 607 258 q 525 57 595 128 q 340 -13 456 -13 m 345 40 q 487 94 437 40 q 549 258 538 148 l 574 495 q 548 663 587 609 q 417 717 509 717 q 274 663 324 717 q 211 495 223 609 l 186 258 q 213 94 174 148 q 345 40 253 40 z "},"п":{"ha":788,"x_min":101,"x_max":660,"o":"m 101 0 l 181 758 l 660 758 l 581 0 l 523 0 l 597 705 l 234 705 l 159 0 l 101 0 z "},"р":{"ha":788,"x_min":74,"x_max":646,"o":"m 74 0 m 336 38 q 485 93 433 38 q 551 263 538 148 l 576 500 q 554 664 587 610 q 441 717 520 717 q 330 689 381 717 q 222 595 279 660 l 169 91 q 247 51 205 63 q 336 38 289 38 m 332 -13 q 249 -3 295 -13 q 162 28 203 6 l 133 -253 l 74 -253 l 181 758 l 239 758 l 227 648 l 239 648 q 333 740 277 710 q 453 770 389 770 q 599 698 552 770 q 634 499 646 626 l 609 260 q 521 60 595 133 q 332 -13 448 -13 z "},"с":{"ha":788,"x_min":115,"x_max":654,"o":"m 115 0 m 355 -13 q 172 57 230 -13 q 128 258 115 126 l 153 495 q 240 699 167 629 q 436 770 313 770 q 604 715 553 770 q 650 543 654 660 l 592 538 q 559 677 595 638 q 429 717 523 717 q 277 663 331 717 q 211 495 223 609 l 186 258 q 217 93 174 146 q 360 40 260 40 q 497 74 453 40 q 556 194 542 109 l 614 189 q 533 36 596 85 q 355 -13 471 -13 z "},"т":{"ha":788,"x_min":143,"x_max":692,"o":"m 311 0 l 385 705 l 143 705 l 148 758 l 692 758 l 687 705 l 444 705 l 370 0 l 311 0 z "},"у":{"ha":788,"x_min":52,"x_max":688,"o":"m 52 0 m 128 -260 q 93 -258 111 -260 q 52 -250 76 -255 l 64 -198 q 104 -206 86 -203 q 145 -208 121 -208 q 232 -177 198 -208 q 302 -61 266 -146 l 324 0 l 309 0 l 153 758 l 215 758 l 352 67 l 628 758 l 688 758 l 350 -73 q 255 -218 307 -176 q 128 -260 203 -260 z "},"ў":{"ha":788,"x_min":52,"x_max":688,"o":"m 52 0 m 128 -260 q 93 -258 111 -260 q 52 -250 76 -255 l 64 -198 q 104 -206 86 -203 q 145 -208 121 -208 q 232 -177 198 -208 q 302 -61 266 -146 l 324 0 l 309 0 l 153 758 l 215 758 l 352 67 l 628 758 l 688 758 l 350 -73 q 255 -218 307 -176 q 128 -260 203 -260 m 433 875 q 288 931 345 875 q 245 1125 231 986 l 306 1131 q 327 975 295 1021 q 438 928 359 928 q 559 975 518 928 q 614 1131 601 1021 l 674 1125 q 590 931 658 986 q 433 875 521 875 z "},"ф":{"ha":788,"x_min":63,"x_max":698,"o":"m 446 0 l 370 0 l 343 -253 l 285 -253 l 312 0 l 237 0 q 106 68 149 0 q 76 258 63 135 l 102 500 q 172 689 115 621 q 317 758 229 758 l 391 758 l 418 1010 l 476 1010 l 449 758 l 525 758 q 656 689 614 758 q 686 500 698 621 l 659 258 q 590 68 646 135 q 446 0 534 0 m 254 53 l 317 53 l 386 705 l 323 705 q 211 653 251 705 q 159 495 170 601 l 135 260 q 153 104 124 155 q 254 53 182 53 m 509 705 l 444 705 l 375 53 l 439 53 q 551 104 510 53 q 602 260 591 155 l 626 495 q 609 653 638 601 q 509 705 580 705 z "},"х":{"ha":788,"x_min":88,"x_max":673,"o":"m 88 0 m 528 0 l 376 338 l 150 0 l 88 0 l 352 391 l 187 758 l 249 758 l 393 437 l 611 758 l 673 758 l 418 384 l 590 0 l 528 0 z "},"ц":{"ha":788,"x_min":101,"x_max":639,"o":"m 559 -189 l 580 0 l 101 0 l 181 758 l 239 758 l 164 53 l 475 53 l 549 758 l 609 758 l 534 53 l 639 53 l 614 -189 l 559 -189 z "},"ч":{"ha":788,"x_min":119,"x_max":609,"o":"m 609 758 l 529 0 l 470 0 l 500 283 q 421 256 462 266 q 333 245 380 245 q 168 309 217 245 q 133 503 119 372 l 159 758 l 218 758 l 192 505 q 215 347 181 395 q 340 298 250 299 q 429 309 386 297 q 505 342 472 321 l 549 758 l 609 758 z "},"ш":{"ha":788,"x_min":49,"x_max":712,"o":"m 49 0 l 129 758 l 187 758 l 114 54 l 318 54 l 391 758 l 449 758 l 376 54 l 580 54 l 653 758 l 712 758 l 633 0 l 49 0 z "},"щ":{"ha":788,"x_min":49,"x_max":712,"o":"m 667 -189 l 615 -189 l 635 0 l 49 0 l 129 758 l 187 758 l 114 54 l 318 54 l 391 758 l 449 758 l 376 54 l 581 54 l 654 758 l 712 758 l 638 53 l 692 53 l 667 -189 z "},"ъ":{"ha":788,"x_min":69,"x_max":650,"o":"m 415 0 l 153 0 l 227 705 l 69 705 l 74 758 l 292 758 l 260 461 l 463 461 q 602 412 554 461 q 641 273 650 364 l 633 193 q 564 50 622 100 q 415 0 506 0 m 217 53 l 399 53 q 525 86 484 53 q 573 193 566 119 l 582 273 q 556 377 590 346 q 437 408 521 408 l 255 408 l 217 53 z "},"ы":{"ha":788,"x_min":74,"x_max":687,"o":"m 74 0 l 154 758 l 212 758 l 183 479 l 302 479 q 417 427 379 479 q 446 282 456 376 l 438 202 q 378 52 428 105 q 253 0 328 0 l 74 0 m 549 0 l 629 758 l 687 758 l 607 0 l 549 0 m 138 53 l 235 53 q 337 88 303 53 q 380 202 371 122 l 388 282 q 369 392 396 360 q 274 424 342 424 l 177 424 l 138 53 z "},"ь":{"ha":788,"x_min":101,"x_max":653,"o":"m 101 0 l 181 758 l 239 758 l 210 476 l 461 476 q 602 426 552 476 q 643 280 653 375 l 635 202 q 564 53 625 106 q 412 0 503 0 l 101 0 m 164 53 l 399 53 q 525 88 484 53 q 574 202 566 122 l 582 280 q 557 391 591 359 q 438 423 523 423 l 203 423 l 164 53 z "},"э":{"ha":788,"x_min":104,"x_max":646,"o":"m 324 -13 q 155 35 207 -13 q 109 188 104 82 l 165 192 q 200 72 165 104 q 330 40 235 40 q 485 91 432 40 q 549 258 538 141 l 562 367 l 299 367 l 304 422 l 567 422 l 576 500 q 545 667 587 617 q 404 717 504 717 q 265 679 308 717 q 202 538 221 641 l 145 543 q 228 717 165 663 q 408 770 290 770 q 595 699 543 770 q 633 492 646 628 l 609 270 q 528 59 595 131 q 324 -13 461 -13 z "},"ю":{"ha":788,"x_min":58,"x_max":689,"o":"m 436 -13 q 304 57 345 -13 q 277 259 263 126 l 289 386 l 158 386 l 117 0 l 58 0 l 138 758 l 197 758 l 164 439 l 295 439 l 301 495 q 371 700 314 630 q 519 770 427 770 q 650 699 610 770 q 676 494 689 629 l 652 259 q 582 57 638 126 q 436 -13 527 -13 m 441 40 q 545 92 509 40 q 593 259 581 143 l 617 494 q 605 665 630 612 q 513 717 581 717 q 408 665 444 717 q 359 494 371 612 l 335 259 q 347 92 322 143 q 441 40 372 40 z "},"я":{"ha":788,"x_min":91,"x_max":660,"o":"m 323 333 l 558 333 l 597 705 l 362 705 q 259 667 294 705 q 216 545 225 630 l 212 501 q 229 372 202 410 q 323 333 255 333 m 552 282 l 393 282 l 160 0 l 91 0 l 319 282 q 184 337 225 282 q 153 496 143 393 l 158 540 q 222 704 169 650 q 366 758 274 758 l 660 758 l 581 0 l 523 0 l 552 282 z "},"ђ":{"ha":788,"x_min":81,"x_max":641,"o":"m 372 -263 q 318 -256 345 -263 q 264 -237 290 -250 l 283 -184 q 328 -203 304 -197 q 376 -208 351 -208 q 475 -160 438 -208 q 521 -14 511 -112 l 572 465 q 545 604 581 553 q 436 654 509 654 q 324 621 381 654 q 215 525 266 587 l 159 0 l 101 0 l 187 821 l 81 821 l 87 875 l 193 875 l 207 1010 l 265 1010 l 251 875 l 462 875 l 456 821 l 245 821 l 221 585 l 235 585 q 334 674 273 641 q 453 707 395 707 q 593 644 545 707 q 631 479 641 581 l 578 -24 q 512 -199 567 -136 q 372 -263 457 -263 z "},"є":{"ha":788,"x_min":112,"x_max":655,"o":"m 612 188 q 532 37 595 86 q 354 -13 468 -13 q 167 56 222 -13 q 128 270 112 125 l 150 485 q 236 701 167 631 q 434 770 306 770 q 603 715 551 770 q 650 543 655 660 l 592 538 q 558 679 593 640 q 428 717 523 717 q 275 664 326 717 q 211 492 223 611 l 203 422 l 466 422 l 461 367 l 198 367 l 187 265 q 215 93 174 146 q 359 40 256 40 q 493 73 449 40 q 556 192 537 106 l 612 188 z "},"ѕ":{"ha":788,"x_min":87,"x_max":629,"o":"m 87 0 m 345 -13 q 209 10 278 -13 q 87 80 140 33 l 122 128 q 231 62 170 85 q 350 40 292 40 q 485 81 432 40 q 547 192 539 121 q 517 290 553 256 q 367 352 481 323 q 201 430 250 381 q 160 561 152 479 q 237 713 170 655 q 400 770 303 770 q 523 748 465 770 q 629 687 582 726 l 595 640 q 504 696 556 674 q 395 717 453 717 q 274 677 322 717 q 218 568 226 638 q 248 467 212 500 q 396 407 284 434 q 565 328 515 378 q 606 197 615 278 q 524 45 597 104 q 345 -13 451 -13 z "},"і":{"ha":788,"x_min":101,"x_max":586,"o":"m 101 0 m 101 0 l 106 53 l 317 53 l 386 705 l 176 705 l 181 758 l 449 758 l 375 53 l 586 53 l 581 0 l 101 0 m 439 923 q 400 933 414 923 q 388 968 385 943 l 388 977 q 408 1015 391 1004 q 449 1025 424 1025 q 490 1015 475 1025 q 501 977 505 1004 l 501 968 q 481 933 499 943 q 439 923 463 923 z "},"ї":{"ha":788,"x_min":101,"x_max":610,"o":"m 101 0 m 101 0 l 106 53 l 317 53 l 386 705 l 176 705 l 181 758 l 449 758 l 375 53 l 586 53 l 581 0 l 101 0 m 326 923 q 290 932 303 923 q 280 968 277 942 l 280 977 q 299 1015 284 1005 q 336 1025 313 1025 q 372 1015 359 1025 q 381 977 385 1005 l 381 968 q 362 932 378 942 q 326 923 347 923 m 551 923 q 515 932 528 923 q 505 968 501 942 l 505 977 q 523 1015 509 1005 q 561 1025 538 1025 q 597 1015 583 1025 q 606 977 610 1005 l 606 968 q 587 932 602 942 q 551 923 572 923 z "},"ј":{"ha":788,"x_min":74,"x_max":605,"o":"m 74 0 m 223 -263 q 148 -254 186 -263 q 74 -232 110 -245 l 93 -178 q 162 -200 128 -192 q 227 -208 196 -208 q 359 -157 312 -208 q 417 0 405 -106 l 491 705 l 196 705 l 201 758 l 556 758 l 476 -5 q 396 -195 462 -128 q 223 -263 330 -263 m 539 923 q 499 933 514 923 q 487 968 485 943 l 487 977 q 508 1015 491 1004 q 549 1025 524 1025 q 590 1015 574 1025 q 601 977 605 1004 l 601 968 q 581 933 598 943 q 539 923 563 923 z "},"љ":{"ha":788,"x_min":-13,"x_max":670,"o":"m 245 705 l 186 192 q 134 39 173 85 q 48 -8 95 -8 q 18 -4 33 -9 q -13 5 4 0 l 9 66 q 28 59 18 62 q 48 56 38 56 q 95 83 73 54 q 129 201 117 111 l 193 758 l 460 758 l 432 489 l 504 489 q 631 440 591 489 q 659 294 670 391 l 649 194 q 589 49 639 97 q 453 0 539 0 l 322 0 l 396 705 l 245 705 m 385 53 l 455 53 q 547 85 510 53 q 592 199 583 116 l 601 292 q 580 404 610 374 q 495 434 551 434 l 426 434 l 385 53 z "},"њ":{"ha":788,"x_min":54,"x_max":668,"o":"m 375 53 l 453 53 q 544 83 508 53 q 588 193 580 114 l 598 284 q 576 395 606 364 q 492 426 547 426 l 414 426 l 375 53 m 157 413 l 114 0 l 54 0 l 134 758 l 193 758 l 163 466 l 361 466 l 391 758 l 449 758 l 420 479 l 501 479 q 628 431 588 479 q 658 288 668 383 l 648 188 q 588 47 638 95 q 452 0 539 0 l 312 0 l 355 413 l 157 413 z "},"ћ":{"ha":788,"x_min":81,"x_max":643,"o":"m 81 0 m 215 529 l 159 0 l 101 0 l 187 821 l 81 821 l 87 875 l 193 875 l 207 1010 l 265 1010 l 251 875 l 462 875 l 456 821 l 245 821 l 221 585 l 232 585 q 331 676 274 645 q 453 707 388 707 q 593 646 543 707 q 631 479 643 585 l 581 0 l 523 0 l 572 465 q 544 605 581 558 q 439 653 508 653 q 328 625 380 653 q 215 529 275 597 z "},"џ":{"ha":788,"x_min":101,"x_max":660,"o":"m 292 -189 l 312 0 l 101 0 l 181 758 l 239 758 l 164 53 l 528 53 l 602 758 l 660 758 l 581 0 l 370 0 l 350 -189 l 292 -189 z "},"ґ":{"ha":788,"x_min":153,"x_max":688,"o":"m 153 0 l 232 758 l 617 758 l 634 914 l 688 914 l 667 705 l 287 705 l 212 0 l 153 0 z "},"ⁿ":{"ha":788,"x_min":189,"x_max":630,"o":"m 189 383 l 255 1013 l 306 1013 l 297 924 l 308 924 q 382 997 337 971 q 475 1023 427 1023 q 592 968 553 1023 q 621 824 630 913 l 574 383 l 523 383 l 568 817 q 551 936 577 895 q 465 977 524 977 q 377 954 422 977 q 293 884 332 931 l 240 383 l 189 383 z "},"̀":{"ha":0,"x_min":-106,"x_max":114,"o":"m 64 884 l -106 1136 l -11 1136 l 114 884 l 64 884 z "},"́":{"ha":0,"x_min":-37,"x_max":236,"o":"m -37 884 l 143 1136 l 236 1136 l 14 884 l -37 884 z "},"̂":{"ha":0,"x_min":-157,"x_max":249,"o":"m -135 913 l -157 944 l 48 1158 l 87 1158 l 249 944 l 221 913 l 62 1102 l -135 913 z "},"̃":{"ha":0,"x_min":-155,"x_max":265,"o":"m 133 896 q 75 920 97 896 q 30 1013 53 944 q 3 1083 16 1064 q -28 1102 -10 1102 q -79 1058 -59 1102 q -106 923 -98 1014 l -107 909 l -155 909 l -154 928 q -109 1093 -143 1038 q -23 1149 -76 1149 q 35 1126 14 1149 q 76 1040 57 1104 q 107 964 93 985 q 138 943 121 943 q 187 987 168 943 q 215 1122 206 1032 l 217 1136 l 265 1136 l 263 1117 q 218 952 251 1008 q 133 896 186 896 z "},"̄":{"ha":0,"x_min":-138,"x_max":245,"o":"m -138 986 l -131 1040 l 245 1040 l 239 986 l -138 986 z "},"̆":{"ha":0,"x_min":-163,"x_max":284,"o":"m 39 875 q -113 943 -63 875 q -150 1136 -163 1010 l -91 1136 q -69 978 -102 1027 q 44 929 -37 929 q 168 978 125 929 q 225 1136 211 1027 l 284 1136 q 205 943 269 1010 q 39 875 141 875 z "},"̇":{"ha":0,"x_min":-10,"x_max":110,"o":"m 44 923 q 4 933 19 923 q -8 968 -10 943 l -8 977 q 13 1015 -4 1004 q 54 1025 29 1025 q 95 1015 80 1025 q 106 977 110 1004 l 106 968 q 86 933 104 943 q 44 923 68 923 z "},"̈":{"ha":0,"x_min":-117,"x_max":216,"o":"m -68 923 q -104 932 -91 923 q -114 968 -117 942 l -114 977 q -95 1015 -110 1005 q -58 1025 -81 1025 q -22 1015 -35 1025 q -13 977 -9 1005 l -13 968 q -32 932 -16 942 q -68 923 -47 923 m 157 923 q 121 932 134 923 q 111 968 107 942 l 111 977 q 129 1015 115 1005 q 167 1025 144 1025 q 203 1015 189 1025 q 212 977 216 1005 l 212 968 q 193 932 208 942 q 157 923 178 923 z "},"̊":{"ha":0,"x_min":-104,"x_max":221,"o":"m 38 865 q -69 910 -34 865 q -93 1039 -104 955 l -88 1097 q -35 1229 -80 1183 q 81 1275 9 1275 q 187 1229 153 1275 q 212 1097 221 1183 l 207 1039 q 153 910 197 955 q 38 865 110 865 m 43 914 q 119 944 93 914 q 153 1039 145 975 l 158 1097 q 146 1195 165 1164 q 76 1226 126 1226 q -1 1195 25 1226 q -34 1097 -27 1164 l -39 1039 q -27 944 -47 975 q 43 914 -8 914 z "},"̋":{"ha":0,"x_min":-85,"x_max":308,"o":"m 120 884 l 206 1136 l 308 1136 l 168 884 l 120 884 m -85 884 l 0 1136 l 102 1136 l -38 884 l -85 884 z "},"̌":{"ha":0,"x_min":-140,"x_max":265,"o":"m 21 889 l -140 1102 l -112 1134 l 47 944 l 244 1134 l 265 1102 l 61 889 l 21 889 z "},"̒":{"ha":0,"x_min":-54,"x_max":167,"o":"m -54 884 l 116 1136 l 167 1136 l 39 884 l -54 884 z "},"̦":{"ha":0,"x_min":-217,"x_max":5,"o":"m -217 -379 l -88 -126 l 5 -126 l -167 -379 l -217 -379 z "},"̧":{"ha":0,"x_min":-246,"x_max":51,"o":"m -85 0 l -69 27 q 20 -28 -10 13 q 44 -129 51 -69 q -6 -234 38 -196 q -116 -273 -49 -273 q -212 -241 -178 -273 q -244 -133 -246 -208 l -187 -128 q -172 -201 -188 -179 q -116 -223 -155 -223 q -43 -201 -66 -223 q -14 -125 -20 -179 q -25 -45 -9 -74 q -85 0 -40 -16 z "},"̨":{"ha":0,"x_min":-155,"x_max":71,"o":"m -24 -271 q -121 -234 -87 -271 q -149 -135 -155 -197 q -105 -33 -144 -81 q -8 42 -67 14 l 6 29 q -62 -38 -39 -3 q -90 -119 -85 -73 q -76 -195 -95 -172 q -10 -218 -57 -218 q 30 -216 10 -218 q 71 -208 49 -213 l 64 -261 q 20 -269 44 -266 q -24 -271 -5 -271 z "},"¼":{"ha":788,"x_min":9,"x_max":753,"o":"m 237 518 l 242 566 l 385 566 l 423 929 l 415 929 q 355 848 398 879 q 261 817 312 818 l 259 867 q 361 906 309 870 q 434 1018 413 942 l 486 1018 l 438 566 l 569 566 l 564 518 l 237 518 m 9 346 l 15 412 l 348 402 l 345 357 l 9 346 m 746 346 l 427 357 l 431 402 l 753 412 l 746 346 m 441 -265 l 386 -265 l 402 -124 l 124 -124 l 129 -76 l 427 273 l 497 273 l 461 -76 l 558 -76 l 553 -124 l 456 -124 l 441 -265 m 189 -76 l 407 -76 l 437 215 l 189 -76 z "},"½":{"ha":788,"x_min":9,"x_max":753,"o":"m 237 518 l 242 566 l 385 566 l 423 929 l 415 929 q 355 848 398 879 q 261 817 312 818 l 259 867 q 361 906 309 870 q 434 1018 413 942 l 486 1018 l 438 566 l 569 566 l 564 518 l 237 518 m 9 346 l 15 412 l 348 402 l 345 357 l 9 346 m 746 346 l 427 357 l 431 402 l 753 412 l 746 346 m 504 -266 l 122 -266 l 134 -160 q 171 -68 140 -100 q 271 -19 202 -35 l 383 6 q 456 36 436 19 q 481 92 476 53 l 484 116 q 462 194 489 170 q 364 218 436 218 q 263 199 292 218 q 225 124 235 179 l 169 129 q 227 234 181 202 q 369 266 274 266 q 504 231 463 266 q 537 120 544 196 l 532 77 q 496 2 528 30 q 399 -43 465 -27 l 289 -68 q 213 -107 236 -81 q 182 -218 191 -133 l 509 -218 l 504 -266 z "},"¾":{"ha":788,"x_min":9,"x_max":753,"o":"m 391 509 q 247 540 287 509 q 210 636 208 572 l 265 641 q 289 576 266 595 q 396 558 311 558 q 506 581 472 558 q 547 658 540 604 l 548 678 q 524 740 553 721 q 420 759 495 759 l 359 759 l 364 807 l 426 807 q 522 821 492 807 q 556 864 552 835 l 558 889 q 535 955 563 936 q 437 975 506 975 q 344 959 375 975 q 307 904 313 943 l 251 909 q 308 997 263 971 q 442 1024 354 1024 q 577 993 535 1024 q 612 896 619 962 l 610 876 q 582 817 606 838 q 524 790 558 795 l 523 782 q 585 748 562 778 q 602 673 607 718 l 601 655 q 542 544 592 580 q 391 509 491 509 m 9 346 l 15 412 l 348 402 l 345 357 l 9 346 m 746 346 l 427 357 l 431 402 l 753 412 l 746 346 m 441 -265 l 386 -265 l 402 -124 l 124 -124 l 129 -76 l 427 273 l 497 273 l 461 -76 l 558 -76 l 553 -124 l 456 -124 l 441 -265 m 189 -76 l 407 -76 l 437 215 l 189 -76 z "},"⅛":{"ha":788,"x_min":9,"x_max":753,"o":"m 237 518 l 242 566 l 385 566 l 423 929 l 415 929 q 355 848 398 879 q 261 817 312 818 l 259 867 q 361 906 309 870 q 434 1018 413 942 l 486 1018 l 438 566 l 569 566 l 564 518 l 237 518 m 9 346 l 15 412 l 348 402 l 345 357 l 9 346 m 746 346 l 427 357 l 431 402 l 753 412 l 746 346 m 312 -273 q 167 -231 203 -273 q 138 -117 130 -189 l 139 -107 q 170 -26 144 -57 q 237 9 196 5 l 237 18 q 189 49 207 24 q 174 114 170 73 l 176 125 q 234 234 184 201 q 369 268 284 268 q 497 235 455 268 q 532 125 540 202 l 530 114 q 504 49 527 73 q 448 18 481 24 l 448 9 q 507 -27 487 5 q 521 -107 527 -59 l 520 -117 q 467 -232 513 -192 q 312 -273 422 -273 m 345 37 q 442 53 412 37 q 476 109 472 69 l 479 128 q 457 198 484 177 q 364 218 431 218 q 268 198 298 218 q 232 128 237 177 l 230 109 q 253 53 226 69 q 345 37 279 37 m 317 -223 q 426 -199 393 -223 q 466 -114 458 -174 l 466 -102 q 444 -32 472 -52 q 340 -11 415 -11 q 232 -32 264 -11 q 194 -102 201 -52 l 194 -114 q 214 -199 187 -174 q 317 -223 241 -223 z "},"⅜":{"ha":788,"x_min":9,"x_max":753,"o":"m 391 509 q 247 540 287 509 q 210 636 208 572 l 265 641 q 289 576 266 595 q 396 558 311 558 q 506 581 472 558 q 547 658 540 604 l 548 678 q 524 740 553 721 q 420 759 495 759 l 359 759 l 364 807 l 426 807 q 522 821 492 807 q 556 864 552 835 l 558 889 q 535 955 563 936 q 437 975 506 975 q 344 959 375 975 q 307 904 313 943 l 251 909 q 308 997 263 971 q 442 1024 354 1024 q 577 993 535 1024 q 612 896 619 962 l 610 876 q 582 817 606 838 q 524 790 558 795 l 523 782 q 585 748 562 778 q 602 673 607 718 l 601 655 q 542 544 592 580 q 391 509 491 509 m 9 346 l 15 412 l 348 402 l 345 357 l 9 346 m 746 346 l 427 357 l 431 402 l 753 412 l 746 346 m 312 -273 q 167 -231 203 -273 q 138 -117 130 -189 l 139 -107 q 170 -26 144 -57 q 237 9 196 5 l 237 18 q 189 49 207 24 q 174 114 170 73 l 176 125 q 234 234 184 201 q 369 268 284 268 q 497 235 455 268 q 532 125 540 202 l 530 114 q 504 49 527 73 q 448 18 481 24 l 448 9 q 507 -27 487 5 q 521 -107 527 -59 l 520 -117 q 467 -232 513 -192 q 312 -273 422 -273 m 345 37 q 442 53 412 37 q 476 109 472 69 l 479 128 q 457 198 484 177 q 364 218 431 218 q 268 198 298 218 q 232 128 237 177 l 230 109 q 253 53 226 69 q 345 37 279 37 m 317 -223 q 426 -199 393 -223 q 466 -114 458 -174 l 466 -102 q 444 -32 472 -52 q 340 -11 415 -11 q 232 -32 264 -11 q 194 -102 201 -52 l 194 -114 q 214 -199 187 -174 q 317 -223 241 -223 z "},"⅝":{"ha":788,"x_min":9,"x_max":753,"o":"m 394 509 q 249 540 289 509 q 212 650 208 572 l 268 658 q 293 578 266 598 q 399 557 319 557 q 508 579 475 557 q 547 655 540 601 l 549 687 q 527 754 554 734 q 427 775 499 775 l 245 775 l 270 1016 l 616 1016 l 611 968 l 321 968 l 306 824 l 436 824 q 568 791 524 824 q 606 692 612 758 l 601 652 q 540 544 593 580 q 394 509 486 509 m 9 346 l 15 412 l 348 402 l 345 357 l 9 346 m 746 346 l 427 357 l 431 402 l 753 412 l 746 346 m 312 -273 q 167 -231 203 -273 q 138 -117 130 -189 l 139 -107 q 170 -26 144 -57 q 237 9 196 5 l 237 18 q 189 49 207 24 q 174 114 170 73 l 176 125 q 234 234 184 201 q 369 268 284 268 q 497 235 455 268 q 532 125 540 202 l 530 114 q 504 49 527 73 q 448 18 481 24 l 448 9 q 507 -27 487 5 q 521 -107 527 -59 l 520 -117 q 467 -232 513 -192 q 312 -273 422 -273 m 345 37 q 442 53 412 37 q 476 109 472 69 l 479 128 q 457 198 484 177 q 364 218 431 218 q 268 198 298 218 q 232 128 237 177 l 230 109 q 253 53 226 69 q 345 37 279 37 m 317 -223 q 426 -199 393 -223 q 466 -114 458 -174 l 466 -102 q 444 -32 472 -52 q 340 -11 415 -11 q 232 -32 264 -11 q 194 -102 201 -52 l 194 -114 q 214 -199 187 -174 q 317 -223 241 -223 z "},"⅞":{"ha":788,"x_min":9,"x_max":753,"o":"m 340 518 q 386 651 362 592 q 438 761 410 710 q 500 862 466 812 q 578 971 534 913 l 253 971 l 258 1018 l 640 1018 l 635 971 q 488 742 547 842 q 396 518 429 643 l 340 518 m 9 346 l 15 412 l 348 402 l 345 357 l 9 346 m 746 346 l 427 357 l 431 402 l 753 412 l 746 346 m 312 -273 q 167 -231 203 -273 q 138 -117 130 -189 l 139 -107 q 170 -26 144 -57 q 237 9 196 5 l 237 18 q 189 49 207 24 q 174 114 170 73 l 176 125 q 234 234 184 201 q 369 268 284 268 q 497 235 455 268 q 532 125 540 202 l 530 114 q 504 49 527 73 q 448 18 481 24 l 448 9 q 507 -27 487 5 q 521 -107 527 -59 l 520 -117 q 467 -232 513 -192 q 312 -273 422 -273 m 345 37 q 442 53 412 37 q 476 109 472 69 l 479 128 q 457 198 484 177 q 364 218 431 218 q 268 198 298 218 q 232 128 237 177 l 230 109 q 253 53 226 69 q 345 37 279 37 m 317 -223 q 426 -199 393 -223 q 466 -114 458 -174 l 466 -102 q 444 -32 472 -52 q 340 -11 415 -11 q 232 -32 264 -11 q 194 -102 201 -52 l 194 -114 q 214 -199 187 -174 q 317 -223 241 -223 z "},"_":{"ha":788,"x_min":24,"x_max":620,"o":"m 24 -220 l 30 -159 l 620 -159 l 614 -220 l 24 -220 z "},"-":{"ha":788,"x_min":90,"x_max":686,"o":"m 90 412 l 96 472 l 686 472 l 679 412 l 90 412 z "},"­":{"ha":788,"x_min":90,"x_max":686,"o":"m 90 412 l 96 472 l 686 472 l 679 412 l 90 412 z "},"‐":{"ha":788,"x_min":90,"x_max":686,"o":"m 90 412 l 96 472 l 686 472 l 679 412 l 90 412 z "},"‑":{"ha":788,"x_min":90,"x_max":686,"o":"m 90 412 l 96 472 l 686 472 l 679 412 l 90 412 z "},"–":{"ha":788,"x_min":120,"x_max":654,"o":"m 120 412 l 126 472 l 654 472 l 648 412 l 120 412 z "},"—":{"ha":788,"x_min":15,"x_max":759,"o":"m 15 412 l 21 472 l 759 472 l 753 412 l 15 412 z "},"―":{"ha":788,"x_min":15,"x_max":760,"o":"m 15 412 l 21 472 l 760 472 l 754 412 l 15 412 z "},"(":{"ha":788,"x_min":218,"x_max":638,"o":"m 501 -265 q 287 -51 356 -222 q 246 379 218 121 q 378 808 273 636 q 636 1023 482 980 l 638 972 q 416 778 501 931 q 306 379 331 626 q 333 -20 279 131 q 514 -215 386 -172 l 501 -265 z "},")":{"ha":788,"x_min":122,"x_max":543,"o":"m 125 -265 l 122 -215 q 345 -20 260 -172 q 457 379 431 131 q 429 778 482 626 q 249 972 375 931 l 260 1023 q 475 808 407 980 q 516 379 543 636 q 384 -51 489 121 q 125 -265 280 -222 z "},"[":{"ha":788,"x_min":179,"x_max":635,"o":"m 179 -253 l 312 1010 l 635 1010 l 630 957 l 366 957 l 244 -198 l 508 -198 l 503 -253 l 179 -253 z "},"]":{"ha":788,"x_min":126,"x_max":582,"o":"m 126 -253 l 131 -198 l 395 -198 l 518 957 l 254 957 l 259 1010 l 582 1010 l 449 -253 l 126 -253 z "},"{":{"ha":788,"x_min":87,"x_max":636,"o":"m 501 -265 q 219 -217 303 -269 q 146 -56 135 -165 q 174 31 152 -9 q 241 125 196 71 q 295 194 278 168 q 316 244 313 220 q 273 338 323 311 q 87 370 222 366 l 92 418 q 283 448 227 422 q 347 535 340 473 q 337 585 350 561 q 297 645 324 609 q 247 730 261 692 q 239 816 234 768 q 347 976 250 926 q 636 1023 443 1027 l 631 970 q 383 938 460 973 q 298 816 307 903 q 307 751 294 780 q 354 679 319 721 q 398 608 386 638 q 407 543 410 578 q 350 438 399 472 q 212 400 301 404 l 212 394 q 340 344 298 385 q 375 236 381 303 q 352 168 371 201 q 287 88 332 135 q 229 13 247 45 q 206 -56 210 -19 q 266 -182 197 -145 q 506 -215 335 -218 l 501 -265 z "},"}":{"ha":788,"x_min":125,"x_max":678,"o":"m 523 -56 q 417 -217 511 -165 q 125 -265 323 -269 l 130 -215 q 378 -182 302 -218 q 463 -56 455 -145 q 456 13 467 -19 q 413 88 444 45 q 366 168 378 135 q 357 236 354 201 q 414 344 364 303 q 553 394 465 385 l 553 400 q 424 438 467 404 q 389 543 381 472 q 411 608 393 578 q 472 679 429 638 q 533 751 514 721 q 556 816 552 780 q 496 938 564 903 q 255 970 427 973 l 260 1023 q 540 976 453 1027 q 615 816 626 926 q 588 730 610 768 q 523 645 567 692 q 468 585 486 609 q 448 542 451 562 q 492 449 442 476 q 678 418 543 422 l 673 370 q 480 338 535 366 q 417 244 424 311 q 427 194 414 220 q 467 125 439 168 q 515 31 501 71 q 523 -56 528 -9 z "},"#":{"ha":788,"x_min":78,"x_max":711,"o":"m 463 340 l 513 677 l 324 677 l 275 340 l 463 340 m 414 0 l 456 285 l 268 285 l 226 0 l 170 0 l 213 285 l 78 285 l 83 340 l 222 340 l 270 677 l 119 677 l 125 731 l 279 731 l 319 1010 l 374 1010 l 333 731 l 521 731 l 562 1010 l 616 1010 l 576 731 l 711 731 l 705 677 l 567 677 l 518 340 l 669 340 l 664 285 l 509 285 l 467 0 l 414 0 z "},"%":{"ha":788,"x_min":49,"x_max":744,"o":"m 236 566 q 138 612 172 566 q 114 753 104 658 l 122 846 q 177 989 133 942 q 285 1035 222 1035 q 384 989 350 1035 q 408 846 418 942 l 399 753 q 345 612 389 658 q 236 566 301 566 m 241 614 q 309 646 283 614 q 343 750 336 678 l 355 848 q 342 953 362 919 q 280 987 322 987 q 213 953 240 987 q 179 848 187 919 l 168 750 q 181 646 160 678 q 241 614 201 614 m 49 197 l 711 865 l 744 822 l 83 154 l 49 197 m 504 -28 q 404 18 439 -28 q 379 159 369 64 l 389 253 q 444 395 399 348 q 553 442 489 442 q 651 395 617 442 q 674 253 684 348 l 664 159 q 610 18 654 64 q 504 -28 567 -28 m 509 20 q 575 52 549 20 q 609 157 601 85 l 619 255 q 607 360 626 326 q 548 394 588 394 q 479 360 506 394 q 443 255 451 326 l 433 157 q 446 52 426 85 q 509 20 467 20 z "},"‰":{"ha":788,"x_min":19,"x_max":723,"o":"m 216 566 q 131 609 160 566 q 111 740 101 652 l 122 859 q 172 992 133 948 q 265 1035 211 1035 q 350 992 321 1035 q 369 859 379 948 l 357 740 q 309 609 347 652 q 216 566 270 566 m 168 737 q 176 643 162 673 q 221 614 191 614 q 272 643 253 614 q 298 737 292 673 l 312 861 q 305 956 318 926 q 260 987 292 987 q 209 956 230 987 q 182 861 188 926 l 168 737 m 712 822 l 51 154 l 19 197 l 679 865 l 712 822 m 573 -28 q 526 -10 545 -28 q 497 45 506 8 q 456 -10 481 8 q 404 -28 432 -28 q 328 15 355 -28 q 311 146 302 58 l 323 265 q 369 398 333 355 q 453 442 404 442 q 502 424 481 442 q 532 367 523 405 q 571 424 548 405 q 622 442 595 442 q 698 398 673 442 q 713 265 723 355 l 701 146 q 658 15 692 58 q 573 -28 624 -28 m 369 145 q 374 51 362 81 q 410 21 385 21 q 454 51 437 21 q 477 145 471 81 l 490 266 q 487 362 497 331 q 449 393 476 393 q 407 362 424 393 q 381 266 389 331 l 369 145 m 535 145 q 540 51 529 81 q 578 21 552 21 q 622 51 605 21 q 645 145 639 81 l 658 266 q 655 362 665 331 q 617 393 644 393 q 573 362 591 393 q 548 266 556 331 l 535 145 z "},"'":{"ha":788,"x_min":376,"x_max":495,"o":"m 376 572 l 399 1010 l 495 1010 l 427 572 l 376 572 z "},"\"":{"ha":788,"x_min":218,"x_max":653,"o":"m 534 572 l 557 1010 l 653 1010 l 585 572 l 534 572 m 218 572 l 241 1010 l 337 1010 l 269 572 l 218 572 z "},"ʻ":{"ha":788,"x_min":299,"x_max":588,"o":"m 299 572 l 537 1010 l 588 1010 l 418 572 l 299 572 z "},"‘":{"ha":788,"x_min":299,"x_max":588,"o":"m 299 572 l 537 1010 l 588 1010 l 418 572 l 299 572 z "},"’":{"ha":788,"x_min":260,"x_max":549,"o":"m 260 572 l 431 1010 l 549 1010 l 313 572 l 260 572 z "},"“":{"ha":788,"x_min":141,"x_max":736,"o":"m 457 572 l 686 1010 l 736 1010 l 566 572 l 457 572 m 141 572 l 369 1010 l 419 1010 l 249 572 l 141 572 z "},"”":{"ha":788,"x_min":112,"x_max":707,"o":"m 429 572 l 600 1010 l 707 1010 l 480 572 l 429 572 m 112 572 l 283 1010 l 391 1010 l 163 572 l 112 572 z "},"‛":{"ha":788,"x_min":324,"x_max":523,"o":"m 324 572 m 471 572 l 324 1010 l 443 1010 l 523 572 l 471 572 z "},"‚":{"ha":788,"x_min":188,"x_max":473,"o":"m 188 0 m 188 -253 l 355 186 l 473 186 l 239 -253 l 188 -253 z "},"„":{"ha":788,"x_min":73,"x_max":668,"o":"m 73 0 m 390 -221 l 561 217 l 668 217 l 441 -221 l 390 -221 m 73 -221 l 244 217 l 352 217 l 124 -221 l 73 -221 z "},"‹":{"ha":788,"x_min":229,"x_max":576,"o":"m 515 153 l 229 433 l 231 451 l 576 731 l 568 664 l 292 442 l 521 220 l 515 153 z "},"›":{"ha":788,"x_min":199,"x_max":547,"o":"m 199 153 l 206 220 l 484 442 l 253 664 l 260 731 l 547 451 l 544 433 l 199 153 z "},"«":{"ha":788,"x_min":76,"x_max":722,"o":"m 662 153 l 393 433 l 395 451 l 722 731 l 715 664 l 452 442 l 668 220 l 662 153 m 346 153 l 76 433 l 78 451 l 407 731 l 399 664 l 135 442 l 352 220 l 346 153 z "},"»":{"ha":788,"x_min":47,"x_max":693,"o":"m 47 153 l 53 220 l 317 442 l 100 664 l 107 731 l 378 451 l 375 433 l 47 153 m 364 153 l 370 220 l 634 442 l 417 664 l 424 731 l 693 451 l 691 433 l 364 153 z "},"*":{"ha":788,"x_min":126,"x_max":696,"o":"m 622 455 l 424 641 l 409 332 l 342 332 l 389 640 l 154 455 l 126 508 l 380 673 l 162 838 l 199 891 l 396 703 l 413 1010 l 480 1010 l 431 702 l 668 891 l 696 838 l 442 673 l 660 508 l 622 455 z "},"†":{"ha":788,"x_min":119,"x_max":650,"o":"m 284 -253 l 385 705 l 234 705 l 167 379 l 119 379 l 191 758 l 391 758 l 410 1010 l 482 1010 l 448 758 l 650 758 l 643 379 l 595 379 l 596 705 l 444 705 l 343 -253 l 284 -253 z "},"‡":{"ha":788,"x_min":109,"x_max":652,"o":"m 274 -253 l 308 0 l 111 0 l 109 290 l 157 290 l 164 53 l 316 53 l 385 705 l 234 705 l 176 467 l 128 467 l 191 758 l 391 758 l 410 1010 l 482 1010 l 448 758 l 650 758 l 652 467 l 604 467 l 596 705 l 444 705 l 375 53 l 527 53 l 585 290 l 633 290 l 571 0 l 374 0 l 354 -253 l 274 -253 z "},".":{"ha":788,"x_min":271,"x_max":426,"o":"m 341 -13 q 290 3 308 -13 q 274 52 271 19 l 278 87 q 304 139 282 122 q 359 155 326 155 q 408 139 390 155 q 422 87 426 122 l 418 52 q 394 3 415 19 q 341 -13 372 -13 z "},",":{"ha":788,"x_min":176,"x_max":461,"o":"m 176 -253 l 342 186 l 461 186 l 226 -253 l 176 -253 z "},":":{"ha":788,"x_min":271,"x_max":490,"o":"m 405 595 q 354 611 372 595 q 338 662 335 628 l 342 696 q 368 747 346 731 q 423 764 390 764 q 472 747 455 764 q 486 696 490 731 l 482 662 q 458 611 479 628 q 405 595 437 595 m 341 -13 q 290 3 308 -13 q 274 53 271 19 l 278 87 q 304 139 282 122 q 359 155 326 155 q 408 139 390 155 q 422 87 426 122 l 418 53 q 394 3 415 19 q 341 -13 372 -13 z "},";":{"ha":788,"x_min":176,"x_max":490,"o":"m 405 595 q 354 611 372 595 q 338 660 335 628 l 342 696 q 368 747 346 731 q 423 764 390 764 q 472 747 455 764 q 486 696 490 731 l 482 660 q 458 611 479 628 q 405 595 437 595 m 176 -253 l 342 186 l 461 186 l 226 -253 l 176 -253 z "},"…":{"ha":788,"x_min":34,"x_max":663,"o":"m 592 -13 q 553 3 567 -13 q 542 53 539 19 l 545 87 q 567 139 549 122 q 610 155 585 155 q 649 139 635 155 q 659 87 663 122 l 655 53 q 634 3 653 19 q 592 -13 616 -13 m 341 -13 q 301 3 314 -13 q 289 53 287 19 l 293 87 q 314 139 297 122 q 359 155 332 155 q 397 139 384 155 q 407 87 410 122 l 403 53 q 383 3 400 19 q 341 -13 365 -13 m 87 -13 q 48 3 62 -13 q 37 53 34 19 l 40 87 q 62 139 44 122 q 105 155 80 155 q 144 139 130 155 q 154 87 158 122 l 150 53 q 129 3 148 19 q 87 -13 111 -13 z "},"!":{"ha":788,"x_min":271,"x_max":485,"o":"m 357 379 l 409 1010 l 485 1010 l 405 379 l 357 379 m 341 -13 q 289 3 307 -13 q 274 53 271 19 l 278 86 q 303 138 282 121 q 359 155 324 155 q 410 138 393 155 q 423 86 427 121 l 419 53 q 395 3 417 19 q 341 -13 374 -13 z "},"¡":{"ha":788,"x_min":304,"x_max":518,"o":"m 449 1021 q 499 1005 481 1021 q 514 952 518 989 l 510 919 q 485 870 508 886 q 432 854 463 854 q 380 870 398 854 q 365 919 362 886 l 369 952 q 394 1005 372 989 q 449 1021 415 1021 m 433 631 l 380 0 l 304 0 l 385 631 l 433 631 z "},"‼":{"ha":788,"x_min":124,"x_max":633,"o":"m 505 379 l 557 1010 l 633 1010 l 553 379 l 505 379 m 210 379 l 261 1010 l 337 1010 l 258 379 l 210 379 m 489 -13 q 436 3 452 -13 q 422 53 419 19 l 426 86 q 449 138 429 121 q 506 155 470 155 q 557 138 539 155 q 571 86 574 121 l 567 53 q 542 3 564 19 q 489 -13 520 -13 m 193 -13 q 141 3 159 -13 q 126 53 124 19 l 130 86 q 155 138 134 121 q 211 155 177 155 q 261 138 244 155 q 275 86 279 121 l 271 53 q 247 3 269 19 q 193 -13 225 -13 z "},"?":{"ha":788,"x_min":125,"x_max":717,"o":"m 298 395 l 292 442 q 547 534 468 475 q 636 697 625 593 l 640 735 q 610 916 654 862 q 443 970 566 970 q 260 921 312 970 q 183 734 208 872 l 125 739 q 219 961 149 899 q 447 1023 289 1023 q 653 955 590 1023 q 702 750 717 886 l 697 692 q 593 500 683 567 q 298 395 503 433 m 288 -13 q 237 3 255 -13 q 222 53 220 19 l 226 88 q 251 141 230 124 q 306 158 273 158 q 357 141 340 158 q 371 88 375 124 l 367 53 q 343 3 365 19 q 288 -13 321 -13 z "},"¿":{"ha":788,"x_min":71,"x_max":663,"o":"m 499 1023 q 551 1007 533 1023 q 566 957 569 991 l 562 924 q 537 872 558 889 q 481 855 515 855 q 431 872 448 855 q 417 924 413 889 l 420 957 q 445 1007 424 991 q 499 1023 466 1023 m 490 615 l 496 568 q 241 476 321 535 q 150 313 162 417 l 146 275 q 177 94 133 148 q 345 40 222 40 q 527 89 476 40 q 604 277 578 138 l 663 271 q 568 49 639 111 q 341 -13 497 -13 q 134 56 197 -13 q 86 260 71 124 l 91 318 q 194 511 105 444 q 490 615 284 577 z "},"/":{"ha":788,"x_min":74,"x_max":687,"o":"m 74 -253 l 629 1010 l 687 1010 l 133 -253 l 74 -253 z "},"\\":{"ha":788,"x_min":207,"x_max":554,"o":"m 496 -253 l 207 1010 l 265 1010 l 554 -253 l 496 -253 z "},"⁄":{"ha":788,"x_min":101,"x_max":688,"o":"m 101 0 l 629 1010 l 688 1010 l 160 0 l 101 0 z "},"∕":{"ha":788,"x_min":101,"x_max":688,"o":"m 101 0 l 629 1010 l 688 1010 l 160 0 l 101 0 z "},"|":{"ha":788,"x_min":289,"x_max":472,"o":"m 289 -253 l 422 1010 l 472 1010 l 340 -253 l 289 -253 z "},"¦":{"ha":788,"x_min":289,"x_max":472,"o":"m 369 505 l 422 1010 l 472 1010 l 419 505 l 369 505 m 289 -253 l 342 253 l 393 253 l 340 -253 l 289 -253 z "},"@":{"ha":788,"x_min":90,"x_max":679,"o":"m 381 -139 q 158 -46 227 -139 q 109 231 90 47 l 155 673 q 249 934 173 846 q 453 1023 326 1023 q 627 933 574 1023 q 662 669 679 843 l 626 336 q 567 189 615 240 q 447 139 519 139 q 340 192 374 139 q 317 340 307 245 l 337 525 q 394 676 347 620 q 503 732 441 732 q 568 712 544 732 q 600 662 591 692 l 609 662 q 587 900 626 822 q 447 977 548 977 q 278 905 337 977 q 203 673 220 832 l 157 231 q 196 -13 140 67 q 386 -93 251 -93 q 487 -83 441 -93 q 573 -57 533 -72 l 568 -104 q 475 -129 521 -120 q 381 -139 429 -139 m 456 191 q 538 229 509 191 q 574 342 567 266 l 593 516 q 581 640 602 598 q 508 681 561 681 q 427 640 457 681 q 388 516 396 598 l 370 346 q 383 230 361 270 q 456 191 405 191 z "},"&":{"ha":788,"x_min":40,"x_max":694,"o":"m 674 -8 q 568 69 621 32 q 468 154 514 107 q 351 32 417 77 q 218 -13 285 -13 q 83 57 126 -13 q 53 254 40 128 q 110 416 62 342 q 237 543 158 490 q 211 678 217 615 q 208 783 205 741 q 278 958 220 891 q 419 1024 336 1024 q 535 967 496 1024 q 564 822 574 910 q 489 662 556 730 q 301 528 422 595 q 323 473 311 504 q 350 412 335 443 q 404 314 374 362 q 470 223 434 266 q 542 349 508 284 q 611 486 576 414 l 655 463 q 576 322 615 390 q 496 191 538 254 l 694 43 l 674 -8 m 268 784 q 268 678 263 734 q 285 564 273 622 q 443 682 383 617 q 510 819 503 746 q 491 927 518 884 q 414 970 465 970 q 315 920 352 970 q 268 784 278 871 m 232 40 q 334 76 279 40 q 434 179 389 111 q 365 276 399 221 q 303 393 331 331 q 277 449 289 420 q 254 504 265 477 q 157 396 192 461 q 112 253 121 332 q 133 96 102 152 q 232 40 164 40 z "}}}
